<svg width="428" height="926" viewBox="0 0 428 926" fill="none" xmlns="http://www.w3.org/2000/svg">
<g clip-path="url(#clip0_12_197)">
<rect width="428" height="926" fill="white"/>
<path d="M214.125 471.125C219.458 471.125 224.667 471.77 229.75 473.06C234.833 474.353 239.75 476.208 244.5 478.625C245.25 478.958 245.688 479.437 245.815 480.06C245.938 480.687 245.875 481.292 245.625 481.875C245.375 482.458 244.958 482.917 244.375 483.25C243.792 483.583 243.083 483.542 242.25 483.125C237.833 480.875 233.27 479.145 228.56 477.935C223.853 476.728 219.042 476.125 214.125 476.125C209.292 476.125 204.542 476.687 199.875 477.81C195.208 478.937 190.75 480.708 186.5 483.125C185.833 483.542 185.188 483.645 184.565 483.435C183.938 483.228 183.417 482.792 183 482.125C182.75 481.458 182.688 480.853 182.815 480.31C182.938 479.77 183.333 479.292 184 478.875C188.667 476.375 193.542 474.458 198.625 473.125C203.708 471.792 208.875 471.125 214.125 471.125ZM214.125 483.375C222.958 483.375 231.292 485.27 239.125 489.06C246.958 492.853 253.5 498.333 258.75 505.5C259.25 506.25 259.417 506.917 259.25 507.5C259.083 508.083 258.75 508.583 258.25 509C257.75 509.417 257.167 509.603 256.5 509.56C255.833 509.52 255.25 509.167 254.75 508.5C250.167 502 244.272 497.02 237.065 493.56C229.855 490.103 222.208 488.375 214.125 488.375C206.042 488.375 198.458 490.103 191.375 493.56C184.292 497.02 178.417 502 173.75 508.5C173.25 509.25 172.667 509.667 172 509.75C171.333 509.833 170.75 509.667 170.25 509.25C169.667 508.833 169.292 508.312 169.125 507.685C168.958 507.062 169.167 506.417 169.75 505.75C174.833 498.667 181.292 493.167 189.125 489.25C196.958 485.333 205.292 483.375 214.125 483.375ZM214.125 507.25C221.875 507.25 228.542 509.853 234.125 515.06C239.708 520.27 242.5 526.667 242.5 534.25C242.5 535 242.27 535.603 241.81 536.06C241.353 536.52 240.75 536.75 240 536.75C239.333 536.75 238.75 536.52 238.25 536.06C237.75 535.603 237.5 535 237.5 534.25C237.5 528 235.187 522.77 230.56 518.56C225.937 514.353 220.458 512.25 214.125 512.25C207.792 512.25 202.353 514.353 197.81 518.56C193.27 522.77 191 528 191 534.25C191 541 192.167 546.728 194.5 551.435C196.833 556.145 200.25 560.875 204.75 565.625C205.25 566.125 205.5 566.708 205.5 567.375C205.5 568.042 205.25 568.625 204.75 569.125C204.25 569.625 203.667 569.875 203 569.875C202.333 569.875 201.75 569.625 201.25 569.125C196.333 563.958 192.563 558.687 189.94 553.31C187.313 547.937 186 541.583 186 534.25C186 526.667 188.75 520.27 194.25 515.06C199.75 509.853 206.375 507.25 214.125 507.25ZM214 531.75C214.75 531.75 215.355 532 215.815 532.5C216.272 533 216.5 533.583 216.5 534.25C216.5 540.5 218.75 545.625 223.25 549.625C227.75 553.625 233 555.625 239 555.625C239.5 555.625 240.208 555.583 241.125 555.5C242.042 555.417 243 555.292 244 555.125C244.75 554.958 245.397 555.062 245.94 555.435C246.48 555.812 246.833 556.375 247 557.125C247.167 557.792 247.042 558.375 246.625 558.875C246.208 559.375 245.667 559.708 245 559.875C243.5 560.292 242.188 560.522 241.065 560.565C239.938 560.605 239.25 560.625 239 560.625C231.583 560.625 225.145 558.125 219.685 553.125C214.228 548.125 211.5 541.833 211.5 534.25C211.5 533.583 211.728 533 212.185 532.5C212.645 532 213.25 531.75 214 531.75ZM214.125 519.5C218.375 519.5 222 520.917 225 523.75C228 526.583 229.5 530.083 229.5 534.25C229.5 537 230.542 539.313 232.625 541.19C234.708 543.063 237.167 544 240 544C242.833 544 245.25 543.063 247.25 541.19C249.25 539.313 250.25 537 250.25 534.25C250.25 524.583 246.708 516.458 239.625 509.875C232.542 503.292 224.083 500 214.25 500C204.417 500 195.958 503.292 188.875 509.875C181.792 516.458 178.25 524.542 178.25 534.125C178.25 536.125 178.438 538.625 178.815 541.625C179.188 544.625 180.083 548.125 181.5 552.125C181.75 552.875 181.73 553.542 181.44 554.125C181.147 554.708 180.667 555.125 180 555.375C179.333 555.625 178.687 555.603 178.06 555.31C177.437 555.02 177 554.542 176.75 553.875C175.5 550.625 174.605 547.395 174.065 544.185C173.522 540.978 173.25 537.667 173.25 534.25C173.25 523.167 177.272 513.875 185.315 506.375C193.355 498.875 202.958 495.125 214.125 495.125C225.375 495.125 235.042 498.875 243.125 506.375C251.208 513.875 255.25 523.167 255.25 534.25C255.25 538.417 253.772 541.897 250.815 544.69C247.855 547.48 244.25 548.875 240 548.875C235.75 548.875 232.105 547.48 229.065 544.69C226.022 541.897 224.5 538.417 224.5 534.25C224.5 531.5 223.48 529.187 221.44 527.31C219.397 525.437 216.958 524.5 214.125 524.5C211.292 524.5 208.853 525.437 206.81 527.31C204.77 529.187 203.75 531.5 203.75 534.25C203.75 542.333 206.147 549.083 210.94 554.5C215.73 559.917 221.917 563.708 229.5 565.875C230.25 566.208 230.75 566.645 231 567.185C231.25 567.728 231.292 568.333 231.125 569C230.958 569.583 230.625 570.083 230.125 570.5C229.625 570.917 229 571.042 228.25 570.875C219.583 568.625 212.5 564.292 207 557.875C201.5 551.458 198.75 543.583 198.75 534.25C198.75 530.083 200.25 526.583 203.25 523.75C206.25 520.917 209.875 519.5 214.125 519.5Z" fill="#3FBDF1"/>
<path d="M334.921 -188.468C385.604 -231.316 508.088 -149.492 574.746 -93.8056C582.219 -87.5634 582.124 -76.2039 574.703 -69.9004C487.963 3.78043 336.957 131.194 330.934 132.764C322.981 134.837 -75.3371 261.483 -111.989 243.65C-148.64 225.818 -70.7738 91.567 -26.7715 71.129C17.2308 50.6909 -60.7152 -40.4522 83.7267 -139.96C228.654 -239.802 266.827 -130.9 334.921 -188.468Z" fill="black"/>
<path d="M167.385 63.4798H174.796C178.016 63.4798 180.889 64.1043 183.415 65.3534C186.218 66.7967 188.161 68.9062 189.244 71.6819C189.854 73.2086 190.16 74.9156 190.16 76.8031C190.16 81.272 188.786 84.922 186.038 87.7532C183.29 90.5844 179.307 92 174.088 92H167.385C165.22 92 163.263 92.0416 161.514 92.1249L161.39 90.9175C162.805 90.6399 163.763 90.3901 164.262 90.168C164.762 89.946 165.04 89.599 165.095 89.1272C165.317 87.4895 165.428 84.5195 165.428 80.2172C165.428 73.2502 165.345 68.9062 165.178 67.1853L165.095 66.3526C165.04 65.853 164.79 65.506 164.346 65.3117C163.902 65.0897 163.013 64.8399 161.681 64.5623L161.806 63.3549C163.555 63.4381 165.414 63.4798 167.385 63.4798ZM169.633 89.5019C171.132 89.835 172.728 90.0015 174.421 90.0015C176.115 90.0015 177.724 89.6684 179.251 89.0023C180.778 88.3083 181.944 87.5034 182.748 86.5874C183.553 85.6437 184.192 84.5334 184.664 83.2566C185.413 81.3691 185.788 79.4261 185.788 77.4276C185.788 69.2948 181.263 65.2285 172.215 65.2285C171.215 65.2285 170.549 65.284 170.216 65.395C169.911 65.506 169.717 65.742 169.633 66.1028C169.328 67.907 169.175 70.9603 169.175 75.2626C169.175 81.952 169.286 86.3792 169.508 88.5443L169.633 89.5019ZM203.298 89.7933C208.405 89.7933 211.611 89.5574 212.916 89.0855C214.276 88.5581 215.233 87.8087 215.788 86.8372C216.094 86.3098 216.371 85.6575 216.621 84.8803L217.745 85.38C217.246 86.9066 216.913 89.1133 216.746 92H194.429L193.43 90.5428L212.083 65.7281C204.755 65.7281 200.356 65.9363 198.884 66.3526C197.441 66.769 196.359 68.1429 195.637 70.4745L194.513 69.9749C194.846 68.0874 195.012 66.0473 195.012 63.8545V63.23C197.288 63.3965 202.562 63.4798 210.834 63.4798H216.33L217.079 64.8537L198.468 89.7933H203.298ZM228.139 66.3526C227.917 67.9903 227.806 70.9603 227.806 75.2626C227.806 82.2296 227.89 86.5596 228.056 88.2528L228.139 89.1272C228.195 89.6268 228.459 89.9876 228.931 90.2097C229.402 90.404 230.318 90.6399 231.679 90.9175L231.554 92.1249C229.805 92.0416 227.904 92 225.85 92C223.796 92 221.894 92.0416 220.146 92.1249L220.021 90.9175C221.436 90.6399 222.394 90.3901 222.893 90.168C223.393 89.946 223.671 89.599 223.726 89.1272C223.948 87.4895 224.059 84.5195 224.059 80.2172C224.059 73.2502 223.976 68.9062 223.809 67.1853L223.726 66.3526C223.671 65.853 223.421 65.506 222.977 65.3117C222.533 65.0897 221.644 64.8399 220.312 64.5623L220.437 63.3549C222.186 63.4381 224.018 63.4798 225.933 63.4798C227.848 63.4798 229.68 63.4381 231.429 63.3549L231.554 64.5623C230.221 64.8399 229.333 65.0897 228.889 65.3117C228.445 65.506 228.195 65.853 228.139 66.3526ZM249.615 64.937C248.005 64.937 246.576 65.2562 245.326 65.8946C244.077 66.533 243.092 67.3241 242.37 68.2678C241.649 69.2116 241.066 70.2802 240.622 71.4738C239.844 73.4723 239.456 75.4152 239.456 77.3027C239.456 79.1902 239.622 80.8972 239.955 82.4239C240.289 83.9227 240.816 85.3106 241.538 86.5874C242.259 87.8642 243.272 88.8635 244.577 89.5851C245.882 90.3068 247.339 90.6677 248.949 90.6677C250.586 90.6677 252.002 90.3901 253.196 89.835C254.389 89.2798 255.347 88.5859 256.068 87.7532C256.818 86.8927 257.442 85.9212 257.942 84.8387C258.83 82.9235 259.302 80.9805 259.358 79.0098C259.358 69.6279 256.11 64.937 249.615 64.937ZM260.232 87.6699C259.066 89.1966 257.484 90.4179 255.485 91.3338C253.487 92.2221 251.169 92.6662 248.532 92.6662C243.98 92.6662 240.594 91.4449 238.373 89.0023C236.181 86.5319 235.084 83.1733 235.084 78.9265C235.084 74.6519 236.25 70.988 238.582 67.9348C239.747 66.4081 241.329 65.2007 243.328 64.3125C245.326 63.3965 247.644 62.9385 250.281 62.9385C254.833 62.9385 258.206 64.1598 260.398 66.6024C262.619 69.045 263.729 72.3897 263.729 76.6365C263.729 80.8834 262.564 84.5611 260.232 87.6699Z" fill="white"/>
<path d="M190.707 98.7936H194.742C196.247 98.7936 197.392 99.1619 198.177 99.8985C198.962 100.635 199.354 101.548 199.354 102.637C199.354 103.373 199.13 104.078 198.681 104.751C198.233 105.407 197.617 105.928 196.832 106.312C198.097 106.6 199.01 107.097 199.57 107.801C200.131 108.506 200.411 109.459 200.411 110.66C200.411 111.861 199.907 112.926 198.898 113.854C197.889 114.783 196.632 115.248 195.126 115.248H190.707C189.458 115.248 188.329 115.272 187.32 115.32L187.248 114.623C188.064 114.463 188.617 114.319 188.905 114.191C189.193 114.063 189.354 113.862 189.386 113.59C189.514 112.645 189.578 110.932 189.578 108.45C189.578 104.43 189.53 101.924 189.434 100.931L189.386 100.451C189.354 100.163 189.209 99.9626 188.953 99.8505C188.697 99.7224 188.185 99.5782 187.416 99.4181L187.488 98.7215C188.497 98.7696 189.57 98.7936 190.707 98.7936ZM197.096 102.637C197.096 100.747 195.879 99.8024 193.445 99.8024C192.869 99.8024 192.492 99.8345 192.316 99.8985C192.156 99.9626 192.044 100.107 191.98 100.331C191.804 101.148 191.716 103.173 191.716 106.408C192.837 106.216 194.03 106.12 195.295 106.12C196.496 105.335 197.096 104.174 197.096 102.637ZM194.406 114.383C195.415 114.383 196.287 114.047 197.024 113.374C197.761 112.701 198.129 111.781 198.129 110.612C198.129 108.29 196.496 107.129 193.229 107.129C192.748 107.129 192.244 107.153 191.716 107.201C191.716 110.355 191.78 112.341 191.908 113.158L191.98 113.614C192.124 114.127 192.933 114.383 194.406 114.383ZM208.577 110.203C207.264 110.235 206.263 110.484 205.575 110.948C204.886 111.412 204.542 111.917 204.542 112.461C204.542 113.006 204.678 113.406 204.95 113.662C205.238 113.902 205.695 114.023 206.319 114.023C206.944 114.023 207.697 113.758 208.577 113.23V110.203ZM210.331 115.464C209.37 115.464 208.81 114.943 208.649 113.902C207.24 114.943 206.023 115.464 204.998 115.464C204.31 115.464 203.725 115.256 203.245 114.839C202.764 114.407 202.524 113.742 202.524 112.846C202.524 111.949 202.997 111.14 203.941 110.419C204.902 109.699 206.448 109.266 208.577 109.122V106.888C208.577 106.44 208.409 106.096 208.073 105.856C207.753 105.615 207.296 105.495 206.704 105.495C206.111 105.495 205.639 105.663 205.287 106C204.934 106.32 204.758 106.736 204.758 107.249C204.758 107.441 204.782 107.657 204.83 107.897L204.302 108.138C203.981 107.961 203.677 107.721 203.389 107.417C203.117 107.113 202.981 106.896 202.981 106.768C202.981 106.624 203.085 106.424 203.293 106.168C203.517 105.896 203.813 105.607 204.182 105.303C204.55 104.999 205.038 104.743 205.647 104.534C206.271 104.31 206.968 104.198 207.737 104.198C208.505 104.198 209.13 104.39 209.61 104.775C210.091 105.143 210.331 105.824 210.331 106.816C210.331 107.793 210.379 109.867 210.475 113.038C210.491 113.806 210.779 114.191 211.34 114.191C211.58 114.191 211.828 114.127 212.084 113.998L212.324 114.623C211.716 115.184 211.051 115.464 210.331 115.464ZM216.721 106.432L216.697 109.747C216.697 111.813 216.761 113.158 216.889 113.782L216.937 114.095C216.953 114.207 217.129 114.319 217.466 114.431C217.818 114.527 218.154 114.591 218.474 114.623L218.402 115.32C217.634 115.272 216.753 115.248 215.76 115.248C214.767 115.248 213.887 115.272 213.118 115.32L213.19 114.623C213.494 114.591 213.815 114.527 214.151 114.431C214.503 114.319 214.687 114.207 214.703 114.095C214.831 113.534 214.895 112.413 214.895 110.732C214.895 108.009 214.831 106.344 214.703 105.735L213.166 105.279L213.118 104.655C214.143 104.655 215.2 104.51 216.289 104.222L216.745 104.438V105.591C218.523 104.663 220.068 104.198 221.381 104.198C222.182 104.198 222.79 104.358 223.206 104.679C223.623 104.999 223.831 105.599 223.831 106.48V109.747C223.831 111.813 223.887 113.158 223.999 113.782L224.071 114.095C224.087 114.207 224.263 114.319 224.6 114.431C224.952 114.527 225.288 114.591 225.609 114.623L225.536 115.32C224.768 115.272 223.887 115.248 222.894 115.248C221.901 115.248 221.021 115.272 220.252 115.32L220.324 114.623C220.628 114.591 220.949 114.527 221.285 114.431C221.637 114.319 221.821 114.207 221.837 114.095C221.965 113.534 222.029 112.085 222.029 109.747V107.417C222.029 106.792 221.845 106.36 221.477 106.12C221.109 105.88 220.484 105.759 219.603 105.759C218.723 105.759 217.762 105.984 216.721 106.432ZM231.723 115.32C230.955 115.272 230.074 115.248 229.081 115.248C228.088 115.248 227.208 115.272 226.439 115.32L226.511 114.623C226.815 114.591 227.136 114.527 227.472 114.431C227.824 114.319 228.008 114.207 228.024 114.095C228.168 113.054 228.24 111.052 228.24 108.089C228.24 103.269 228.192 100.451 228.096 99.6343L228.048 99.2259L226.511 98.7696L226.463 98.145C227.488 98.145 228.545 98.0009 229.634 97.7127L230.09 97.9288C230.058 99.9305 230.042 102.885 230.042 106.792V108.714L233.885 105.832C233.997 105.735 234.053 105.639 234.053 105.543C234.053 105.191 233.573 105.007 232.612 104.991L232.684 104.294C233.677 104.342 234.526 104.366 235.23 104.366C235.935 104.366 236.776 104.342 237.753 104.294L237.825 104.991C236.848 105.135 235.999 105.463 235.278 105.976L232.204 108.258L236.816 114.215C236.976 114.407 237.28 114.527 237.729 114.575C237.825 114.575 237.953 114.583 238.113 114.599C238.273 114.615 238.377 114.623 238.425 114.623L238.353 115.32C237.44 115.32 236.407 115.368 235.254 115.464L230.811 109.266L230.066 109.819C230.114 111.644 230.178 113.07 230.258 114.095C230.274 114.207 230.45 114.319 230.787 114.431C231.139 114.527 231.475 114.591 231.795 114.623L231.723 115.32Z" fill="#3FBDF1"/>
<path d="M136.468 754.969H135.074C134.764 754.969 134.568 754.815 134.487 754.505C134.438 754.227 134.397 753.893 134.365 753.502H130.768V766.052L131.478 766.174C131.559 766.19 131.625 766.207 131.674 766.223C131.739 766.239 131.796 766.247 131.845 766.247L131.992 766.272C132.416 766.37 132.628 766.623 132.628 767.03V768.474H125.631V767.03C125.631 766.623 125.835 766.37 126.243 766.272L126.389 766.247C126.438 766.247 126.487 766.239 126.536 766.223C126.601 766.207 126.675 766.19 126.756 766.174L127.466 766.052V753.477H123.87C123.837 753.901 123.796 754.244 123.747 754.505C123.666 754.815 123.478 754.969 123.185 754.969H121.766V750.786H136.468V754.969ZM151.436 757.367C151.436 757.775 151.232 758.027 150.824 758.125C150.759 758.125 150.661 758.142 150.531 758.174C150.4 758.207 150.115 758.264 149.674 758.346L143.877 771.923C143.779 772.151 143.656 772.314 143.51 772.412C143.395 772.51 143.183 772.559 142.873 772.559H140.623L142.971 767.544L138.935 758.346C138.494 758.264 138.209 758.207 138.079 758.174C137.948 758.142 137.85 758.125 137.785 758.125C137.377 758.027 137.173 757.775 137.173 757.367V755.924H143.289V757.367C143.289 757.775 143.086 758.027 142.678 758.125L142.091 758.223L144.072 762.994C144.137 763.14 144.186 763.271 144.219 763.385C144.252 763.499 144.276 763.589 144.292 763.654C144.325 763.768 144.382 763.997 144.464 764.339L144.684 763.654C144.782 763.361 144.863 763.14 144.928 762.994L146.763 758.272L145.931 758.125C145.524 758.027 145.32 757.775 145.32 757.367V755.924H151.436V757.367ZM172.997 766.272C173.404 766.37 173.608 766.623 173.608 767.03V768.474H168.74V760.498C168.74 759.683 168.569 759.079 168.226 758.688C167.884 758.28 167.37 758.076 166.685 758.076C166.408 758.076 166.114 758.133 165.804 758.248C165.543 758.346 165.315 758.492 165.119 758.688C164.956 758.851 164.801 759.104 164.655 759.446C164.54 759.724 164.483 760.074 164.483 760.498V766.052L165.193 766.174L165.56 766.247L165.706 766.272C166.114 766.37 166.318 766.623 166.318 767.03V768.474H161.45V760.498C161.45 759.667 161.278 759.055 160.936 758.664C160.593 758.272 160.096 758.076 159.444 758.076C159.003 758.076 158.596 758.182 158.22 758.394C157.878 758.59 157.527 758.892 157.169 759.3V766.052L157.878 766.174L158.245 766.247L158.392 766.272C158.799 766.37 159.003 766.623 159.003 767.03V768.474H152.3V767.03C152.3 766.623 152.504 766.37 152.912 766.272L153.059 766.247C153.107 766.247 153.156 766.239 153.205 766.223C153.271 766.207 153.344 766.19 153.426 766.174L154.135 766.052V758.346L153.426 758.223C153.344 758.207 153.271 758.191 153.205 758.174C153.156 758.158 153.107 758.15 153.059 758.15L152.912 758.125C152.488 758.027 152.276 757.775 152.276 757.367V755.924H155.994C156.369 755.924 156.622 756.111 156.753 756.486L156.948 757.416C157.242 757.09 157.47 756.861 157.633 756.731C157.862 756.551 158.123 756.38 158.416 756.217C158.677 756.07 158.971 755.948 159.297 755.85C159.558 755.769 159.9 755.728 160.324 755.728C161.14 755.728 161.792 755.94 162.282 756.364C162.803 756.821 163.187 757.391 163.431 758.076C163.627 757.652 163.872 757.294 164.165 757C164.426 756.739 164.744 756.503 165.119 756.291C165.397 756.127 165.772 755.989 166.245 755.875C166.636 755.777 167.036 755.728 167.443 755.728C168.145 755.728 168.756 755.834 169.278 756.046C169.849 756.274 170.306 756.584 170.648 756.976C171.007 757.383 171.284 757.881 171.48 758.468C171.676 759.055 171.774 759.732 171.774 760.498V766.052L172.483 766.174C172.565 766.19 172.63 766.207 172.679 766.223C172.744 766.239 172.801 766.247 172.85 766.247L172.997 766.272ZM188.522 755.703C189.158 755.703 189.671 755.842 190.063 756.119L189.671 758.394C189.655 758.541 189.606 758.639 189.525 758.688C189.427 758.753 189.313 758.786 189.182 758.786C189.068 758.786 188.905 758.761 188.693 758.712C188.399 758.647 188.114 758.615 187.837 758.615C187.201 758.615 186.662 758.786 186.222 759.128C185.814 759.438 185.439 759.952 185.097 760.67V766.052L186.32 766.272C186.728 766.37 186.932 766.623 186.932 767.03V768.474H180.228V767.03C180.228 766.623 180.432 766.37 180.84 766.272L182.063 766.052V758.346L180.84 758.125C180.432 758.027 180.228 757.775 180.228 757.367V755.924H183.849C184.159 755.924 184.371 755.981 184.485 756.095C184.599 756.209 184.681 756.405 184.73 756.682L184.925 758.199C185.366 757.4 185.888 756.788 186.491 756.364C187.111 755.924 187.788 755.703 188.522 755.703ZM202.088 766.247C202.496 766.345 202.7 766.598 202.7 767.006V768.449H199.813C199.503 768.449 199.275 768.408 199.128 768.327C198.965 768.262 198.843 768.082 198.761 767.789L198.492 766.908C198.166 767.218 197.856 767.471 197.562 767.666C197.334 767.829 197.016 768.009 196.608 768.205C196.315 768.335 195.972 768.441 195.581 768.523C195.173 768.604 194.765 768.645 194.357 768.645C193.819 768.645 193.33 768.571 192.89 768.425C192.417 768.262 192.033 768.05 191.74 767.789C191.397 767.479 191.145 767.12 190.981 766.712C190.802 766.272 190.712 765.783 190.712 765.244C190.712 764.755 190.835 764.282 191.079 763.825C191.324 763.352 191.74 762.937 192.327 762.578C192.947 762.186 193.713 761.876 194.627 761.648C195.589 761.404 196.788 761.281 198.223 761.281V760.547C198.223 759.732 198.043 759.104 197.685 758.664C197.342 758.256 196.828 758.052 196.143 758.052C195.621 758.052 195.214 758.109 194.92 758.223C194.545 758.37 194.26 758.5 194.064 758.615L193.403 758.982C193.224 759.096 193.004 759.153 192.743 759.153C192.531 759.153 192.351 759.104 192.205 759.006C192.107 758.941 191.993 758.81 191.862 758.615L191.299 757.661C192.767 756.323 194.504 755.654 196.51 755.654C197.244 755.654 197.905 755.777 198.492 756.021C199.063 756.266 199.544 756.6 199.935 757.024C200.376 757.53 200.686 758.044 200.865 758.566C201.061 759.153 201.158 759.805 201.158 760.523V766.076L201.819 766.198L202.088 766.247ZM198.223 763.116C197.309 763.116 196.576 763.173 196.021 763.287C195.418 763.418 194.936 763.565 194.578 763.728C194.219 763.891 193.966 764.086 193.819 764.315C193.672 764.527 193.599 764.78 193.599 765.073C193.599 765.628 193.754 766.011 194.064 766.223C194.39 766.451 194.798 766.565 195.287 766.565C195.597 766.565 195.882 766.541 196.143 766.492C196.421 766.443 196.673 766.353 196.902 766.223C197.195 766.06 197.415 765.921 197.562 765.807C197.791 765.628 198.011 765.432 198.223 765.22V763.116ZM213.623 768.474H203.592V767.202C203.592 767.055 203.625 766.892 203.69 766.712C203.772 766.484 203.87 766.304 203.984 766.174L210.002 758.248H206.063C205.998 758.9 205.949 759.308 205.916 759.471C205.835 759.781 205.647 759.936 205.354 759.936H203.935V755.924H213.451V757.171C213.451 757.4 213.419 757.603 213.353 757.783C213.305 757.897 213.207 758.068 213.06 758.297L207.115 766.15H211.494L211.641 764.828C211.723 764.519 211.91 764.364 212.204 764.364H213.623V768.474ZM220.551 755.728C221.35 755.728 222.076 755.85 222.729 756.095C223.348 756.323 223.919 756.698 224.441 757.22C224.914 757.693 225.289 758.288 225.566 759.006C225.844 759.74 225.982 760.539 225.982 761.404C225.982 761.599 225.966 761.795 225.933 761.991C225.901 762.17 225.868 762.284 225.835 762.333C225.803 762.415 225.729 762.48 225.615 762.529C225.55 762.561 225.436 762.578 225.273 762.578H217.518C217.616 763.866 217.966 764.812 218.57 765.416C219.173 766.019 219.972 766.321 220.967 766.321C221.473 766.321 221.889 766.264 222.215 766.15C222.574 766.035 222.883 765.905 223.144 765.758C223.259 765.693 223.373 765.636 223.487 765.587C223.617 765.522 223.74 765.456 223.854 765.391C224.033 765.277 224.221 765.22 224.417 765.22C224.547 765.22 224.661 765.244 224.759 765.293C224.841 765.326 224.914 765.391 224.979 765.489L225.86 766.59C225.485 767.014 225.11 767.348 224.735 767.593C224.294 767.87 223.862 768.082 223.438 768.229C223.03 768.359 222.565 768.465 222.044 768.547C221.636 768.612 221.179 768.645 220.674 768.645C219.777 768.645 218.969 768.506 218.252 768.229C217.534 767.952 216.882 767.52 216.294 766.932C215.74 766.378 215.3 765.677 214.973 764.828C214.664 764.013 214.509 763.043 214.509 761.917C214.509 761.102 214.647 760.303 214.924 759.52C215.185 758.786 215.585 758.125 216.123 757.538C216.629 756.984 217.257 756.543 218.007 756.217C218.757 755.891 219.605 755.728 220.551 755.728ZM220.6 757.881C219.736 757.881 219.051 758.133 218.545 758.639C218.056 759.128 217.738 759.83 217.591 760.743H223.267C223.267 760.4 223.21 760.034 223.095 759.642C222.998 759.332 222.835 759.031 222.606 758.737C222.394 758.476 222.117 758.272 221.774 758.125C221.399 757.962 221.008 757.881 220.6 757.881ZM247.536 766.272C247.943 766.37 248.147 766.623 248.147 767.03V768.474H243.279V760.498C243.279 759.683 243.108 759.079 242.765 758.688C242.423 758.28 241.909 758.076 241.224 758.076C240.947 758.076 240.653 758.133 240.343 758.248C240.082 758.346 239.854 758.492 239.658 758.688C239.495 758.851 239.34 759.104 239.193 759.446C239.079 759.724 239.022 760.074 239.022 760.498V766.052L239.732 766.174L240.099 766.247L240.245 766.272C240.653 766.37 240.857 766.623 240.857 767.03V768.474H235.989V760.498C235.989 759.667 235.817 759.055 235.475 758.664C235.132 758.272 234.635 758.076 233.983 758.076C233.542 758.076 233.134 758.182 232.759 758.394C232.417 758.59 232.066 758.892 231.707 759.3V766.052L232.417 766.174L232.784 766.247L232.931 766.272C233.338 766.37 233.542 766.623 233.542 767.03V768.474H226.839V767.03C226.839 766.623 227.043 766.37 227.451 766.272L227.597 766.247C227.646 766.247 227.695 766.239 227.744 766.223C227.809 766.207 227.883 766.19 227.964 766.174L228.674 766.052V758.346L227.964 758.223C227.883 758.207 227.809 758.191 227.744 758.174C227.695 758.158 227.646 758.15 227.597 758.15L227.451 758.125C227.027 758.027 226.815 757.775 226.815 757.367V755.924H230.533C230.908 755.924 231.161 756.111 231.292 756.486L231.487 757.416C231.781 757.09 232.009 756.861 232.172 756.731C232.401 756.551 232.661 756.38 232.955 756.217C233.216 756.07 233.51 755.948 233.836 755.85C234.097 755.769 234.439 755.728 234.863 755.728C235.679 755.728 236.331 755.94 236.82 756.364C237.342 756.821 237.726 757.391 237.97 758.076C238.166 757.652 238.411 757.294 238.704 757C238.965 756.739 239.283 756.503 239.658 756.291C239.935 756.127 240.311 755.989 240.784 755.875C241.175 755.777 241.575 755.728 241.982 755.728C242.684 755.728 243.295 755.834 243.817 756.046C244.388 756.274 244.845 756.584 245.187 756.976C245.546 757.383 245.823 757.881 246.019 758.468C246.215 759.055 246.312 759.732 246.312 760.498V766.052L247.022 766.174C247.103 766.19 247.169 766.207 247.218 766.223C247.283 766.239 247.34 766.247 247.389 766.247L247.536 766.272ZM268.614 766.272C269.022 766.37 269.225 766.623 269.225 767.03V768.474H265.531C265.156 768.474 264.904 768.286 264.773 767.911L264.553 766.908C264.276 767.185 264.006 767.43 263.746 767.642C263.501 767.838 263.207 768.017 262.865 768.18C262.539 768.327 262.196 768.449 261.837 768.547C261.43 768.629 261.046 768.669 260.688 768.669C260.019 768.669 259.407 768.555 258.853 768.327C258.38 768.131 257.939 767.797 257.532 767.324C257.205 766.949 256.936 766.451 256.724 765.832C256.545 765.212 256.455 764.568 256.455 763.899V758.346L255.208 758.125C254.8 758.027 254.596 757.775 254.596 757.367V755.924H259.464V763.899C259.464 764.649 259.644 765.244 260.003 765.685C260.345 766.092 260.875 766.296 261.593 766.296C262.082 766.296 262.571 766.182 263.061 765.954C263.501 765.742 263.933 765.424 264.357 765V758.346C263.9 758.264 263.599 758.215 263.452 758.199C263.305 758.166 263.199 758.142 263.134 758.125C262.726 758.027 262.522 757.775 262.522 757.367V755.924H267.391V766.052L268.614 766.272ZM277.345 752.23C277.345 752.425 277.288 752.67 277.173 752.963C277.092 753.159 276.953 753.355 276.758 753.551C276.562 753.746 276.358 753.885 276.146 753.966C275.869 754.081 275.608 754.138 275.363 754.138C275.135 754.138 274.89 754.081 274.629 753.966C274.417 753.869 274.221 753.73 274.042 753.551C273.846 753.355 273.708 753.159 273.626 752.963C273.528 752.719 273.479 752.474 273.479 752.23C273.479 751.969 273.528 751.716 273.626 751.471C273.708 751.259 273.846 751.055 274.042 750.86C274.221 750.68 274.425 750.541 274.654 750.444C274.915 750.329 275.159 750.272 275.388 750.272C275.616 750.272 275.869 750.329 276.146 750.444C276.358 750.525 276.562 750.664 276.758 750.86C276.97 751.072 277.116 751.275 277.198 751.471C277.296 751.716 277.345 751.969 277.345 752.23ZM280.158 768.474H270.128V767.202C270.128 767.055 270.16 766.892 270.226 766.712C270.307 766.484 270.405 766.304 270.519 766.174L276.537 758.248H272.599C272.533 758.9 272.484 759.308 272.452 759.471C272.37 759.781 272.183 759.936 271.889 759.936H270.47V755.924H279.987V757.171C279.987 757.4 279.954 757.603 279.889 757.783C279.84 757.897 279.742 758.068 279.595 758.297L273.651 766.15H278.03L278.176 764.828C278.258 764.519 278.446 764.364 278.739 764.364H280.158V768.474ZM294.995 757.367C294.995 757.775 294.791 758.027 294.383 758.125C294.318 758.125 294.22 758.142 294.09 758.174C293.959 758.207 293.674 758.264 293.233 758.346L287.436 771.923C287.338 772.151 287.215 772.314 287.069 772.412C286.954 772.51 286.742 772.559 286.432 772.559H284.182L286.53 767.544L282.494 758.346C282.053 758.264 281.768 758.207 281.638 758.174C281.507 758.142 281.409 758.125 281.344 758.125C280.936 758.027 280.732 757.775 280.732 757.367V755.924H286.848V757.367C286.848 757.775 286.645 758.027 286.237 758.125L285.65 758.223L287.631 762.994C287.696 763.14 287.745 763.271 287.778 763.385C287.811 763.499 287.835 763.589 287.851 763.654C287.884 763.768 287.941 763.997 288.023 764.339L288.243 763.654C288.341 763.361 288.422 763.14 288.487 762.994L290.322 758.272L289.49 758.125C289.083 758.027 288.879 757.775 288.879 757.367V755.924H294.995V757.367ZM301.486 751.52C301.584 751.765 301.633 752.017 301.633 752.278C301.633 752.539 301.584 752.784 301.486 753.012C301.404 753.192 301.258 753.387 301.046 753.599C300.85 753.795 300.646 753.934 300.434 754.015C300.189 754.113 299.937 754.162 299.676 754.162C299.415 754.162 299.17 754.113 298.942 754.015C298.713 753.918 298.509 753.779 298.33 753.599C298.151 753.42 298.012 753.224 297.914 753.012C297.816 752.784 297.767 752.539 297.767 752.278C297.767 752.017 297.816 751.765 297.914 751.52C297.996 751.308 298.134 751.104 298.33 750.908C298.526 750.713 298.73 750.574 298.942 750.493C299.17 750.395 299.415 750.346 299.676 750.346C299.937 750.346 300.189 750.395 300.434 750.493C300.646 750.574 300.85 750.713 301.046 750.908C301.258 751.12 301.404 751.324 301.486 751.52ZM301.168 768.89C301.168 769.477 301.103 769.99 300.972 770.431C300.825 770.92 300.597 771.344 300.287 771.703C299.961 772.078 299.545 772.363 299.04 772.559C298.485 772.771 297.865 772.877 297.18 772.877C296.985 772.877 296.724 772.861 296.397 772.828C296.3 772.812 296.047 772.747 295.639 772.633L295.737 771.018C295.753 770.855 295.818 770.749 295.933 770.7C296.03 770.651 296.234 770.626 296.544 770.626C296.919 770.626 297.172 770.602 297.303 770.553C297.531 770.504 297.702 770.406 297.816 770.26C297.947 770.129 298.036 769.95 298.085 769.721C298.134 769.509 298.159 769.232 298.159 768.89V758.346L297.449 758.223C297.368 758.207 297.294 758.191 297.229 758.174C297.18 758.158 297.131 758.15 297.082 758.15L296.911 758.125C296.503 758.027 296.3 757.775 296.3 757.367V755.924H301.168V768.89ZM152.767 795.272C153.175 795.37 153.378 795.623 153.378 796.03V797.474H150.174C149.962 797.474 149.758 797.433 149.562 797.351C149.399 797.286 149.252 797.147 149.122 796.935L145.941 792.165C145.827 791.969 145.705 791.847 145.574 791.798C145.46 791.749 145.273 791.725 145.012 791.725H144.327V795.052L145.061 795.174L145.428 795.247L145.574 795.272C145.982 795.37 146.186 795.623 146.186 796.03V797.474H139.458V796.03C139.458 795.623 139.662 795.37 140.07 795.272L140.217 795.247C140.266 795.247 140.315 795.239 140.364 795.223C140.429 795.207 140.502 795.19 140.584 795.174L141.318 795.052V781.719L140.584 781.596C140.502 781.58 140.429 781.564 140.364 781.548C140.315 781.531 140.266 781.523 140.217 781.523L140.07 781.499C139.662 781.401 139.458 781.148 139.458 780.74V779.297H144.327V789.694H144.889C145.101 789.694 145.264 789.67 145.379 789.621C145.477 789.588 145.599 789.482 145.746 789.303L147.483 787.174L147.262 787.125C146.855 787.027 146.651 786.775 146.651 786.367V784.924H149.66V784.948C149.725 784.932 149.807 784.924 149.905 784.924H152.596V786.367C152.596 786.775 152.392 787.027 151.984 787.125L151.788 787.15L151.299 787.223L150.638 787.321L148.779 789.572L148.339 790.061C148.176 790.224 148.021 790.346 147.874 790.428C148.07 790.575 148.216 790.713 148.314 790.844C148.363 790.909 148.42 790.983 148.486 791.064C148.551 791.146 148.624 791.252 148.706 791.382L151.226 795.052C151.584 795.117 151.845 795.158 152.008 795.174C152.367 795.207 152.538 795.223 152.522 795.223L152.767 795.272ZM160.435 784.728C161.332 784.728 162.18 784.883 162.979 785.193C163.762 785.503 164.414 785.927 164.936 786.465C165.458 787.003 165.866 787.68 166.16 788.495C166.453 789.294 166.6 790.183 166.6 791.162C166.6 792.14 166.453 793.037 166.16 793.853C165.85 794.685 165.442 795.37 164.936 795.908C164.398 796.479 163.746 796.911 162.979 797.205C162.229 797.498 161.381 797.645 160.435 797.645C159.489 797.645 158.633 797.498 157.866 797.205C157.1 796.911 156.447 796.479 155.909 795.908C155.338 795.321 154.914 794.636 154.637 793.853C154.343 793.037 154.197 792.14 154.197 791.162C154.197 790.183 154.343 789.294 154.637 788.495C154.914 787.745 155.338 787.068 155.909 786.465C156.431 785.927 157.083 785.503 157.866 785.193C158.665 784.883 159.522 784.728 160.435 784.728ZM160.435 795.321C161.479 795.321 162.245 794.97 162.735 794.269C163.24 793.535 163.493 792.507 163.493 791.186C163.493 789.865 163.24 788.838 162.735 788.104C162.245 787.386 161.479 787.027 160.435 787.027C159.391 787.027 158.608 787.386 158.086 788.104C157.564 788.822 157.304 789.857 157.304 791.211C157.304 792.532 157.564 793.551 158.086 794.269C158.592 794.97 159.375 795.321 160.435 795.321ZM177.048 797.425C176.869 797.425 176.706 797.376 176.559 797.278C176.428 797.196 176.339 797.058 176.29 796.862L176.045 795.712C175.556 796.267 174.977 796.732 174.308 797.107C173.656 797.465 172.881 797.645 171.984 797.645C171.283 797.645 170.663 797.506 170.125 797.229C169.554 796.935 169.065 796.52 168.657 795.981C168.249 795.459 167.931 794.791 167.703 793.975C167.475 793.143 167.36 792.23 167.36 791.235C167.36 790.306 167.483 789.441 167.727 788.642C167.956 787.892 168.323 787.199 168.828 786.563C169.269 786.008 169.831 785.551 170.516 785.193C171.169 784.85 171.911 784.679 172.742 784.679C173.444 784.679 174.047 784.793 174.553 785.021C175.091 785.266 175.531 785.56 175.874 785.902V781.719L175.164 781.596C175.083 781.58 175.009 781.564 174.944 781.548C174.895 781.531 174.846 781.523 174.797 781.523L174.651 781.499C174.243 781.401 174.039 781.148 174.039 780.74V779.297H178.907V795.027L179.543 795.125L179.861 795.198L180.008 795.223C180.416 795.321 180.62 795.574 180.62 795.981V797.425H177.048ZM175.898 788.128C175.572 787.721 175.197 787.427 174.773 787.248C174.333 787.068 173.892 786.979 173.452 786.979C173.028 786.979 172.62 787.068 172.229 787.248C171.87 787.411 171.552 787.672 171.275 788.031C171.03 788.373 170.834 788.813 170.687 789.352C170.557 789.825 170.492 790.452 170.492 791.235C170.492 792.018 170.549 792.646 170.663 793.119C170.777 793.608 170.948 794.016 171.177 794.342C171.405 794.685 171.666 794.921 171.96 795.052C172.269 795.198 172.628 795.272 173.036 795.272C173.688 795.272 174.227 795.141 174.651 794.88C175.107 794.603 175.523 794.228 175.898 793.755V788.128ZM195.353 795.272C195.761 795.37 195.965 795.623 195.965 796.03V797.474H192.271C191.896 797.474 191.643 797.286 191.512 796.911L191.292 795.908C191.015 796.185 190.746 796.43 190.485 796.642C190.24 796.838 189.947 797.017 189.604 797.18C189.278 797.327 188.935 797.449 188.577 797.547C188.169 797.629 187.786 797.669 187.427 797.669C186.758 797.669 186.147 797.555 185.592 797.327C185.119 797.131 184.679 796.797 184.271 796.324C183.945 795.949 183.676 795.451 183.464 794.832C183.284 794.212 183.195 793.568 183.195 792.899V787.346L181.947 787.125C181.539 787.027 181.335 786.775 181.335 786.367V784.924H186.204V792.899C186.204 793.649 186.383 794.244 186.742 794.685C187.084 795.092 187.614 795.296 188.332 795.296C188.821 795.296 189.311 795.182 189.8 794.954C190.24 794.742 190.672 794.424 191.096 794V787.346C190.64 787.264 190.338 787.215 190.191 787.199C190.044 787.166 189.938 787.142 189.873 787.125C189.465 787.027 189.262 786.775 189.262 786.367V784.924H194.13V795.052L195.353 795.272ZM212.144 797.425C211.964 797.425 211.801 797.376 211.654 797.278C211.524 797.196 211.434 797.058 211.385 796.862L211.14 795.712C210.651 796.267 210.072 796.732 209.404 797.107C208.751 797.465 207.976 797.645 207.079 797.645C206.378 797.645 205.758 797.506 205.22 797.229C204.649 796.935 204.16 796.52 203.752 795.981C203.345 795.459 203.027 794.791 202.798 793.975C202.57 793.143 202.456 792.23 202.456 791.235C202.456 790.306 202.578 789.441 202.823 788.642C203.051 787.892 203.418 787.199 203.924 786.563C204.364 786.008 204.927 785.551 205.612 785.193C206.264 784.85 207.006 784.679 207.838 784.679C208.539 784.679 209.143 784.793 209.648 785.021C210.186 785.266 210.627 785.56 210.969 785.902V781.719L210.26 781.596C210.178 781.58 210.105 781.564 210.04 781.548C209.991 781.531 209.942 781.523 209.893 781.523L209.746 781.499C209.338 781.401 209.134 781.148 209.134 780.74V779.297H214.003V795.027L214.639 795.125L214.957 795.198L215.104 795.223C215.511 795.321 215.715 795.574 215.715 795.981V797.425H212.144ZM210.994 788.128C210.668 787.721 210.292 787.427 209.868 787.248C209.428 787.068 208.988 786.979 208.547 786.979C208.123 786.979 207.716 787.068 207.324 787.248C206.965 787.411 206.647 787.672 206.37 788.031C206.125 788.373 205.93 788.813 205.783 789.352C205.652 789.825 205.587 790.452 205.587 791.235C205.587 792.018 205.644 792.646 205.758 793.119C205.873 793.608 206.044 794.016 206.272 794.342C206.5 794.685 206.761 794.921 207.055 795.052C207.365 795.198 207.724 795.272 208.131 795.272C208.784 795.272 209.322 795.141 209.746 794.88C210.203 794.603 210.619 794.228 210.994 793.755V788.128ZM222.718 784.728C223.615 784.728 224.463 784.883 225.262 785.193C226.045 785.503 226.697 785.927 227.219 786.465C227.741 787.003 228.149 787.68 228.442 788.495C228.736 789.294 228.883 790.183 228.883 791.162C228.883 792.14 228.736 793.037 228.442 793.853C228.133 794.685 227.725 795.37 227.219 795.908C226.681 796.479 226.029 796.911 225.262 797.205C224.512 797.498 223.664 797.645 222.718 797.645C221.772 797.645 220.916 797.498 220.149 797.205C219.383 796.911 218.73 796.479 218.192 795.908C217.621 795.321 217.197 794.636 216.92 793.853C216.626 793.037 216.48 792.14 216.48 791.162C216.48 790.183 216.626 789.294 216.92 788.495C217.197 787.745 217.621 787.068 218.192 786.465C218.714 785.927 219.366 785.503 220.149 785.193C220.948 784.883 221.805 784.728 222.718 784.728ZM222.718 795.321C223.762 795.321 224.528 794.97 225.018 794.269C225.523 793.535 225.776 792.507 225.776 791.186C225.776 789.865 225.523 788.838 225.018 788.104C224.528 787.386 223.762 787.027 222.718 787.027C221.674 787.027 220.891 787.386 220.369 788.104C219.847 788.822 219.587 789.857 219.587 791.211C219.587 792.532 219.847 793.551 220.369 794.269C220.875 794.97 221.658 795.321 222.718 795.321ZM238.524 792.189C238.703 792.581 238.793 793.013 238.793 793.486C238.793 794.073 238.679 794.636 238.45 795.174C238.222 795.68 237.904 796.12 237.496 796.495C237.056 796.886 236.534 797.172 235.931 797.351C235.343 797.563 234.626 797.669 233.778 797.669C233.044 797.669 232.318 797.604 231.6 797.474C230.899 797.343 230.296 797.18 229.79 796.984V793.437H231.209C231.503 793.437 231.69 793.592 231.772 793.902C231.804 794.081 231.861 794.562 231.943 795.345C232.383 795.476 233.044 795.541 233.925 795.541C234.267 795.541 234.577 795.5 234.854 795.419C235.131 795.321 235.343 795.207 235.49 795.076C235.686 794.913 235.808 794.758 235.857 794.611C235.922 794.432 235.955 794.236 235.955 794.024C235.955 793.731 235.874 793.494 235.71 793.315C235.564 793.152 235.327 792.989 235.001 792.825C234.691 792.679 234.365 792.556 234.022 792.459L232.873 792.092C232.612 792.01 232.237 791.855 231.747 791.627C231.356 791.447 231.021 791.227 230.744 790.966C230.451 790.705 230.222 790.379 230.059 789.988C229.88 789.58 229.79 789.107 229.79 788.569C229.79 788.047 229.888 787.558 230.084 787.101C230.279 786.644 230.581 786.236 230.989 785.878C231.397 785.519 231.894 785.242 232.481 785.046C233.117 784.834 233.794 784.728 234.512 784.728C235.131 784.728 235.678 784.777 236.151 784.875C236.624 784.956 237.301 785.127 238.181 785.388H238.157V788.936H236.762C236.469 788.936 236.281 788.781 236.2 788.471C236.151 788.259 236.094 787.802 236.028 787.101C235.653 786.987 235.164 786.93 234.561 786.93C233.973 786.93 233.509 787.052 233.166 787.297C232.824 787.541 232.652 787.876 232.652 788.3C232.652 788.544 232.742 788.773 232.922 788.985C233.052 789.131 233.28 789.286 233.607 789.449C233.982 789.629 234.308 789.759 234.585 789.841C234.716 789.873 235.091 789.988 235.71 790.183C236.02 790.281 236.404 790.436 236.86 790.648C237.252 790.828 237.578 791.04 237.839 791.284C238.132 791.529 238.361 791.831 238.524 792.189ZM244.697 797.669C243.604 797.669 242.764 797.359 242.177 796.74C241.59 796.12 241.297 795.272 241.297 794.195V787.199H240.025C239.894 787.199 239.755 787.142 239.609 787.027C239.478 786.93 239.413 786.775 239.413 786.563V785.339L241.443 785.021L242.079 781.596C242.096 781.45 242.169 781.327 242.3 781.23C242.43 781.132 242.585 781.083 242.764 781.083H244.33V785.046H247.633V787.199H244.33V794C244.33 794.375 244.428 794.677 244.624 794.905C244.819 795.117 245.08 795.223 245.407 795.223C245.635 795.223 245.79 795.207 245.871 795.174L246.189 795.027L246.459 794.88C246.507 794.848 246.573 794.832 246.654 794.832C246.785 794.832 246.866 794.848 246.899 794.88L247.07 795.076L247.975 796.544C247.551 796.886 247.046 797.164 246.459 797.376C245.904 797.571 245.317 797.669 244.697 797.669ZM256.905 799.773C257.003 799.773 257.077 799.781 257.125 799.798C257.191 799.83 257.231 799.879 257.248 799.945L257.713 801.07C257.452 801.233 257.117 801.38 256.71 801.51C256.351 801.624 255.927 801.681 255.437 801.681C254.638 801.681 254.027 801.518 253.603 801.192C253.162 800.85 252.942 800.417 252.942 799.896C252.942 799.488 253.064 799.088 253.309 798.697C253.537 798.322 253.896 797.971 254.385 797.645C253.554 797.596 252.795 797.417 252.11 797.107C251.376 796.78 250.765 796.348 250.276 795.81C249.786 795.272 249.387 794.579 249.077 793.731C248.783 792.915 248.636 791.977 248.636 790.917C248.636 790.102 248.775 789.303 249.052 788.52C249.313 787.786 249.713 787.125 250.251 786.538C250.757 785.984 251.385 785.543 252.135 785.217C252.885 784.891 253.733 784.728 254.679 784.728C255.478 784.728 256.204 784.85 256.856 785.095C257.476 785.323 258.047 785.698 258.569 786.22C259.042 786.693 259.417 787.288 259.694 788.006C259.971 788.74 260.11 789.547 260.11 790.428C260.11 790.607 260.094 790.795 260.061 790.991C260.029 791.17 259.996 791.284 259.963 791.333C259.931 791.415 259.857 791.48 259.743 791.529C259.678 791.561 259.564 791.578 259.401 791.578H251.645C251.743 792.883 252.086 793.828 252.673 794.416C253.276 795.019 254.076 795.321 255.07 795.321C255.592 795.321 256.016 795.264 256.343 795.15C256.783 795.003 257.093 794.88 257.272 794.783C257.713 794.538 257.949 794.407 257.982 794.391C258.161 794.277 258.349 794.22 258.544 794.22C258.805 794.22 258.993 794.318 259.107 794.513L259.988 795.614C259.498 796.169 258.944 796.593 258.324 796.886C257.655 797.196 257.011 797.408 256.392 797.523C256.098 797.718 255.951 797.816 255.951 797.816C255.755 797.979 255.625 798.11 255.56 798.208C255.429 798.403 255.34 798.55 255.291 798.648C255.225 798.778 255.193 798.941 255.193 799.137C255.193 799.382 255.266 799.578 255.413 799.724C255.543 799.855 255.764 799.92 256.073 799.92C256.122 799.92 256.179 799.92 256.245 799.92C256.31 799.936 256.375 799.936 256.44 799.92L256.685 799.847L256.856 799.773H256.905ZM254.728 786.881C253.864 786.881 253.179 787.133 252.673 787.639C252.167 788.145 251.841 788.846 251.694 789.743H257.37C257.37 789.352 257.321 788.985 257.223 788.642C257.125 788.332 256.962 788.031 256.734 787.737C256.522 787.476 256.245 787.272 255.902 787.125C255.527 786.962 255.136 786.881 254.728 786.881ZM273.859 788.373C274.088 789.205 274.202 790.11 274.202 791.089C274.202 791.969 274.071 792.842 273.81 793.706C273.582 794.489 273.223 795.182 272.734 795.786C272.294 796.34 271.731 796.797 271.046 797.156C270.41 797.482 269.66 797.645 268.795 797.645C268.078 797.645 267.482 797.539 267.009 797.327C266.471 797.082 266.023 796.78 265.664 796.422V799.137C265.827 799.17 265.966 799.194 266.08 799.211C266.21 799.243 266.316 799.268 266.398 799.284C266.659 799.317 266.781 799.333 266.765 799.333L266.912 799.357C267.319 799.455 267.523 799.716 267.523 800.14V801.559H260.796V800.14C260.796 799.716 260.999 799.455 261.407 799.357L261.554 799.333L261.921 799.284L262.655 799.137V787.346L261.921 787.223C261.839 787.207 261.766 787.191 261.701 787.174C261.652 787.158 261.603 787.15 261.554 787.15L261.407 787.125C260.999 787.027 260.796 786.775 260.796 786.367V784.924H264.49C264.685 784.924 264.857 784.973 265.003 785.07C265.134 785.152 265.224 785.291 265.273 785.486L265.517 786.636C266.006 786.082 266.585 785.617 267.254 785.242C267.906 784.883 268.673 784.703 269.554 784.703C270.271 784.703 270.899 784.842 271.437 785.119C272.008 785.413 272.498 785.829 272.905 786.367C273.313 786.889 273.631 787.558 273.859 788.373ZM270.875 792.997C271.005 792.524 271.071 791.896 271.071 791.113C271.071 790.33 271.013 789.702 270.899 789.229C270.785 788.74 270.614 788.332 270.386 788.006C270.157 787.68 269.888 787.443 269.578 787.297C269.268 787.15 268.918 787.076 268.526 787.076C267.874 787.076 267.336 787.207 266.912 787.468C266.455 787.745 266.039 788.12 265.664 788.593V794.22C265.99 794.628 266.365 794.921 266.789 795.101C267.164 795.264 267.597 795.345 268.086 795.345C268.575 795.345 268.991 795.264 269.334 795.101C269.66 794.954 269.97 794.693 270.263 794.318C270.54 793.943 270.744 793.502 270.875 792.997ZM288.933 795.272C289.341 795.37 289.544 795.623 289.544 796.03V797.474H285.85C285.475 797.474 285.223 797.286 285.092 796.911L284.872 795.908C284.595 796.185 284.326 796.43 284.065 796.642C283.82 796.838 283.526 797.017 283.184 797.18C282.858 797.327 282.515 797.449 282.156 797.547C281.749 797.629 281.365 797.669 281.007 797.669C280.338 797.669 279.726 797.555 279.172 797.327C278.699 797.131 278.258 796.797 277.851 796.324C277.525 795.949 277.255 795.451 277.043 794.832C276.864 794.212 276.774 793.568 276.774 792.899V787.346L275.527 787.125C275.119 787.027 274.915 786.775 274.915 786.367V784.924H279.783V792.899C279.783 793.649 279.963 794.244 280.322 794.685C280.664 795.092 281.194 795.296 281.912 795.296C282.401 795.296 282.89 795.182 283.38 794.954C283.82 794.742 284.252 794.424 284.676 794V787.346C284.219 787.264 283.918 787.215 283.771 787.199C283.624 787.166 283.518 787.142 283.453 787.125C283.045 787.027 282.841 786.775 282.841 786.367V784.924H287.71V795.052L288.933 795.272Z" fill="#3FBDF1"/>
<path d="M118.007 421.16C118.007 422.531 117.719 423.754 117.143 424.83C116.566 425.893 115.766 426.719 114.741 427.308C113.716 427.898 112.551 428.192 111.244 428.192C109.925 428.192 108.747 427.891 107.709 427.289C106.672 426.687 105.865 425.855 105.288 424.791C104.725 423.715 104.443 422.499 104.443 421.141C104.443 419.783 104.725 418.573 105.288 417.509C105.865 416.434 106.665 415.595 107.69 414.993C108.727 414.39 109.912 414.089 111.244 414.089C112.576 414.089 113.755 414.39 114.78 414.993C115.804 415.582 116.598 416.408 117.162 417.471C117.738 418.534 118.027 419.751 118.027 421.122L118.007 421.16ZM116.086 421.16C116.086 419.508 115.657 418.195 114.799 417.221C113.953 416.235 112.756 415.742 111.206 415.742C110.168 415.742 109.285 415.972 108.554 416.434C107.824 416.895 107.267 417.535 106.883 418.355C106.511 419.175 106.326 420.11 106.326 421.16C106.326 422.249 106.524 423.203 106.921 424.023C107.318 424.83 107.882 425.457 108.612 425.906C109.355 426.354 110.226 426.578 111.225 426.578C112.237 426.578 113.108 426.354 113.838 425.906C114.568 425.445 115.125 424.804 115.51 423.984C115.907 423.165 116.105 422.223 116.105 421.16H116.086ZM123.643 418.086C124.719 418.086 125.602 418.47 126.294 419.239V415.242L125.007 415.012C124.815 414.973 124.719 414.858 124.719 414.666V413.82H127.985V426.578C128.625 426.693 128.997 426.77 129.099 426.809C129.279 426.847 129.368 426.962 129.368 427.155V428H126.986C126.755 428 126.602 427.878 126.525 427.635L126.371 426.463C125.462 427.564 124.373 428.115 123.105 428.115C121.965 428.115 121.068 427.693 120.415 426.847C119.749 425.963 119.416 424.734 119.416 423.158C119.416 421.685 119.794 420.481 120.549 419.546C121.331 418.573 122.362 418.086 123.643 418.086ZM123.681 426.751C124.693 426.751 125.564 426.258 126.294 425.272V420.584C125.718 419.815 124.968 419.431 124.046 419.431C123.111 419.431 122.4 419.751 121.913 420.391C121.427 421.032 121.183 421.954 121.183 423.158C121.183 424.99 121.657 426.117 122.605 426.54C122.9 426.668 123.252 426.732 123.662 426.732L123.681 426.751ZM140.29 423.139C140.29 423.946 140.175 424.657 139.944 425.272C139.701 425.912 139.394 426.437 139.022 426.847C138.651 427.257 138.202 427.577 137.677 427.808C137.165 428.038 136.601 428.154 135.986 428.154C134.898 428.154 133.463 427.974 131.683 427.616V415.242L131.26 415.185L130.453 415.05C130.363 415.037 130.293 414.999 130.242 414.935C130.19 414.858 130.165 414.775 130.165 414.685V413.859H133.412V419.681C133.822 419.207 134.283 418.829 134.795 418.547C135.308 418.265 135.897 418.124 136.563 418.124C137.139 418.124 137.652 418.227 138.1 418.432C138.548 418.637 138.932 418.957 139.253 419.392C139.573 419.841 139.816 420.353 139.983 420.929C140.162 421.57 140.252 422.287 140.252 423.081H140.29V423.139ZM137.773 425.81C138.017 425.489 138.202 425.105 138.33 424.657C138.459 424.183 138.523 423.696 138.523 423.197V423.043C138.523 422.377 138.471 421.839 138.369 421.429C138.254 420.994 138.087 420.622 137.869 420.315C137.639 420.007 137.383 419.789 137.101 419.661C136.806 419.533 136.454 419.469 136.044 419.469C135.455 419.469 134.962 419.597 134.565 419.854C134.142 420.122 133.758 420.488 133.412 420.949V426.501C133.591 426.553 133.86 426.617 134.219 426.693C134.59 426.758 134.962 426.796 135.333 426.809H135.833C136.255 426.783 136.601 426.706 136.87 426.578C137.203 426.424 137.498 426.181 137.754 425.848L137.773 425.81ZM145.505 426.809C145.71 426.847 145.813 426.969 145.813 427.174V428H141.317V427.174C141.317 426.969 141.419 426.847 141.624 426.809L142.7 426.597V415.242C142.111 415.127 141.752 415.05 141.624 415.012C141.419 414.973 141.317 414.858 141.317 414.666V413.84H144.429V426.578C145.019 426.693 145.377 426.77 145.505 426.809ZM151.347 418.124C152.051 418.124 152.692 418.24 153.268 418.47C153.832 418.701 154.325 419.034 154.748 419.469C155.145 419.879 155.452 420.404 155.67 421.045C155.888 421.672 155.997 422.364 155.997 423.12C155.997 423.876 155.888 424.567 155.67 425.195C155.452 425.835 155.145 426.36 154.748 426.77C154.325 427.206 153.832 427.539 153.268 427.769C152.692 428 152.051 428.115 151.347 428.115C150.642 428.115 150.002 428 149.426 427.769C148.862 427.539 148.369 427.206 147.946 426.77C147.562 426.373 147.248 425.848 147.005 425.195C146.8 424.644 146.697 423.952 146.697 423.12C146.697 422.287 146.8 421.596 147.005 421.045C147.248 420.391 147.562 419.866 147.946 419.469C148.369 419.034 148.862 418.701 149.426 418.47C150.002 418.24 150.642 418.124 151.347 418.124ZM151.347 426.809C152.333 426.809 153.051 426.489 153.499 425.848C153.973 425.182 154.21 424.279 154.21 423.139C154.21 421.999 153.973 421.096 153.499 420.43C153.051 419.789 152.333 419.469 151.347 419.469C150.847 419.469 150.425 419.546 150.079 419.7C149.746 419.854 149.451 420.097 149.195 420.43C148.952 420.763 148.772 421.147 148.657 421.583C148.529 422.095 148.465 422.62 148.465 423.158C148.465 423.671 148.529 424.183 148.657 424.695C148.772 425.131 148.952 425.515 149.195 425.848C149.413 426.143 149.707 426.373 150.079 426.54C150.489 426.719 150.911 426.809 151.347 426.809ZM166.705 426.809C166.897 426.847 166.993 426.962 166.993 427.155V428H165.187C164.943 428 164.726 427.885 164.533 427.654L161.344 423.658C161.254 423.53 161.158 423.446 161.056 423.408C160.953 423.37 160.806 423.35 160.614 423.35H160.153V426.597C160.23 426.597 160.454 426.642 160.825 426.732L161.229 426.809C161.434 426.847 161.536 426.969 161.536 427.174V428H157.04V427.174C157.04 426.969 157.136 426.847 157.328 426.809L158.424 426.597V415.242C157.809 415.127 157.444 415.05 157.328 415.012C157.136 414.973 157.04 414.858 157.04 414.666V413.84H160.153V422.159H160.576C160.845 422.159 161.049 422.069 161.19 421.89L163.381 419.546C163.342 419.546 163.304 419.54 163.265 419.527C163.227 419.514 163.189 419.508 163.15 419.508L162.843 419.45C162.638 419.412 162.535 419.29 162.535 419.085V418.278H166.609V419.085C166.609 419.277 166.525 419.392 166.359 419.431L165.168 419.661L162.9 422.082C162.695 422.326 162.51 422.499 162.343 422.601C162.599 422.768 162.791 422.966 162.92 423.197L165.609 426.617L166.109 426.693C166.442 426.77 166.647 426.809 166.724 426.809H166.705ZM172.951 426.809C173.912 426.809 174.789 426.36 175.584 425.464V419.7C175.468 419.661 175.103 419.585 174.488 419.469C174.296 419.431 174.2 419.309 174.2 419.104V418.278H177.294V426.617C177.908 426.732 178.273 426.809 178.389 426.847C178.581 426.886 178.677 427.001 178.677 427.193V428.019H176.275C176.045 428.019 175.891 427.898 175.814 427.654L175.68 426.617C174.757 427.654 173.681 428.173 172.452 428.173C171.414 428.173 170.607 427.833 170.031 427.155C169.467 426.476 169.186 425.586 169.186 424.484V419.681C168.596 419.565 168.238 419.488 168.11 419.45C167.905 419.412 167.802 419.29 167.802 419.085V418.278H170.915V424.465C170.915 425.233 171.081 425.81 171.414 426.194C171.76 426.591 172.272 426.79 172.951 426.79V426.809ZM183.037 414.743C183.101 414.871 183.133 415.031 183.133 415.223C183.133 415.402 183.101 415.556 183.037 415.684C182.96 415.838 182.87 415.966 182.768 416.068C182.665 416.171 182.537 416.261 182.384 416.337C182.255 416.402 182.102 416.434 181.922 416.434C181.743 416.434 181.589 416.402 181.461 416.337C181.308 416.261 181.179 416.171 181.077 416.068C180.975 415.966 180.885 415.838 180.808 415.684C180.744 415.556 180.712 415.402 180.712 415.223C180.712 415.031 180.744 414.871 180.808 414.743C180.898 414.563 180.987 414.429 181.077 414.339C181.179 414.237 181.308 414.147 181.461 414.07C181.589 414.006 181.743 413.974 181.922 413.974C182.102 413.974 182.255 414.006 182.384 414.07C182.537 414.147 182.665 414.237 182.768 414.339C182.857 414.429 182.947 414.563 183.037 414.743ZM181.25 431.285C180.93 431.426 180.539 431.497 180.078 431.497C179.668 431.497 179.271 431.433 178.887 431.305L178.964 430.382C178.989 430.254 179.092 430.19 179.271 430.19H179.655C180.155 430.19 180.507 430.075 180.712 429.844C180.93 429.601 181.039 429.23 181.039 428.73V419.681C180.962 419.668 180.84 419.649 180.674 419.623C180.507 419.585 180.257 419.533 179.924 419.469C179.745 419.431 179.655 419.309 179.655 419.104V418.278H182.729V428.73C182.729 430.024 182.236 430.882 181.25 431.305V431.285ZM192.963 418.124C193.668 418.124 194.308 418.24 194.885 418.47C195.448 418.701 195.942 419.034 196.364 419.469C196.761 419.879 197.069 420.404 197.287 421.045C197.504 421.672 197.613 422.364 197.613 423.12C197.613 423.876 197.504 424.567 197.287 425.195C197.069 425.835 196.761 426.36 196.364 426.77C195.942 427.206 195.448 427.539 194.885 427.769C194.308 428 193.668 428.115 192.963 428.115C192.259 428.115 191.619 428 191.042 427.769C190.479 427.539 189.985 427.206 189.563 426.77C189.178 426.373 188.865 425.848 188.621 425.195C188.416 424.644 188.314 423.952 188.314 423.12C188.314 422.287 188.416 421.596 188.621 421.045C188.865 420.391 189.178 419.866 189.563 419.469C189.985 419.034 190.479 418.701 191.042 418.47C191.619 418.24 192.259 418.124 192.963 418.124ZM192.963 426.809C193.95 426.809 194.667 426.489 195.115 425.848C195.589 425.182 195.826 424.279 195.826 423.139C195.826 421.999 195.589 421.096 195.115 420.43C194.667 419.789 193.95 419.469 192.963 419.469C192.464 419.469 192.041 419.546 191.695 419.7C191.362 419.854 191.068 420.097 190.812 420.43C190.568 420.763 190.389 421.147 190.274 421.583C190.146 422.095 190.081 422.62 190.081 423.158C190.081 423.671 190.146 424.183 190.274 424.695C190.389 425.131 190.568 425.515 190.812 425.848C191.029 426.143 191.324 426.373 191.695 426.54C192.105 426.719 192.528 426.809 192.963 426.809ZM203.273 418.086C204.349 418.086 205.233 418.47 205.925 419.239V415.242L204.637 415.012C204.445 414.973 204.349 414.858 204.349 414.666V413.82H207.616V426.578C208.256 426.693 208.627 426.77 208.73 426.809C208.909 426.847 208.999 426.962 208.999 427.155V428H206.616C206.386 428 206.232 427.878 206.155 427.635L206.002 426.463C205.092 427.564 204.003 428.115 202.735 428.115C201.595 428.115 200.699 427.693 200.045 426.847C199.379 425.963 199.046 424.734 199.046 423.158C199.046 421.685 199.424 420.481 200.18 419.546C200.961 418.573 201.992 418.086 203.273 418.086ZM203.312 426.751C204.324 426.751 205.195 426.258 205.925 425.272V420.584C205.348 419.815 204.599 419.431 203.677 419.431C202.742 419.431 202.031 419.751 201.544 420.391C201.057 421.032 200.814 421.954 200.814 423.158C200.814 424.99 201.288 426.117 202.236 426.54C202.53 426.668 202.883 426.732 203.293 426.732L203.312 426.751ZM217.769 426.636C216.962 427.635 215.758 428.134 214.157 428.134C212.927 428.134 211.915 427.693 211.121 426.809C210.288 425.874 209.872 424.644 209.872 423.12C209.872 421.634 210.263 420.436 211.044 419.527C211.864 418.592 213.004 418.124 214.464 418.124C215.194 418.124 216.155 418.355 217.346 418.816V421.352H216.578C216.398 421.352 216.289 421.262 216.251 421.083C216.238 421.045 216.213 420.801 216.174 420.353L216.117 419.719C215.976 419.668 215.835 419.629 215.694 419.604C215.566 419.578 215.476 419.559 215.425 419.546C215.079 419.495 214.72 419.469 214.349 419.469C214.016 419.469 213.664 419.553 213.292 419.719C212.946 419.873 212.645 420.11 212.389 420.43C211.902 421.07 211.659 421.967 211.659 423.12C211.659 424.273 211.915 425.182 212.428 425.848C212.927 426.489 213.612 426.809 214.483 426.809C215.29 426.809 216.001 426.54 216.616 426.002C216.719 425.899 216.847 425.848 217 425.848C217.141 425.848 217.244 425.899 217.308 426.002L217.769 426.636ZM220.173 416.068C220.071 415.966 219.981 415.838 219.904 415.684C219.84 415.556 219.808 415.402 219.808 415.223C219.808 415.031 219.84 414.871 219.904 414.743C219.994 414.563 220.083 414.429 220.173 414.339C220.275 414.237 220.404 414.147 220.557 414.07C220.685 414.006 220.839 413.974 221.018 413.974C221.198 413.974 221.351 414.006 221.479 414.07C221.633 414.147 221.761 414.237 221.864 414.339C221.953 414.429 222.043 414.563 222.133 414.743C222.21 414.896 222.248 415.057 222.248 415.223C222.248 415.377 222.21 415.53 222.133 415.684C222.056 415.838 221.966 415.966 221.864 416.068C221.761 416.171 221.633 416.261 221.479 416.337C221.351 416.402 221.198 416.434 221.018 416.434C220.839 416.434 220.685 416.402 220.557 416.337C220.404 416.261 220.275 416.171 220.173 416.068ZM222.959 426.809C223.049 426.822 223.119 426.866 223.17 426.943C223.222 427.007 223.247 427.084 223.247 427.174V428H218.77V427.174C218.77 427.084 218.796 427.007 218.847 426.943C218.898 426.866 218.969 426.822 219.059 426.809L220.173 426.597V419.661L219.059 419.45C218.969 419.437 218.898 419.399 218.847 419.335C218.796 419.258 218.77 419.175 218.77 419.085V418.278H221.864V426.597L222.959 426.809ZM228.167 418.124C228.833 418.124 229.678 418.297 230.703 418.643V421.141H229.954C229.774 421.141 229.666 421.051 229.627 420.872L229.512 419.604C228.91 419.463 228.41 419.392 228.013 419.392H227.994C227.469 419.392 227.027 419.533 226.668 419.815C226.322 420.084 226.15 420.379 226.15 420.699C226.15 421.032 226.226 421.275 226.38 421.429C226.636 421.724 227.008 421.948 227.494 422.101L228.071 422.274C228.173 422.3 228.378 422.364 228.686 422.467L229.608 422.812C229.864 422.902 230.133 423.069 230.415 423.312C230.94 423.722 231.203 424.285 231.203 425.003C231.203 425.938 230.889 426.681 230.261 427.231C229.582 427.833 228.724 428.134 227.687 428.134C226.623 428.134 225.573 427.962 224.536 427.616V425.08H225.227C225.381 425.08 225.477 425.156 225.516 425.31L225.631 426.54C226.143 426.796 226.803 426.924 227.61 426.924C228.225 426.924 228.724 426.764 229.108 426.444C229.441 426.149 229.608 425.822 229.608 425.464C229.608 425.092 229.531 424.823 229.377 424.657C229.198 424.452 229.006 424.298 228.801 424.196C228.519 424.055 228.25 423.952 227.994 423.888C227.046 423.581 226.451 423.376 226.207 423.273C225.9 423.133 225.612 422.953 225.343 422.736C224.805 422.287 224.536 421.685 224.536 420.929C224.536 420.161 224.843 419.508 225.458 418.97C226.098 418.406 227.001 418.124 228.167 418.124ZM241.888 426.809C242.08 426.847 242.177 426.962 242.177 427.155V428H240.37C240.127 428 239.909 427.885 239.717 427.654L236.528 423.658C236.438 423.53 236.342 423.446 236.24 423.408C236.137 423.37 235.99 423.35 235.798 423.35H235.337V426.597C235.413 426.597 235.638 426.642 236.009 426.732L236.413 426.809C236.617 426.847 236.72 426.969 236.72 427.174V428H232.224V427.174C232.224 426.969 232.32 426.847 232.512 426.809L233.607 426.597V415.242C232.993 415.127 232.627 415.05 232.512 415.012C232.32 414.973 232.224 414.858 232.224 414.666V413.84H235.337V422.159H235.759C236.028 422.159 236.233 422.069 236.374 421.89L238.564 419.546C238.526 419.546 238.488 419.54 238.449 419.527C238.411 419.514 238.372 419.508 238.334 419.508L238.026 419.45C237.822 419.412 237.719 419.29 237.719 419.085V418.278H241.792V419.085C241.792 419.277 241.709 419.392 241.543 419.431L240.351 419.661L238.084 422.082C237.879 422.326 237.693 422.499 237.527 422.601C237.783 422.768 237.975 422.966 238.103 423.197L240.793 426.617L241.293 426.693C241.626 426.77 241.831 426.809 241.908 426.809H241.888ZM244.715 416.068C244.613 415.966 244.523 415.838 244.446 415.684C244.382 415.556 244.35 415.402 244.35 415.223C244.35 415.031 244.382 414.871 244.446 414.743C244.536 414.563 244.625 414.429 244.715 414.339C244.818 414.237 244.946 414.147 245.099 414.07C245.227 414.006 245.381 413.974 245.561 413.974C245.74 413.974 245.894 414.006 246.022 414.07C246.175 414.147 246.303 414.237 246.406 414.339C246.496 414.429 246.585 414.563 246.675 414.743C246.752 414.896 246.79 415.057 246.79 415.223C246.79 415.377 246.752 415.53 246.675 415.684C246.598 415.838 246.508 415.966 246.406 416.068C246.303 416.171 246.175 416.261 246.022 416.337C245.894 416.402 245.74 416.434 245.561 416.434C245.381 416.434 245.227 416.402 245.099 416.337C244.946 416.261 244.818 416.171 244.715 416.068ZM247.501 426.809C247.591 426.822 247.661 426.866 247.712 426.943C247.764 427.007 247.789 427.084 247.789 427.174V428H243.313V427.174C243.313 427.084 243.338 427.007 243.389 426.943C243.441 426.866 243.511 426.822 243.601 426.809L244.715 426.597V419.661L243.601 419.45C243.511 419.437 243.441 419.399 243.389 419.335C243.338 419.258 243.313 419.175 243.313 419.085V418.278H246.406V426.597L247.501 426.809ZM253.209 418.124C253.772 418.124 254.304 418.22 254.803 418.413C255.316 418.605 255.738 418.88 256.071 419.239C256.456 419.649 256.738 420.103 256.917 420.603C257.122 421.179 257.224 421.794 257.224 422.447C257.224 422.742 257.199 422.921 257.147 422.985C257.083 423.075 256.968 423.12 256.802 423.12H250.346C250.346 423.735 250.423 424.273 250.576 424.734C250.705 425.131 250.922 425.502 251.23 425.848C251.511 426.168 251.832 426.399 252.19 426.54C252.575 426.693 252.985 426.77 253.42 426.77C253.881 426.77 254.253 426.726 254.534 426.636C254.803 426.546 255.072 426.437 255.341 426.309C255.623 426.168 255.815 426.066 255.918 426.002C256.084 425.899 256.212 425.848 256.302 425.848C256.443 425.848 256.552 425.906 256.629 426.021L257.109 426.655C256.93 426.886 256.673 427.103 256.34 427.308C255.956 427.552 255.642 427.712 255.399 427.789C255.015 427.917 254.669 428.006 254.361 428.058C253.977 428.122 253.625 428.154 253.305 428.154C252.639 428.154 252.017 428.038 251.441 427.808C250.89 427.59 250.397 427.251 249.962 426.79C249.552 426.367 249.231 425.822 249.001 425.156C248.77 424.503 248.655 423.76 248.655 422.928C248.655 422.262 248.764 421.634 248.982 421.045C249.199 420.443 249.5 419.93 249.885 419.508C250.282 419.072 250.762 418.733 251.326 418.489C251.889 418.246 252.517 418.124 253.209 418.124ZM253.247 419.373C252.415 419.373 251.768 419.61 251.307 420.084C250.833 420.584 250.538 421.25 250.423 422.082H255.706C255.706 421.685 255.649 421.327 255.533 421.006C255.393 420.609 255.239 420.321 255.072 420.142C254.855 419.911 254.592 419.725 254.285 419.585C253.99 419.456 253.638 419.392 253.228 419.392L253.247 419.373ZM261.359 419.642C262.179 418.63 263.094 418.124 264.106 418.124C264.772 418.124 265.31 418.31 265.72 418.681C266.117 419.04 266.412 419.533 266.604 420.161C266.886 419.469 267.309 418.957 267.872 418.624C268.461 418.291 269.025 418.124 269.563 418.124C270.126 418.124 270.626 418.208 271.062 418.374C271.471 418.528 271.817 418.765 272.099 419.085C272.663 419.725 272.944 420.635 272.944 421.813V426.617C273.585 426.732 273.956 426.809 274.059 426.847C274.251 426.886 274.347 427.001 274.347 427.193V428.038H271.254V421.832C271.254 421.051 271.087 420.475 270.754 420.103C270.395 419.706 269.909 419.508 269.294 419.508C268.705 419.508 268.218 419.7 267.834 420.084C267.411 420.507 267.2 421.083 267.2 421.813V426.617C267.251 426.629 267.36 426.655 267.526 426.693C267.693 426.732 267.949 426.783 268.295 426.847C268.487 426.886 268.583 427.001 268.583 427.193V428.019H265.49V421.813C265.49 420.276 264.875 419.508 263.645 419.508C262.851 419.508 262.127 419.93 261.474 420.776V426.617L261.993 426.713L262.569 426.828C262.761 426.866 262.857 426.988 262.857 427.193V428H258.381V427.193C258.381 426.988 258.47 426.866 258.65 426.828L259.764 426.617V419.681C259.124 419.565 258.752 419.488 258.65 419.45C258.47 419.412 258.381 419.29 258.381 419.085V418.278H260.763C260.994 418.278 261.147 418.393 261.224 418.624L261.359 419.623V419.642ZM282.253 419.777C283.188 418.649 284.277 418.086 285.519 418.086C286.659 418.086 287.556 418.509 288.209 419.354C288.875 420.251 289.208 421.493 289.208 423.081C289.208 424.542 288.837 425.739 288.094 426.674C287.313 427.648 286.326 428.134 285.135 428.134C283.944 428.134 283.009 427.757 282.33 427.001V429.883L282.849 429.998L283.406 430.113C283.611 430.152 283.713 430.274 283.713 430.479V431.305H279.217V430.479C279.217 430.274 279.32 430.152 279.525 430.113L280.601 429.902V419.681C280.012 419.565 279.653 419.488 279.525 419.45C279.32 419.412 279.217 419.29 279.217 419.085V418.278H281.638C281.869 418.278 282.023 418.393 282.099 418.624L282.234 419.777H282.253ZM282.33 425.656C282.906 426.424 283.649 426.809 284.559 426.809C285.507 426.809 286.224 426.489 286.711 425.848C287.197 425.208 287.441 424.285 287.441 423.081C287.441 421.89 287.229 420.994 286.807 420.391C286.384 419.777 285.763 419.469 284.943 419.469C283.931 419.469 283.06 419.962 282.33 420.949V425.656ZM299.069 426.77C299.158 426.783 299.229 426.828 299.28 426.905C299.331 426.969 299.357 427.046 299.357 427.135V427.962H297.359C297.243 427.962 297.109 427.936 296.955 427.885C296.866 427.859 296.801 427.757 296.763 427.577L296.571 426.655L295.802 427.289C295.585 427.468 295.328 427.622 295.034 427.75C294.752 427.878 294.47 427.974 294.188 428.038C293.932 428.102 293.586 428.134 293.151 428.134C292.792 428.134 292.446 428.077 292.113 427.962C291.716 427.821 291.428 427.667 291.249 427.5C291.018 427.296 290.826 427.027 290.672 426.693C290.532 426.399 290.461 426.015 290.461 425.541C290.461 425.131 290.564 424.759 290.768 424.426C290.999 424.055 291.345 423.735 291.806 423.466C292.318 423.171 292.933 422.94 293.65 422.774C294.393 422.607 295.328 422.524 296.456 422.524V421.775C296.456 421.019 296.289 420.443 295.956 420.046C295.623 419.649 295.143 419.45 294.515 419.45C294.105 419.45 293.753 419.508 293.458 419.623C293.125 419.751 292.882 419.866 292.728 419.969C292.651 420.02 292.562 420.078 292.459 420.142C292.37 420.193 292.274 420.251 292.171 420.315C292.03 420.417 291.883 420.468 291.729 420.468C291.588 420.468 291.486 420.443 291.422 420.391C291.345 420.327 291.281 420.251 291.23 420.161L290.922 419.623C291.422 419.136 291.998 418.752 292.651 418.47C293.241 418.214 293.932 418.086 294.726 418.086C295.303 418.086 295.79 418.176 296.187 418.355C296.622 418.547 296.974 418.79 297.243 419.085C297.525 419.38 297.743 419.764 297.897 420.238C298.038 420.66 298.108 421.16 298.108 421.736V426.597C298.723 426.726 299.043 426.796 299.069 426.809V426.77ZM296.417 423.619C295.585 423.619 294.919 423.664 294.419 423.754C293.932 423.843 293.484 423.978 293.074 424.157C292.715 424.324 292.459 424.516 292.306 424.734C292.152 424.964 292.075 425.208 292.075 425.464C292.075 425.669 292.12 425.887 292.209 426.117C292.286 426.309 292.402 426.463 292.555 426.578C292.709 426.693 292.876 426.777 293.055 426.828C293.273 426.892 293.484 426.924 293.689 426.924C293.945 426.924 294.214 426.892 294.496 426.828C294.752 426.764 294.989 426.681 295.207 426.578C295.399 426.489 295.61 426.348 295.841 426.156C295.969 426.053 296.161 425.874 296.417 425.618V423.619ZM304.654 426.809C304.859 426.847 304.961 426.969 304.961 427.174V428H300.465V427.174C300.465 426.969 300.568 426.847 300.773 426.809L301.849 426.597V415.242C301.26 415.127 300.901 415.05 300.773 415.012C300.568 414.973 300.465 414.858 300.465 414.666V413.84H303.578V426.578C304.167 426.693 304.526 426.77 304.654 426.809ZM313.723 426.636C312.916 427.635 311.712 428.134 310.111 428.134C308.882 428.134 307.87 427.693 307.076 426.809C306.243 425.874 305.827 424.644 305.827 423.12C305.827 421.634 306.217 420.436 306.999 419.527C307.818 418.592 308.958 418.124 310.419 418.124C311.149 418.124 312.109 418.355 313.301 418.816V421.352H312.532C312.353 421.352 312.244 421.262 312.206 421.083C312.193 421.045 312.167 420.801 312.129 420.353L312.071 419.719C311.93 419.668 311.789 419.629 311.648 419.604C311.52 419.578 311.431 419.559 311.379 419.546C311.034 419.495 310.675 419.469 310.303 419.469C309.97 419.469 309.618 419.553 309.247 419.719C308.901 419.873 308.6 420.11 308.344 420.43C307.857 421.07 307.614 421.967 307.614 423.12C307.614 424.273 307.87 425.182 308.382 425.848C308.882 426.489 309.567 426.809 310.438 426.809C311.245 426.809 311.956 426.54 312.571 426.002C312.673 425.899 312.801 425.848 312.955 425.848C313.096 425.848 313.198 425.899 313.262 426.002L313.723 426.636ZM323.198 426.77C323.288 426.783 323.358 426.828 323.409 426.905C323.461 426.969 323.486 427.046 323.486 427.135V427.962H321.488C321.373 427.962 321.238 427.936 321.085 427.885C320.995 427.859 320.931 427.757 320.892 427.577L320.7 426.655L319.932 427.289C319.714 427.468 319.458 427.622 319.163 427.75C318.881 427.878 318.6 427.974 318.318 428.038C318.062 428.102 317.716 428.134 317.28 428.134C316.922 428.134 316.576 428.077 316.243 427.962C315.846 427.821 315.558 427.667 315.378 427.5C315.148 427.296 314.955 427.027 314.802 426.693C314.661 426.399 314.59 426.015 314.59 425.541C314.59 425.131 314.693 424.759 314.898 424.426C315.128 424.055 315.474 423.735 315.935 423.466C316.448 423.171 317.063 422.94 317.78 422.774C318.523 422.607 319.458 422.524 320.585 422.524V421.775C320.585 421.019 320.418 420.443 320.085 420.046C319.752 419.649 319.272 419.45 318.644 419.45C318.235 419.45 317.882 419.508 317.588 419.623C317.255 419.751 317.011 419.866 316.858 419.969C316.781 420.02 316.691 420.078 316.589 420.142C316.499 420.193 316.403 420.251 316.3 420.315C316.16 420.417 316.012 420.468 315.859 420.468C315.718 420.468 315.615 420.443 315.551 420.391C315.474 420.327 315.41 420.251 315.359 420.161L315.052 419.623C315.551 419.136 316.127 418.752 316.781 418.47C317.37 418.214 318.062 418.086 318.856 418.086C319.432 418.086 319.919 418.176 320.316 418.355C320.752 418.547 321.104 418.79 321.373 419.085C321.655 419.38 321.872 419.764 322.026 420.238C322.167 420.66 322.237 421.16 322.237 421.736V426.597C322.852 426.726 323.172 426.796 323.198 426.809V426.77ZM320.547 423.619C319.714 423.619 319.048 423.664 318.548 423.754C318.062 423.843 317.613 423.978 317.203 424.157C316.845 424.324 316.589 424.516 316.435 424.734C316.281 424.964 316.204 425.208 316.204 425.464C316.204 425.669 316.249 425.887 316.339 426.117C316.416 426.309 316.531 426.463 316.685 426.578C316.838 426.693 317.005 426.777 317.184 426.828C317.402 426.892 317.613 426.924 317.818 426.924C318.074 426.924 318.343 426.892 318.625 426.828C318.881 426.764 319.118 426.681 319.336 426.578C319.528 426.489 319.74 426.348 319.97 426.156C320.098 426.053 320.29 425.874 320.547 425.618V423.619Z" fill="#3FBDF1"/>
</g>
<defs>
<clipPath id="clip0_12_197">
<rect width="428" height="926" fill="white"/>
</clipPath>
</defs>
</svg>
