<svg width="428" height="926" viewBox="0 0 428 926" fill="none" xmlns="http://www.w3.org/2000/svg">
<g clip-path="url(#clip0_12_290)">
<rect width="428" height="926" fill="white"/>
<path d="M344.564 739.147C347.275 739.147 349.922 739.475 352.506 740.131C355.09 740.788 357.59 741.731 360.004 742.959C360.385 743.129 360.608 743.372 360.673 743.689C360.735 744.007 360.703 744.315 360.576 744.612C360.449 744.908 360.237 745.141 359.941 745.311C359.644 745.48 359.284 745.459 358.86 745.247C356.615 744.103 354.296 743.224 351.901 742.609C349.509 741.995 347.063 741.689 344.564 741.689C342.107 741.689 339.692 741.974 337.32 742.545C334.948 743.118 332.681 744.019 330.521 745.247C330.182 745.459 329.854 745.511 329.537 745.405C329.219 745.3 328.953 745.078 328.742 744.739C328.615 744.4 328.583 744.092 328.648 743.816C328.71 743.542 328.911 743.298 329.25 743.087C331.622 741.816 334.1 740.841 336.684 740.164C339.268 739.486 341.895 739.147 344.564 739.147ZM344.564 745.374C349.054 745.374 353.29 746.337 357.272 748.264C361.254 750.192 364.579 752.978 367.248 756.621C367.502 757.002 367.587 757.341 367.502 757.638C367.417 757.934 367.248 758.188 366.994 758.4C366.74 758.612 366.443 758.707 366.104 758.685C365.765 758.664 365.469 758.485 365.215 758.146C362.885 754.842 359.888 752.31 356.225 750.551C352.56 748.794 348.673 747.916 344.564 747.916C340.454 747.916 336.6 748.794 332.999 750.551C329.398 752.31 326.412 754.842 324.04 758.146C323.785 758.527 323.489 758.739 323.15 758.781C322.811 758.824 322.515 758.739 322.26 758.527C321.964 758.315 321.773 758.05 321.689 757.732C321.604 757.415 321.71 757.087 322.006 756.748C324.59 753.147 327.873 750.351 331.855 748.361C335.837 746.37 340.073 745.374 344.564 745.374ZM344.564 757.511C348.503 757.511 351.892 758.834 354.73 761.481C357.568 764.129 358.987 767.381 358.987 771.236C358.987 771.617 358.871 771.923 358.637 772.156C358.405 772.389 358.098 772.506 357.717 772.506C357.378 772.506 357.081 772.389 356.827 772.156C356.573 771.923 356.446 771.617 356.446 771.236C356.446 768.058 355.27 765.4 352.918 763.26C350.568 761.121 347.783 760.052 344.564 760.052C341.344 760.052 338.58 761.121 336.27 763.26C333.962 765.4 332.808 768.058 332.808 771.236C332.808 774.667 333.401 777.579 334.587 779.971C335.774 782.365 337.51 784.77 339.798 787.184C340.052 787.439 340.179 787.735 340.179 788.074C340.179 788.413 340.052 788.709 339.798 788.964C339.544 789.218 339.247 789.345 338.908 789.345C338.569 789.345 338.273 789.218 338.019 788.964C335.519 786.337 333.603 783.657 332.269 780.924C330.934 778.193 330.267 774.963 330.267 771.236C330.267 767.381 331.665 764.129 334.46 761.481C337.256 758.834 340.624 757.511 344.564 757.511ZM344.5 769.965C344.881 769.965 345.189 770.092 345.423 770.346C345.655 770.6 345.771 770.897 345.771 771.236C345.771 774.413 346.915 777.018 349.202 779.051C351.49 781.084 354.158 782.101 357.208 782.101C357.462 782.101 357.823 782.08 358.289 782.038C358.754 781.995 359.242 781.932 359.75 781.847C360.131 781.762 360.46 781.815 360.736 782.005C361.011 782.196 361.19 782.482 361.275 782.864C361.36 783.203 361.296 783.499 361.084 783.753C360.873 784.007 360.597 784.177 360.258 784.262C359.496 784.473 358.829 784.59 358.258 784.612C357.685 784.633 357.335 784.643 357.208 784.643C353.438 784.643 350.165 783.372 347.39 780.83C344.616 778.289 343.229 775.09 343.229 771.236C343.229 770.897 343.345 770.6 343.577 770.346C343.811 770.092 344.119 769.965 344.5 769.965ZM344.564 763.738C346.724 763.738 348.567 764.458 350.092 765.898C351.617 767.338 352.379 769.117 352.379 771.236C352.379 772.633 352.909 773.809 353.968 774.763C355.027 775.716 356.276 776.192 357.717 776.192C359.157 776.192 360.385 775.716 361.402 774.763C362.419 773.809 362.927 772.633 362.927 771.236C362.927 766.322 361.127 762.191 357.526 758.845C353.925 755.498 349.626 753.825 344.627 753.825C339.628 753.825 335.329 755.498 331.728 758.845C328.127 762.191 326.327 766.3 326.327 771.172C326.327 772.189 326.423 773.459 326.614 774.984C326.804 776.509 327.259 778.289 327.979 780.322C328.106 780.703 328.096 781.042 327.949 781.339C327.8 781.635 327.556 781.847 327.217 781.974C326.878 782.101 326.549 782.09 326.23 781.941C325.914 781.794 325.692 781.55 325.565 781.212C324.929 779.559 324.474 777.918 324.2 776.286C323.923 774.656 323.785 772.972 323.785 771.236C323.785 765.601 325.83 760.878 329.918 757.066C334.005 753.253 338.887 751.347 344.564 751.347C350.282 751.347 355.196 753.253 359.305 757.066C363.414 760.878 365.469 765.601 365.469 771.236C365.469 773.354 364.717 775.123 363.214 776.543C361.71 777.961 359.877 778.67 357.717 778.67C355.556 778.67 353.703 777.961 352.158 776.543C350.611 775.123 349.837 773.354 349.837 771.236C349.837 769.838 349.319 768.662 348.282 767.708C347.243 766.755 346.004 766.279 344.564 766.279C343.123 766.279 341.884 766.755 340.845 767.708C339.808 768.662 339.29 769.838 339.29 771.236C339.29 775.345 340.508 778.776 342.944 781.529C345.379 784.283 348.524 786.21 352.379 787.312C352.76 787.481 353.015 787.703 353.142 787.977C353.269 788.254 353.29 788.561 353.205 788.9C353.12 789.197 352.951 789.451 352.697 789.663C352.443 789.874 352.125 789.938 351.744 789.853C347.338 788.709 343.737 786.507 340.942 783.245C338.146 779.983 336.748 775.98 336.748 771.236C336.748 769.117 337.51 767.338 339.035 765.898C340.56 764.458 342.403 763.738 344.564 763.738Z" fill="#3FBDF1"/>
<path d="M334.921 -188.468C389.396 -234.522 526.815 -136.552 588.715 -81.8106C505.439 -10.9766 337.297 131.106 330.934 132.764C322.981 134.837 -75.3371 261.483 -111.989 243.65C-148.64 225.818 -70.7738 91.567 -26.7715 71.129C17.2308 50.6909 -60.7152 -40.4522 83.7267 -139.96C228.654 -239.802 266.827 -130.9 334.921 -188.468Z" fill="black"/>
<path d="M167.385 63.4798H174.796C178.016 63.4798 180.889 64.1043 183.415 65.3534C186.218 66.7967 188.161 68.9062 189.244 71.6819C189.854 73.2086 190.16 74.9156 190.16 76.8031C190.16 81.272 188.786 84.922 186.038 87.7532C183.29 90.5844 179.307 92 174.088 92H167.385C165.22 92 163.263 92.0416 161.514 92.1249L161.39 90.9175C162.805 90.6399 163.763 90.3901 164.262 90.168C164.762 89.946 165.04 89.599 165.095 89.1272C165.317 87.4895 165.428 84.5195 165.428 80.2172C165.428 73.2502 165.345 68.9062 165.178 67.1853L165.095 66.3526C165.04 65.853 164.79 65.506 164.346 65.3117C163.902 65.0897 163.013 64.8399 161.681 64.5623L161.806 63.3549C163.555 63.4381 165.414 63.4798 167.385 63.4798ZM169.633 89.5019C171.132 89.835 172.728 90.0015 174.421 90.0015C176.115 90.0015 177.724 89.6684 179.251 89.0023C180.778 88.3083 181.944 87.5034 182.748 86.5874C183.553 85.6437 184.192 84.5334 184.664 83.2566C185.413 81.3691 185.788 79.4261 185.788 77.4276C185.788 69.2948 181.263 65.2285 172.215 65.2285C171.215 65.2285 170.549 65.284 170.216 65.395C169.911 65.506 169.717 65.742 169.633 66.1028C169.328 67.907 169.175 70.9603 169.175 75.2626C169.175 81.952 169.286 86.3792 169.508 88.5443L169.633 89.5019ZM203.298 89.7933C208.405 89.7933 211.611 89.5574 212.916 89.0855C214.276 88.5581 215.233 87.8087 215.788 86.8372C216.094 86.3098 216.371 85.6575 216.621 84.8803L217.745 85.38C217.246 86.9066 216.913 89.1133 216.746 92H194.429L193.43 90.5428L212.083 65.7281C204.755 65.7281 200.356 65.9363 198.884 66.3526C197.441 66.769 196.359 68.1429 195.637 70.4745L194.513 69.9749C194.846 68.0874 195.012 66.0473 195.012 63.8545V63.23C197.288 63.3965 202.562 63.4798 210.834 63.4798H216.33L217.079 64.8537L198.468 89.7933H203.298ZM228.139 66.3526C227.917 67.9903 227.806 70.9603 227.806 75.2626C227.806 82.2296 227.89 86.5596 228.056 88.2528L228.139 89.1272C228.195 89.6268 228.459 89.9876 228.931 90.2097C229.402 90.404 230.318 90.6399 231.679 90.9175L231.554 92.1249C229.805 92.0416 227.904 92 225.85 92C223.796 92 221.894 92.0416 220.146 92.1249L220.021 90.9175C221.436 90.6399 222.394 90.3901 222.893 90.168C223.393 89.946 223.671 89.599 223.726 89.1272C223.948 87.4895 224.059 84.5195 224.059 80.2172C224.059 73.2502 223.976 68.9062 223.809 67.1853L223.726 66.3526C223.671 65.853 223.421 65.506 222.977 65.3117C222.533 65.0897 221.644 64.8399 220.312 64.5623L220.437 63.3549C222.186 63.4381 224.018 63.4798 225.933 63.4798C227.848 63.4798 229.68 63.4381 231.429 63.3549L231.554 64.5623C230.221 64.8399 229.333 65.0897 228.889 65.3117C228.445 65.506 228.195 65.853 228.139 66.3526ZM249.615 64.937C248.005 64.937 246.576 65.2562 245.326 65.8946C244.077 66.533 243.092 67.3241 242.37 68.2678C241.649 69.2116 241.066 70.2802 240.622 71.4738C239.844 73.4723 239.456 75.4152 239.456 77.3027C239.456 79.1902 239.622 80.8972 239.955 82.4239C240.289 83.9227 240.816 85.3106 241.538 86.5874C242.259 87.8642 243.272 88.8635 244.577 89.5851C245.882 90.3068 247.339 90.6677 248.949 90.6677C250.586 90.6677 252.002 90.3901 253.196 89.835C254.389 89.2798 255.347 88.5859 256.068 87.7532C256.818 86.8927 257.442 85.9212 257.942 84.8387C258.83 82.9235 259.302 80.9805 259.358 79.0098C259.358 69.6279 256.11 64.937 249.615 64.937ZM260.232 87.6699C259.066 89.1966 257.484 90.4179 255.485 91.3338C253.487 92.2221 251.169 92.6662 248.532 92.6662C243.98 92.6662 240.594 91.4449 238.373 89.0023C236.181 86.5319 235.084 83.1733 235.084 78.9265C235.084 74.6519 236.25 70.988 238.582 67.9348C239.747 66.4081 241.329 65.2007 243.328 64.3125C245.326 63.3965 247.644 62.9385 250.281 62.9385C254.833 62.9385 258.206 64.1598 260.398 66.6024C262.619 69.045 263.729 72.3897 263.729 76.6365C263.729 80.8834 262.564 84.5611 260.232 87.6699Z" fill="white"/>
<path d="M190.707 98.7936H194.742C196.247 98.7936 197.392 99.1619 198.177 99.8985C198.962 100.635 199.354 101.548 199.354 102.637C199.354 103.373 199.13 104.078 198.681 104.751C198.233 105.407 197.617 105.928 196.832 106.312C198.097 106.6 199.01 107.097 199.57 107.801C200.131 108.506 200.411 109.459 200.411 110.66C200.411 111.861 199.906 112.926 198.898 113.854C197.889 114.783 196.632 115.248 195.126 115.248H190.707C189.458 115.248 188.329 115.272 187.32 115.32L187.248 114.623C188.064 114.463 188.617 114.319 188.905 114.191C189.193 114.063 189.354 113.862 189.386 113.59C189.514 112.645 189.578 110.932 189.578 108.45C189.578 104.43 189.53 101.924 189.434 100.931L189.386 100.451C189.354 100.163 189.209 99.9626 188.953 99.8505C188.697 99.7224 188.185 99.5782 187.416 99.4181L187.488 98.7215C188.497 98.7696 189.57 98.7936 190.707 98.7936ZM197.096 102.637C197.096 100.747 195.879 99.8024 193.445 99.8024C192.869 99.8024 192.492 99.8345 192.316 99.8985C192.156 99.9626 192.044 100.107 191.98 100.331C191.804 101.148 191.716 103.173 191.716 106.408C192.836 106.216 194.03 106.12 195.295 106.12C196.496 105.335 197.096 104.174 197.096 102.637ZM194.406 114.383C195.415 114.383 196.287 114.047 197.024 113.374C197.761 112.701 198.129 111.781 198.129 110.612C198.129 108.29 196.496 107.129 193.229 107.129C192.748 107.129 192.244 107.153 191.716 107.201C191.716 110.355 191.78 112.341 191.908 113.158L191.98 113.614C192.124 114.127 192.933 114.383 194.406 114.383ZM208.577 110.203C207.264 110.235 206.263 110.484 205.575 110.948C204.886 111.412 204.542 111.917 204.542 112.461C204.542 113.006 204.678 113.406 204.95 113.662C205.238 113.902 205.695 114.023 206.319 114.023C206.944 114.023 207.697 113.758 208.577 113.23V110.203ZM210.331 115.464C209.37 115.464 208.809 114.943 208.649 113.902C207.24 114.943 206.023 115.464 204.998 115.464C204.31 115.464 203.725 115.256 203.245 114.839C202.764 114.407 202.524 113.742 202.524 112.846C202.524 111.949 202.997 111.14 203.941 110.419C204.902 109.699 206.447 109.266 208.577 109.122V106.888C208.577 106.44 208.409 106.096 208.073 105.856C207.753 105.615 207.296 105.495 206.704 105.495C206.111 105.495 205.639 105.663 205.287 106C204.934 106.32 204.758 106.736 204.758 107.249C204.758 107.441 204.782 107.657 204.83 107.897L204.302 108.138C203.981 107.961 203.677 107.721 203.389 107.417C203.117 107.113 202.981 106.896 202.981 106.768C202.981 106.624 203.085 106.424 203.293 106.168C203.517 105.896 203.813 105.607 204.182 105.303C204.55 104.999 205.038 104.743 205.647 104.534C206.271 104.31 206.968 104.198 207.737 104.198C208.505 104.198 209.13 104.39 209.61 104.775C210.091 105.143 210.331 105.824 210.331 106.816C210.331 107.793 210.379 109.867 210.475 113.038C210.491 113.806 210.779 114.191 211.34 114.191C211.58 114.191 211.828 114.127 212.084 113.998L212.324 114.623C211.716 115.184 211.051 115.464 210.331 115.464ZM216.721 106.432L216.697 109.747C216.697 111.813 216.761 113.158 216.889 113.782L216.937 114.095C216.953 114.207 217.129 114.319 217.466 114.431C217.818 114.527 218.154 114.591 218.474 114.623L218.402 115.32C217.634 115.272 216.753 115.248 215.76 115.248C214.767 115.248 213.887 115.272 213.118 115.32L213.19 114.623C213.494 114.591 213.814 114.527 214.151 114.431C214.503 114.319 214.687 114.207 214.703 114.095C214.831 113.534 214.895 112.413 214.895 110.732C214.895 108.009 214.831 106.344 214.703 105.735L213.166 105.279L213.118 104.655C214.143 104.655 215.2 104.51 216.289 104.222L216.745 104.438V105.591C218.522 104.663 220.068 104.198 221.381 104.198C222.182 104.198 222.79 104.358 223.206 104.679C223.623 104.999 223.831 105.599 223.831 106.48V109.747C223.831 111.813 223.887 113.158 223.999 113.782L224.071 114.095C224.087 114.207 224.263 114.319 224.6 114.431C224.952 114.527 225.288 114.591 225.609 114.623L225.536 115.32C224.768 115.272 223.887 115.248 222.894 115.248C221.901 115.248 221.021 115.272 220.252 115.32L220.324 114.623C220.628 114.591 220.949 114.527 221.285 114.431C221.637 114.319 221.821 114.207 221.837 114.095C221.965 113.534 222.029 112.085 222.029 109.747V107.417C222.029 106.792 221.845 106.36 221.477 106.12C221.109 105.88 220.484 105.759 219.603 105.759C218.723 105.759 217.762 105.984 216.721 106.432ZM231.723 115.32C230.955 115.272 230.074 115.248 229.081 115.248C228.088 115.248 227.208 115.272 226.439 115.32L226.511 114.623C226.815 114.591 227.136 114.527 227.472 114.431C227.824 114.319 228.008 114.207 228.024 114.095C228.168 113.054 228.24 111.052 228.24 108.089C228.24 103.269 228.192 100.451 228.096 99.6343L228.048 99.2259L226.511 98.7696L226.463 98.145C227.488 98.145 228.545 98.0009 229.634 97.7127L230.09 97.9288C230.058 99.9305 230.042 102.885 230.042 106.792V108.714L233.885 105.832C233.997 105.735 234.053 105.639 234.053 105.543C234.053 105.191 233.573 105.007 232.612 104.991L232.684 104.294C233.677 104.342 234.526 104.366 235.23 104.366C235.935 104.366 236.776 104.342 237.753 104.294L237.825 104.991C236.848 105.135 235.999 105.463 235.278 105.976L232.204 108.258L236.816 114.215C236.976 114.407 237.28 114.527 237.729 114.575C237.825 114.575 237.953 114.583 238.113 114.599C238.273 114.615 238.377 114.623 238.425 114.623L238.353 115.32C237.44 115.32 236.407 115.368 235.254 115.464L230.811 109.266L230.066 109.819C230.114 111.644 230.178 113.07 230.258 114.095C230.274 114.207 230.45 114.319 230.787 114.431C231.139 114.527 231.475 114.591 231.795 114.623L231.723 115.32Z" fill="#3FBDF1"/>
<path d="M154.629 259.069C154.629 259.274 154.526 259.396 154.321 259.434L153.361 259.646L149.518 272H147.827L144.349 261.509C144.285 261.356 144.221 261.125 144.157 260.818L144.061 261.164C144.048 261.215 144.036 261.273 144.023 261.337C144.01 261.401 143.997 261.458 143.984 261.509L140.488 272H138.797L134.954 259.627C134.455 259.524 134.134 259.447 133.993 259.396C133.789 259.358 133.686 259.242 133.686 259.05V258.224H138.374V259.05C138.374 259.242 138.272 259.358 138.067 259.396C137.785 259.46 137.554 259.511 137.375 259.55C137.196 259.588 137.068 259.614 136.991 259.627L139.527 268.234C139.668 268.747 139.757 269.144 139.796 269.425C139.911 268.875 140.007 268.478 140.084 268.234L143.331 258.666C143.37 258.563 143.446 258.461 143.562 258.358C143.69 258.256 143.824 258.205 143.965 258.205H144.503C144.811 258.205 145.022 258.358 145.137 258.666L148.365 268.234C148.506 268.67 148.608 269.054 148.673 269.387L148.769 268.772L148.884 268.234L151.439 259.627C151.362 259.627 151.138 259.582 150.767 259.492L150.363 259.415C150.158 259.377 150.056 259.255 150.056 259.05V258.243H154.629V259.069ZM158.26 263.777C159.195 262.649 160.284 262.086 161.526 262.086C162.666 262.086 163.563 262.509 164.216 263.354C164.882 264.251 165.215 265.493 165.215 267.081C165.215 268.542 164.844 269.739 164.101 270.674C163.32 271.648 162.333 272.134 161.142 272.134C159.951 272.134 159.016 271.757 158.337 271.001V273.883L158.856 273.998L159.413 274.113C159.618 274.152 159.72 274.274 159.72 274.479V275.305H155.224V274.479C155.224 274.274 155.327 274.152 155.532 274.113L156.608 273.902V263.681C156.018 263.565 155.66 263.488 155.532 263.45C155.327 263.412 155.224 263.29 155.224 263.085V262.278H157.645C157.876 262.278 158.029 262.393 158.106 262.624L158.241 263.777H158.26ZM158.337 269.656C158.913 270.424 159.656 270.809 160.566 270.809C161.513 270.809 162.231 270.489 162.718 269.848C163.204 269.208 163.448 268.285 163.448 267.081C163.448 265.89 163.236 264.994 162.814 264.391C162.391 263.777 161.77 263.469 160.95 263.469C159.938 263.469 159.067 263.962 158.337 264.949V269.656ZM167.367 260.068C167.265 259.966 167.175 259.838 167.098 259.684C167.034 259.556 167.002 259.402 167.002 259.223C167.002 259.031 167.034 258.871 167.098 258.743C167.188 258.563 167.277 258.429 167.367 258.339C167.469 258.237 167.598 258.147 167.751 258.07C167.879 258.006 168.033 257.974 168.212 257.974C168.392 257.974 168.545 258.006 168.674 258.07C168.827 258.147 168.955 258.237 169.058 258.339C169.147 258.429 169.237 258.563 169.327 258.743C169.404 258.896 169.442 259.057 169.442 259.223C169.442 259.377 169.404 259.53 169.327 259.684C169.25 259.838 169.16 259.966 169.058 260.068C168.955 260.171 168.827 260.261 168.674 260.337C168.545 260.402 168.392 260.434 168.212 260.434C168.033 260.434 167.879 260.402 167.751 260.337C167.598 260.261 167.469 260.171 167.367 260.068ZM170.153 270.809C170.243 270.822 170.313 270.866 170.364 270.943C170.416 271.007 170.441 271.084 170.441 271.174V272H165.964V271.174C165.964 271.084 165.99 271.007 166.041 270.943C166.093 270.866 166.163 270.822 166.253 270.809L167.367 270.597V263.661L166.253 263.45C166.163 263.437 166.093 263.399 166.041 263.335C165.99 263.258 165.964 263.175 165.964 263.085V262.278H169.058V270.597L170.153 270.809ZM175.361 262.124C176.027 262.124 176.872 262.297 177.897 262.643V265.141H177.148C176.969 265.141 176.86 265.051 176.821 264.872L176.706 263.604C176.104 263.463 175.604 263.392 175.207 263.392H175.188C174.663 263.392 174.221 263.533 173.862 263.815C173.517 264.084 173.344 264.379 173.344 264.699C173.344 265.032 173.42 265.275 173.574 265.429C173.83 265.724 174.202 265.948 174.689 266.101L175.265 266.274C175.367 266.3 175.572 266.364 175.88 266.467L176.802 266.812C177.058 266.902 177.327 267.069 177.609 267.312C178.134 267.722 178.397 268.285 178.397 269.003C178.397 269.938 178.083 270.681 177.455 271.231C176.776 271.833 175.918 272.134 174.881 272.134C173.818 272.134 172.767 271.962 171.73 271.616V269.08H172.421C172.575 269.08 172.671 269.156 172.71 269.31L172.825 270.54C173.337 270.796 173.997 270.924 174.804 270.924C175.419 270.924 175.918 270.764 176.302 270.444C176.635 270.149 176.802 269.822 176.802 269.464C176.802 269.092 176.725 268.823 176.571 268.657C176.392 268.452 176.2 268.298 175.995 268.196C175.713 268.055 175.444 267.952 175.188 267.888C174.24 267.581 173.645 267.376 173.401 267.273C173.094 267.133 172.806 266.953 172.537 266.736C171.999 266.287 171.73 265.685 171.73 264.929C171.73 264.161 172.037 263.508 172.652 262.97C173.292 262.406 174.195 262.124 175.361 262.124ZM186.988 262.989C186.988 263.219 186.905 263.437 186.738 263.642L181.474 270.655H185.797C185.835 270.245 185.861 269.944 185.874 269.752C185.899 269.56 185.912 269.438 185.912 269.387C185.951 269.233 186.047 269.156 186.2 269.156H186.873V272H179.456V271.289C179.456 271.084 179.533 270.879 179.687 270.674L184.99 263.623H180.821L180.725 264.776C180.686 264.942 180.584 265.026 180.417 265.026H179.745V262.278L186.988 262.259V262.989ZM202.066 270.809C202.259 270.847 202.355 270.962 202.355 271.155V272H200.549C200.305 272 200.087 271.885 199.895 271.654L196.706 267.658C196.616 267.53 196.52 267.446 196.418 267.408C196.315 267.37 196.168 267.35 195.976 267.35H195.515V270.597C195.592 270.597 195.816 270.642 196.187 270.732L196.591 270.809C196.796 270.847 196.898 270.969 196.898 271.174V272H192.402V271.174C192.402 270.969 192.498 270.847 192.69 270.809L193.785 270.597V259.242C193.171 259.127 192.806 259.05 192.69 259.012C192.498 258.973 192.402 258.858 192.402 258.666V257.84H195.515V266.159H195.937C196.206 266.159 196.411 266.069 196.552 265.89L198.743 263.546C198.704 263.546 198.666 263.54 198.627 263.527C198.589 263.514 198.55 263.508 198.512 263.508L198.205 263.45C198 263.412 197.897 263.29 197.897 263.085V262.278H201.97V263.085C201.97 263.277 201.887 263.392 201.721 263.431L200.529 263.661L198.262 266.082C198.057 266.326 197.872 266.499 197.705 266.601C197.961 266.768 198.153 266.966 198.281 267.197L200.971 270.617L201.471 270.693C201.804 270.77 202.009 270.809 202.086 270.809H202.066ZM207.386 262.124C208.09 262.124 208.731 262.24 209.307 262.47C209.871 262.701 210.364 263.034 210.786 263.469C211.184 263.879 211.491 264.404 211.709 265.045C211.926 265.672 212.035 266.364 212.035 267.12C212.035 267.876 211.926 268.567 211.709 269.195C211.491 269.835 211.184 270.36 210.786 270.77C210.364 271.206 209.871 271.539 209.307 271.769C208.731 272 208.09 272.115 207.386 272.115C206.681 272.115 206.041 272 205.464 271.769C204.901 271.539 204.408 271.206 203.985 270.77C203.601 270.373 203.287 269.848 203.043 269.195C202.839 268.644 202.736 267.952 202.736 267.12C202.736 266.287 202.839 265.596 203.043 265.045C203.287 264.391 203.601 263.866 203.985 263.469C204.408 263.034 204.901 262.701 205.464 262.47C206.041 262.24 206.681 262.124 207.386 262.124ZM207.386 270.809C208.372 270.809 209.089 270.489 209.538 269.848C210.012 269.182 210.249 268.279 210.249 267.139C210.249 265.999 210.012 265.096 209.538 264.43C209.089 263.789 208.372 263.469 207.386 263.469C206.886 263.469 206.463 263.546 206.118 263.7C205.785 263.854 205.49 264.097 205.234 264.43C204.99 264.763 204.811 265.147 204.696 265.583C204.568 266.095 204.504 266.62 204.504 267.158C204.504 267.671 204.568 268.183 204.696 268.695C204.811 269.131 204.99 269.515 205.234 269.848C205.452 270.143 205.746 270.373 206.118 270.54C206.528 270.719 206.95 270.809 207.386 270.809ZM217.696 262.086C218.771 262.086 219.655 262.47 220.347 263.239V259.242L219.06 259.012C218.868 258.973 218.771 258.858 218.771 258.666V257.82H222.038V270.578C222.678 270.693 223.05 270.77 223.152 270.809C223.331 270.847 223.421 270.962 223.421 271.155V272H221.039C220.808 272 220.654 271.878 220.578 271.635L220.424 270.463C219.514 271.564 218.426 272.115 217.158 272.115C216.018 272.115 215.121 271.693 214.468 270.847C213.802 269.963 213.469 268.734 213.469 267.158C213.469 265.685 213.846 264.481 214.602 263.546C215.383 262.573 216.415 262.086 217.696 262.086ZM217.734 270.751C218.746 270.751 219.617 270.258 220.347 269.272V264.584C219.771 263.815 219.021 263.431 218.099 263.431C217.164 263.431 216.453 263.751 215.966 264.391C215.48 265.032 215.236 265.954 215.236 267.158C215.236 268.99 215.71 270.117 216.658 270.54C216.953 270.668 217.305 270.732 217.715 270.732L217.734 270.751ZM232.668 262.086C233.744 262.086 234.628 262.47 235.32 263.239V259.242L234.033 259.012C233.84 258.973 233.744 258.858 233.744 258.666V257.82H237.011V270.578C237.651 270.693 238.023 270.77 238.125 270.809C238.304 270.847 238.394 270.962 238.394 271.155V272H236.012C235.781 272 235.627 271.878 235.55 271.635L235.397 270.463C234.487 271.564 233.399 272.115 232.13 272.115C230.99 272.115 230.094 271.693 229.441 270.847C228.775 269.963 228.442 268.734 228.442 267.158C228.442 265.685 228.819 264.481 229.575 263.546C230.356 262.573 231.388 262.086 232.668 262.086ZM232.707 270.751C233.719 270.751 234.59 270.258 235.32 269.272V264.584C234.744 263.815 233.994 263.431 233.072 263.431C232.137 263.431 231.426 263.751 230.939 264.391C230.453 265.032 230.209 265.954 230.209 267.158C230.209 268.99 230.683 270.117 231.631 270.54C231.926 270.668 232.278 270.732 232.688 270.732L232.707 270.751ZM243.936 262.124C244.641 262.124 245.281 262.24 245.858 262.47C246.421 262.701 246.914 263.034 247.337 263.469C247.734 263.879 248.041 264.404 248.259 265.045C248.477 265.672 248.586 266.364 248.586 267.12C248.586 267.876 248.477 268.567 248.259 269.195C248.041 269.835 247.734 270.36 247.337 270.77C246.914 271.206 246.421 271.539 245.858 271.769C245.281 272 244.641 272.115 243.936 272.115C243.232 272.115 242.591 272 242.015 271.769C241.451 271.539 240.958 271.206 240.535 270.77C240.151 270.373 239.837 269.848 239.594 269.195C239.389 268.644 239.287 267.952 239.287 267.12C239.287 266.287 239.389 265.596 239.594 265.045C239.837 264.391 240.151 263.866 240.535 263.469C240.958 263.034 241.451 262.701 242.015 262.47C242.591 262.24 243.232 262.124 243.936 262.124ZM243.936 270.809C244.923 270.809 245.64 270.489 246.088 269.848C246.562 269.182 246.799 268.279 246.799 267.139C246.799 265.999 246.562 265.096 246.088 264.43C245.64 263.789 244.923 263.469 243.936 263.469C243.437 263.469 243.014 263.546 242.668 263.7C242.335 263.854 242.041 264.097 241.784 264.43C241.541 264.763 241.362 265.147 241.246 265.583C241.118 266.095 241.054 266.62 241.054 267.158C241.054 267.671 241.118 268.183 241.246 268.695C241.362 269.131 241.541 269.515 241.784 269.848C242.002 270.143 242.297 270.373 242.668 270.54C243.078 270.719 243.501 270.809 243.936 270.809ZM253.453 262.124C254.119 262.124 254.964 262.297 255.989 262.643V265.141H255.24C255.061 265.141 254.952 265.051 254.913 264.872L254.798 263.604C254.196 263.463 253.696 263.392 253.299 263.392H253.28C252.755 263.392 252.313 263.533 251.954 263.815C251.609 264.084 251.436 264.379 251.436 264.699C251.436 265.032 251.512 265.275 251.666 265.429C251.922 265.724 252.294 265.948 252.781 266.101L253.357 266.274C253.459 266.3 253.664 266.364 253.972 266.467L254.894 266.812C255.15 266.902 255.419 267.069 255.701 267.312C256.226 267.722 256.489 268.285 256.489 269.003C256.489 269.938 256.175 270.681 255.547 271.231C254.868 271.833 254.01 272.134 252.973 272.134C251.91 272.134 250.859 271.962 249.822 271.616V269.08H250.513C250.667 269.08 250.763 269.156 250.802 269.31L250.917 270.54C251.429 270.796 252.089 270.924 252.896 270.924C253.511 270.924 254.01 270.764 254.394 270.444C254.728 270.149 254.894 269.822 254.894 269.464C254.894 269.092 254.817 268.823 254.663 268.657C254.484 268.452 254.292 268.298 254.087 268.196C253.805 268.055 253.536 267.952 253.28 267.888C252.332 267.581 251.737 267.376 251.493 267.273C251.186 267.133 250.898 266.953 250.629 266.736C250.091 266.287 249.822 265.685 249.822 264.929C249.822 264.161 250.129 263.508 250.744 262.97C251.384 262.406 252.287 262.124 253.453 262.124ZM261.065 272.154C260.322 272.154 259.732 271.936 259.297 271.5C258.887 271.091 258.682 270.476 258.682 269.656V263.7H257.51C257.395 263.7 257.305 263.674 257.241 263.623C257.177 263.572 257.145 263.476 257.145 263.335V262.662L258.74 262.451L259.124 259.434C259.124 259.332 259.162 259.255 259.239 259.204C259.303 259.153 259.393 259.127 259.508 259.127H260.373V262.47H263.159V263.719H260.373V269.56C260.373 269.983 260.469 270.29 260.661 270.482C260.853 270.674 261.116 270.77 261.449 270.77C261.59 270.77 261.75 270.745 261.929 270.693C262.044 270.655 262.16 270.604 262.275 270.54C262.313 270.514 262.352 270.489 262.39 270.463C262.429 270.437 262.467 270.412 262.506 270.386C262.608 270.335 262.672 270.309 262.698 270.309C262.787 270.309 262.864 270.36 262.928 270.463L263.428 271.27C263.082 271.564 262.723 271.782 262.352 271.923C261.929 272.077 261.5 272.154 261.065 272.154ZM270.734 274.037C270.786 274.037 270.824 274.049 270.85 274.075C270.888 274.113 270.907 274.139 270.907 274.152L271.176 274.805C271.01 274.933 270.766 275.049 270.446 275.151C270.113 275.253 269.806 275.305 269.524 275.305C268.96 275.305 268.512 275.177 268.179 274.92C267.846 274.664 267.679 274.331 267.679 273.921C267.679 273.601 267.788 273.281 268.006 272.961C268.224 272.64 268.499 272.371 268.832 272.154C268.192 272.154 267.577 272.032 266.988 271.789C266.463 271.571 265.989 271.231 265.566 270.77C265.143 270.309 264.823 269.771 264.605 269.156C264.387 268.542 264.279 267.811 264.279 266.966C264.279 266.274 264.387 265.634 264.605 265.045C264.823 264.43 265.118 263.924 265.489 263.527C265.873 263.104 266.36 262.765 266.949 262.509C267.538 262.252 268.166 262.124 268.832 262.124C269.37 262.124 269.908 262.227 270.446 262.432C270.958 262.624 271.381 262.899 271.714 263.258C272.098 263.668 272.38 264.122 272.56 264.622C272.765 265.198 272.867 265.813 272.867 266.467C272.867 266.761 272.841 266.94 272.79 267.005C272.739 267.081 272.624 267.12 272.444 267.12H265.989C265.989 267.735 266.065 268.273 266.219 268.734C266.36 269.156 266.578 269.534 266.872 269.867C267.154 270.188 267.474 270.418 267.833 270.559C268.217 270.713 268.627 270.79 269.063 270.79C269.524 270.79 269.895 270.745 270.177 270.655C270.446 270.565 270.715 270.457 270.984 270.328C271.163 270.239 271.356 270.13 271.56 270.002C271.701 269.912 271.829 269.867 271.945 269.867C272.086 269.867 272.195 269.925 272.271 270.04L272.752 270.655C272.457 271.014 272.06 271.321 271.56 271.577C271.099 271.808 270.6 271.962 270.062 272.038L269.697 272.307L269.351 272.615C269.287 272.679 269.229 272.756 269.178 272.845C269.14 272.948 269.114 273.012 269.101 273.038C269.024 273.191 268.986 273.345 268.986 273.499C268.986 273.742 269.063 273.928 269.216 274.056C269.383 274.197 269.601 274.267 269.87 274.267C269.972 274.267 270.087 274.254 270.216 274.229C270.318 274.203 270.401 274.178 270.465 274.152C270.491 274.139 270.517 274.126 270.542 274.113C270.581 274.113 270.613 274.101 270.638 274.075C270.664 274.049 270.696 274.037 270.734 274.037ZM268.871 263.373C268.038 263.373 267.391 263.61 266.93 264.084C266.456 264.584 266.162 265.25 266.046 266.082H271.33C271.33 265.66 271.279 265.301 271.176 265.006C271.048 264.635 270.888 264.347 270.696 264.142C270.478 263.911 270.216 263.725 269.908 263.585C269.614 263.456 269.268 263.392 268.871 263.392V263.373ZM276.636 263.777C277.571 262.649 278.66 262.086 279.903 262.086C281.043 262.086 281.939 262.509 282.593 263.354C283.259 264.251 283.592 265.493 283.592 267.081C283.592 268.542 283.22 269.739 282.477 270.674C281.696 271.648 280.71 272.134 279.518 272.134C278.327 272.134 277.392 271.757 276.713 271.001V273.883L277.232 273.998L277.789 274.113C277.994 274.152 278.097 274.274 278.097 274.479V275.305H273.601V274.479C273.601 274.274 273.703 274.152 273.908 274.113L274.984 273.902V263.681C274.395 263.565 274.036 263.488 273.908 263.45C273.703 263.412 273.601 263.29 273.601 263.085V262.278H276.022C276.252 262.278 276.406 262.393 276.483 262.624L276.617 263.777H276.636ZM276.713 269.656C277.29 270.424 278.033 270.809 278.942 270.809C279.89 270.809 280.607 270.489 281.094 269.848C281.581 269.208 281.824 268.285 281.824 267.081C281.824 265.89 281.613 264.994 281.19 264.391C280.767 263.777 280.146 263.469 279.326 263.469C278.314 263.469 277.443 263.962 276.713 264.949V269.656ZM289.426 270.809C290.387 270.809 291.264 270.36 292.058 269.464V263.7C291.943 263.661 291.578 263.585 290.963 263.469C290.771 263.431 290.675 263.309 290.675 263.104V262.278H293.768V270.617C294.383 270.732 294.748 270.809 294.863 270.847C295.056 270.886 295.152 271.001 295.152 271.193V272.019H292.75C292.519 272.019 292.366 271.898 292.289 271.654L292.154 270.617C291.232 271.654 290.156 272.173 288.927 272.173C287.889 272.173 287.082 271.833 286.506 271.155C285.942 270.476 285.66 269.586 285.66 268.484V263.681C285.071 263.565 284.712 263.488 284.584 263.45C284.379 263.412 284.277 263.29 284.277 263.085V262.278H287.389V268.465C287.389 269.233 287.556 269.81 287.889 270.194C288.235 270.591 288.747 270.79 289.426 270.79V270.809Z" fill="#3FBDF1"/>
<path d="M101.557 647.8C101.557 648.68 101.457 649.46 101.257 650.14C101.177 650.42 101.057 650.7 100.897 650.98C100.777 651.26 100.677 651.48 100.597 651.64L84.2174 685.48C83.8574 686.2 83.3774 686.8 82.7774 687.28C82.1774 687.76 81.3374 688 80.2574 688H74.8574L91.6574 654.88C92.4174 653.44 93.1974 652.26 93.9974 651.34H76.5374L76.3574 653.2L76.1774 655.12C76.0174 655.84 75.5374 656.2 74.7374 656.2H71.5574V644.62H101.557V647.8Z" fill="#3FBDF1"/>
<path d="M341.377 670.72C339.897 670.72 338.417 670.44 336.937 669.88C335.417 669.32 334.137 668.54 333.097 667.54C331.937 666.42 331.037 665.12 330.397 663.64C329.717 662.04 329.377 660.24 329.377 658.24C329.377 656.24 329.737 654.4 330.457 652.72C331.217 650.96 332.217 649.48 333.457 648.28C334.817 647 336.377 646 338.137 645.28C340.057 644.52 342.077 644.14 344.197 644.14C346.517 644.14 348.517 644.48 350.197 645.16C351.877 645.84 353.377 646.84 354.697 648.16C355.977 649.4 356.937 650.9 357.577 652.66C358.257 654.46 358.597 656.38 358.597 658.42C358.597 659.78 358.477 661.06 358.237 662.26C357.957 663.66 357.637 664.82 357.277 665.74C356.917 666.7 356.397 667.78 355.717 668.98C355.237 669.82 354.577 670.88 353.737 672.16L343.777 686.32C343.457 686.76 342.957 687.16 342.277 687.52C341.677 687.84 340.897 688 339.937 688H333.157L346.657 671.2C346.897 670.92 347.217 670.5 347.617 669.94L348.457 668.74C347.417 669.42 346.317 669.9 345.157 670.18C343.957 670.54 342.697 670.72 341.377 670.72ZM351.457 657.7C351.457 656.42 351.297 655.36 350.977 654.52C350.657 653.68 350.137 652.9 349.417 652.18C348.777 651.54 347.997 651.04 347.077 650.68C346.277 650.36 345.277 650.2 344.077 650.2C342.917 650.2 341.897 650.38 341.017 650.74C340.097 651.1 339.337 651.62 338.737 652.3C338.137 652.94 337.657 653.72 337.297 654.64C336.977 655.44 336.817 656.44 336.817 657.64C336.817 660.08 337.437 661.92 338.677 663.16C339.957 664.44 341.737 665.08 344.017 665.08C345.057 665.08 346.117 664.88 347.197 664.48C348.037 664.16 348.817 663.64 349.537 662.92C350.137 662.32 350.617 661.56 350.977 660.64C351.297 659.84 351.457 658.86 351.457 657.7Z" fill="#3FBDF1"/>
<path d="M215.496 688.48C213.296 688.48 211.256 688.18 209.376 687.58C207.576 686.98 205.976 686.12 204.576 685C203.256 683.92 202.236 682.6 201.516 681.04C200.796 679.48 200.436 677.74 200.436 675.82C200.436 673.26 201.056 671.1 202.296 669.34C203.536 667.54 205.496 666.22 208.176 665.38C206.096 664.5 204.516 663.24 203.436 661.6C202.396 660.04 201.876 658.1 201.876 655.78C201.876 654.18 202.216 652.64 202.896 651.16C203.496 649.84 204.416 648.62 205.656 647.5C206.776 646.5 208.216 645.68 209.976 645.04C211.656 644.44 213.496 644.14 215.496 644.14C217.496 644.14 219.336 644.44 221.016 645.04C222.776 645.68 224.216 646.5 225.336 647.5C226.576 648.62 227.496 649.84 228.096 651.16C228.776 652.64 229.116 654.18 229.116 655.78C229.116 658.02 228.576 659.96 227.496 661.6C226.376 663.24 224.816 664.5 222.816 665.38C225.496 666.22 227.456 667.54 228.696 669.34C229.936 671.1 230.556 673.26 230.556 675.82C230.556 677.74 230.196 679.48 229.476 681.04C228.756 682.6 227.736 683.92 226.416 685C225.016 686.12 223.416 686.98 221.616 687.58C219.776 688.18 217.736 688.48 215.496 688.48ZM215.496 662.68C216.616 662.68 217.636 662.48 218.556 662.08C219.356 661.76 220.016 661.26 220.536 660.58C221.056 659.94 221.396 659.22 221.556 658.42C221.796 657.58 221.916 656.74 221.916 655.9C221.916 655.18 221.776 654.4 221.496 653.56C221.256 652.8 220.876 652.14 220.356 651.58C219.876 651.06 219.216 650.6 218.376 650.2C217.696 649.88 216.736 649.72 215.496 649.72C214.296 649.72 213.356 649.88 212.676 650.2C211.756 650.6 211.076 651.06 210.636 651.58C210.116 652.14 209.736 652.8 209.496 653.56C209.256 654.28 209.136 655.06 209.136 655.9C209.136 656.86 209.236 657.7 209.436 658.42C209.676 659.26 210.036 659.98 210.516 660.58C211.036 661.26 211.696 661.76 212.496 662.08C213.416 662.48 214.416 662.68 215.496 662.68ZM215.496 682.72C216.776 682.72 217.856 682.54 218.736 682.18C219.616 681.82 220.376 681.32 221.016 680.68C221.656 680.08 222.136 679.36 222.456 678.52C222.776 677.64 222.936 676.7 222.936 675.7C222.936 673.3 222.276 671.5 220.956 670.3C219.596 669.06 217.776 668.44 215.496 668.44C213.216 668.44 211.396 669.06 210.036 670.3C208.716 671.5 208.056 673.3 208.056 675.7C208.056 676.7 208.216 677.64 208.536 678.52C208.816 679.28 209.296 680 209.976 680.68C210.616 681.32 211.376 681.82 212.256 682.18C213.176 682.54 214.256 682.72 215.496 682.72Z" fill="#3FBDF1"/>
<path d="M231.391 765.28C231.391 769.24 230.991 772.54 230.191 775.18C229.311 778.1 228.191 780.4 226.831 782.08C225.391 783.88 223.691 785.24 221.731 786.16C219.851 787.04 217.751 787.48 215.431 787.48C213.111 787.48 211.011 787.04 209.131 786.16C207.291 785.32 205.631 783.96 204.151 782.08C202.711 780.28 201.591 777.98 200.791 775.18C199.991 772.34 199.591 769.04 199.591 765.28C199.591 761.56 199.991 758.28 200.791 755.44C201.591 752.64 202.711 750.34 204.151 748.54C205.631 746.66 207.291 745.3 209.131 744.46C211.011 743.58 213.111 743.14 215.431 743.14C217.751 743.14 219.851 743.58 221.731 744.46C223.691 745.38 225.391 746.74 226.831 748.54C228.191 750.22 229.311 752.52 230.191 755.44C230.991 758.08 231.391 761.36 231.391 765.28ZM223.711 765.28C223.711 761.96 223.491 759.36 223.051 757.48C222.531 755.32 221.911 753.68 221.191 752.56C220.391 751.32 219.511 750.48 218.551 750.04C217.551 749.56 216.511 749.32 215.431 749.32C214.351 749.32 213.331 749.56 212.371 750.04C211.371 750.52 210.491 751.36 209.731 752.56C209.051 753.6 208.451 755.24 207.931 757.48C207.451 759.52 207.211 762.12 207.211 765.28C207.211 768.44 207.451 771.04 207.931 773.08C208.451 775.32 209.051 776.96 209.731 778C210.531 779.24 211.411 780.1 212.371 780.58C213.411 781.1 214.431 781.36 215.431 781.36C216.391 781.36 217.431 781.1 218.551 780.58C219.511 780.14 220.391 779.3 221.191 778.06C221.911 776.94 222.531 775.28 223.051 773.08C223.491 771.2 223.711 768.6 223.711 765.28Z" fill="#3FBDF1"/>
<path d="M228.381 548.8C228.381 549.8 228.041 550.64 227.361 551.32C226.681 552 225.581 552.34 224.061 552.34H212.061L210.501 561.4C212.381 561 214.181 560.8 215.901 560.8C218.101 560.8 220.101 561.14 221.901 561.82C223.581 562.46 225.041 563.4 226.281 564.64C227.481 565.84 228.381 567.24 228.981 568.84C229.541 570.36 229.821 572.1 229.821 574.06C229.821 576.42 229.421 578.52 228.621 580.36C227.741 582.36 226.621 583.98 225.261 585.22C223.741 586.62 222.041 587.66 220.161 588.34C218.081 589.1 215.941 589.48 213.741 589.48C212.261 589.48 210.961 589.34 209.841 589.06C208.521 588.74 207.381 588.36 206.421 587.92C205.261 587.4 204.261 586.86 203.421 586.3C202.661 585.82 201.861 585.18 201.021 584.38L203.301 581.2C203.781 580.52 204.421 580.18 205.221 580.18C205.701 580.18 206.201 580.34 206.721 580.66C207.801 581.34 208.381 581.7 208.461 581.74C209.141 582.1 209.941 582.44 210.861 582.76C211.821 583.08 212.901 583.24 214.101 583.24C215.541 583.24 216.741 583.04 217.701 582.64C218.701 582.24 219.581 581.62 220.341 580.78C220.981 580.06 221.501 579.12 221.901 577.96C222.221 577 222.381 575.8 222.381 574.36C222.381 572 221.701 570.16 220.341 568.84C218.981 567.52 216.961 566.86 214.281 566.86C212.121 566.86 210.021 567.24 207.981 568L203.361 566.68L206.961 545.62H228.381V548.8Z" fill="#3FBDF1"/>
<path d="M200.26 490V487.54C200.26 487.1 200.36 486.58 200.56 485.98C200.8 485.42 201.14 484.92 201.58 484.48L214.72 471.28L215.8 470.2C217.04 468.84 217.68 468.14 217.72 468.1C218.56 467.06 219.28 466.04 219.88 465.04C220.52 463.96 220.98 462.94 221.26 461.98C221.54 461.02 221.68 459.94 221.68 458.74C221.68 457.62 221.54 456.7 221.26 455.98C220.98 455.26 220.54 454.6 219.94 454C219.38 453.44 218.72 453.04 217.96 452.8C217.04 452.52 216.18 452.38 215.38 452.38C213.62 452.38 212.16 452.84 211 453.76C209.88 454.64 209.08 455.84 208.6 457.36C208.36 458.12 208.02 458.66 207.58 458.98C207.14 459.34 206.58 459.52 205.9 459.52C205.74 459.52 205.42 459.48 204.94 459.4L201.04 458.74C201.32 456.66 201.9 454.82 202.78 453.22C203.62 451.66 204.68 450.36 205.96 449.32C207.16 448.28 208.64 447.48 210.4 446.92C212 446.4 213.8 446.14 215.8 446.14C217.8 446.14 219.64 446.44 221.32 447.04C222.88 447.6 224.28 448.44 225.52 449.56C226.68 450.6 227.6 451.9 228.28 453.46C228.96 455.02 229.3 456.7 229.3 458.5C229.3 460.06 229.06 461.54 228.58 462.94C228.1 464.3 227.48 465.6 226.72 466.84C225.92 468.16 225 469.36 223.96 470.44L220.6 473.98L210.82 484C211.38 483.84 212.32 483.62 213.64 483.34C214.84 483.18 215.72 483.1 216.28 483.1H225.88C226 481.42 226.08 480.52 226.12 480.4C226.32 479.68 226.78 479.32 227.5 479.32H230.68V490H200.26Z" fill="#3FBDF1"/>
<path d="M102.5 576.94C102.5 577.26 102.36 577.6 102.08 577.96C101.84 578.28 101.48 578.44 101 578.44H97.0405V589H90.5605V578.44H72.2605C71.7805 578.44 71.3405 578.28 70.9405 577.96C70.5805 577.68 70.3405 577.28 70.2205 576.76L69.4405 573.04L90.0205 545.56H97.0405V572.68H102.5V576.94ZM90.5605 558.46C90.5605 557.54 90.5805 556.84 90.6205 556.36C90.6205 556.12 90.6205 555.82 90.6205 555.46C90.6605 555.06 90.7205 554.6 90.8005 554.08L77.3605 572.68H90.5605V558.46Z" fill="#3FBDF1"/>
<path d="M98.318 485.02C99.118 485.22 99.518 485.72 99.518 486.52V490H75.518V486.52C75.518 485.72 75.918 485.22 76.718 485.02C77.438 484.9 79.958 484.68 84.278 484.36V459.16C84.278 458.52 84.318 457.48 84.398 456.04L78.158 461.26C77.918 461.5 77.658 461.66 77.378 461.74C77.058 461.82 76.778 461.86 76.538 461.86C76.098 461.86 75.738 461.78 75.458 461.62C75.178 461.46 74.938 461.26 74.738 461.02L72.398 457.84L85.598 446.56H91.718V484.42C95.358 484.7 97.558 484.9 98.318 485.02Z" fill="#3FBDF1"/>
<path d="M346.87 561.88C348.47 561.88 350.07 562.16 351.67 562.72C353.11 563.24 354.47 564.06 355.75 565.18C356.95 566.26 357.91 567.6 358.63 569.2C359.35 570.8 359.71 572.7 359.71 574.9C359.71 576.78 359.33 578.68 358.57 580.6C357.89 582.28 356.85 583.82 355.45 585.22C354.17 586.5 352.55 587.54 350.59 588.34C348.71 589.1 346.63 589.48 344.35 589.48C342.07 589.48 339.99 589.12 338.11 588.4C336.43 587.76 334.87 586.72 333.43 585.28C332.19 584.04 331.19 582.44 330.43 580.48C329.71 578.6 329.35 576.52 329.35 574.24C329.35 572.2 329.77 570.1 330.61 567.94C331.37 565.98 332.67 563.76 334.51 561.28L344.83 547.36C345.15 546.92 345.67 546.52 346.39 546.16C347.11 545.8 347.91 545.62 348.79 545.62H355.39L342.55 561.4L341.71 562.36L340.99 563.26C341.91 562.78 342.81 562.44 343.69 562.24C344.65 562 345.71 561.88 346.87 561.88ZM336.49 575.38C336.49 576.74 336.65 577.84 336.97 578.68C337.33 579.68 337.83 580.52 338.47 581.2C339.15 581.92 339.95 582.46 340.87 582.82C341.95 583.22 343.05 583.42 344.17 583.42C345.45 583.42 346.55 583.22 347.47 582.82C348.43 582.42 349.27 581.86 349.99 581.14C350.67 580.46 351.23 579.62 351.67 578.62C352.07 577.7 352.27 576.64 352.27 575.44C352.27 574.28 352.07 573.16 351.67 572.08C351.31 571.12 350.77 570.28 350.05 569.56C349.41 568.92 348.57 568.4 347.53 568C346.57 567.64 345.49 567.46 344.29 567.46C343.09 567.46 342.03 567.66 341.11 568.06C340.19 568.46 339.37 569.02 338.65 569.74C337.93 570.46 337.39 571.3 337.03 572.26C336.67 573.22 336.49 574.26 336.49 575.38Z" fill="#3FBDF1"/>
<path d="M344.984 446.14C347.064 446.14 348.864 446.42 350.384 446.98C352.024 447.58 353.404 448.38 354.524 449.38C355.724 450.46 356.604 451.64 357.164 452.92C357.764 454.28 358.064 455.76 358.064 457.36C358.064 458.6 357.904 459.8 357.584 460.96C357.264 462.04 356.824 462.96 356.264 463.72C355.664 464.48 354.944 465.14 354.104 465.7C353.224 466.26 352.244 466.72 351.164 467.08C353.884 467.96 355.844 469.2 357.044 470.8C358.324 472.52 358.964 474.64 358.964 477.16C358.964 479.24 358.564 481.14 357.764 482.86C357.004 484.5 355.924 485.9 354.524 487.06C353.164 488.18 351.584 489.04 349.784 489.64C348.104 490.2 346.204 490.48 344.084 490.48C341.924 490.48 340.024 490.24 338.384 489.76C336.904 489.32 335.484 488.56 334.124 487.48C333.004 486.56 332.004 485.36 331.124 483.88C330.284 482.4 329.564 480.76 328.964 478.96L332.204 477.64C332.764 477.4 333.324 477.28 333.884 477.28C334.444 477.28 334.924 477.4 335.324 477.64C335.724 477.88 336.044 478.2 336.284 478.6C336.684 479.36 337.064 480.04 337.424 480.64C337.824 481.24 338.344 481.84 338.984 482.44C339.584 482.96 340.284 483.4 341.084 483.76C341.844 484.08 342.804 484.24 343.964 484.24C345.284 484.24 346.404 484.04 347.324 483.64C348.284 483.2 349.064 482.66 349.664 482.02C350.304 481.3 350.764 480.56 351.044 479.8C351.364 478.92 351.524 478.12 351.524 477.4C351.524 476.32 351.404 475.36 351.164 474.52C350.884 473.6 350.444 472.88 349.844 472.36C349.124 471.76 348.104 471.28 346.784 470.92C345.624 470.6 343.884 470.44 341.564 470.44V465.16C343.284 465.16 344.784 465 346.064 464.68C347.104 464.4 348.064 463.94 348.944 463.3C349.664 462.7 350.164 462.02 350.444 461.26C350.684 460.62 350.804 459.74 350.804 458.62C350.804 456.58 350.244 455.02 349.124 453.94C348.044 452.9 346.524 452.38 344.564 452.38C342.724 452.38 341.264 452.84 340.184 453.76C339.024 454.76 338.204 455.96 337.724 457.36C337.484 458.08 337.164 458.62 336.764 458.98C336.324 459.34 335.764 459.52 335.084 459.52C334.924 459.52 334.604 459.48 334.124 459.4L330.164 458.68C330.444 456.76 331.044 454.94 331.964 453.22C332.804 451.66 333.864 450.36 335.144 449.32C336.464 448.24 337.944 447.44 339.584 446.92C341.184 446.4 342.984 446.14 344.984 446.14Z" fill="#3FBDF1"/>
<path d="M71.3547 880.756C71.3547 881.164 71.1508 881.416 70.7431 881.514L70.5963 881.539C70.5474 881.539 70.4903 881.547 70.425 881.563C70.3761 881.579 70.3109 881.596 70.2293 881.612L69.5199 881.734V897H67.8074C67.579 897 67.367 896.959 67.1713 896.878C67.0082 896.812 66.837 896.666 66.6576 896.437L57.4102 884.67C57.4428 885.029 57.4591 885.282 57.4591 885.429L57.4836 886.138V894.578L59.0737 894.798C59.4814 894.896 59.6853 895.149 59.6853 895.557V897H52.7375V895.557C52.7375 895.149 52.9414 894.896 53.3491 894.798L53.4959 894.774L53.8629 894.7L54.5968 894.578V881.734L53.8629 881.612C53.7813 881.596 53.7079 881.579 53.6427 881.563C53.5938 881.547 53.5448 881.539 53.4959 881.539L53.3491 881.514C52.9414 881.416 52.7375 881.164 52.7375 880.756V879.312H56.3093L56.6762 879.337C56.7904 879.337 56.8801 879.361 56.9453 879.41C57.0106 879.427 57.084 879.476 57.1655 879.557L57.4102 879.851L66.7065 891.667L66.6331 890.835C66.6168 890.656 66.6086 890.395 66.6086 890.052V881.734L65.0185 881.514C64.6107 881.416 64.4069 881.164 64.4069 880.756V879.312H71.3547V880.756ZM77.4927 880.78C77.4927 881.009 77.4356 881.253 77.3214 881.514C77.2235 881.743 77.0849 881.946 76.9055 882.126C76.7098 882.322 76.5059 882.46 76.2939 882.542C76.0493 882.64 75.7965 882.689 75.5355 882.689C75.2746 882.689 75.0218 882.64 74.7771 882.542C74.5814 882.46 74.3857 882.322 74.19 882.126C74.0106 881.946 73.872 881.743 73.7741 881.514C73.6763 881.286 73.6273 881.041 73.6273 880.78C73.6273 880.519 73.6763 880.267 73.7741 880.022C73.8557 879.81 73.9943 879.606 74.19 879.41C74.3694 879.231 74.5651 879.1 74.7771 879.019C75.0707 878.905 75.3235 878.848 75.5355 878.848C75.7476 878.848 76.0003 878.905 76.2939 879.019C76.5386 879.117 76.7424 879.247 76.9055 879.41C77.1012 879.606 77.2399 879.81 77.3214 880.022C77.4356 880.299 77.4927 880.552 77.4927 880.78ZM78.2755 894.798C78.6832 894.896 78.8871 895.149 78.8871 895.557V897H72.1595V895.557C72.1595 895.149 72.3634 894.896 72.7711 894.798L72.9179 894.774L73.2848 894.7L74.0188 894.578V886.872L73.2848 886.75C73.2033 886.733 73.1299 886.717 73.0647 886.701C73.0157 886.684 72.9668 886.676 72.9179 886.676L72.7711 886.652C72.3634 886.554 72.1595 886.301 72.1595 885.893V884.45H77.0278V894.578L77.7618 894.7C77.8433 894.717 77.9085 894.733 77.9575 894.749C78.0227 894.766 78.0798 894.774 78.1287 894.774L78.2755 894.798ZM85.7021 884.254C86.5012 884.254 87.227 884.377 87.8794 884.621C88.4991 884.85 89.0699 885.225 89.5918 885.747C90.0648 886.22 90.4399 886.815 90.7172 887.532C90.9944 888.266 91.1331 889.065 91.1331 889.93C91.1331 890.126 91.1168 890.321 91.0841 890.517C91.0515 890.696 91.0189 890.811 90.9863 890.86C90.9537 890.941 90.8803 891.006 90.7661 891.055C90.7009 891.088 90.5867 891.104 90.4236 891.104H82.6685C82.7664 892.393 83.117 893.339 83.7205 893.942C84.3239 894.545 85.1231 894.847 86.1179 894.847C86.6235 894.847 87.0394 894.79 87.3656 894.676C87.7244 894.562 88.0343 894.431 88.2952 894.284C88.4094 894.219 88.5236 894.162 88.6377 894.113C88.7682 894.048 88.8905 893.983 89.0047 893.918C89.1841 893.803 89.3717 893.746 89.5674 893.746C89.6979 893.746 89.812 893.771 89.9099 893.82C89.9914 893.852 90.0648 893.918 90.1301 894.015L91.0108 895.116C90.6356 895.54 90.2605 895.875 89.8854 896.119C89.4451 896.397 89.0129 896.609 88.5888 896.755C88.1811 896.886 87.7163 896.992 87.1944 897.073C86.7866 897.139 86.33 897.171 85.8244 897.171C84.9274 897.171 84.1201 897.033 83.4024 896.755C82.6848 896.478 82.0325 896.046 81.4453 895.459C80.8908 894.904 80.4504 894.203 80.1243 893.355C79.8144 892.539 79.6594 891.569 79.6594 890.444C79.6594 889.628 79.7981 888.829 80.0753 888.046C80.3363 887.312 80.7359 886.652 81.2741 886.065C81.7797 885.51 82.4076 885.07 83.1578 884.744C83.908 884.417 84.7561 884.254 85.7021 884.254ZM85.751 886.407C84.8866 886.407 84.2016 886.66 83.696 887.165C83.2067 887.655 82.8887 888.356 82.7419 889.269H88.4176C88.4176 888.927 88.3605 888.56 88.2463 888.168C88.1485 887.859 87.9854 887.557 87.757 887.263C87.545 887.002 87.2678 886.798 86.9253 886.652C86.5501 886.489 86.1587 886.407 85.751 886.407ZM110.545 887.899C110.773 888.731 110.887 889.636 110.887 890.615C110.887 891.496 110.757 892.368 110.496 893.233C110.267 894.015 109.908 894.709 109.419 895.312C108.979 895.866 108.416 896.323 107.731 896.682C107.095 897.008 106.345 897.171 105.48 897.171C104.763 897.171 104.168 897.065 103.695 896.853C103.156 896.609 102.708 896.307 102.349 895.948V898.664C102.512 898.696 102.651 898.721 102.765 898.737C102.895 898.77 103.001 898.794 103.083 898.81C103.344 898.843 103.466 898.859 103.45 898.859L103.597 898.884C104.004 898.982 104.208 899.243 104.208 899.667V901.085H97.4807V899.667C97.4807 899.243 97.6846 898.982 98.0923 898.884L98.2391 898.859L98.6061 898.81L99.34 898.664V886.872L98.6061 886.75C98.5245 886.733 98.4511 886.717 98.3859 886.701C98.337 886.684 98.288 886.676 98.2391 886.676L98.0923 886.652C97.6846 886.554 97.4807 886.301 97.4807 885.893V884.45H101.175C101.371 884.45 101.542 884.499 101.689 884.597C101.819 884.678 101.909 884.817 101.958 885.013L102.202 886.162C102.692 885.608 103.271 885.143 103.939 884.768C104.592 884.409 105.358 884.23 106.239 884.23C106.956 884.23 107.584 884.368 108.123 884.646C108.693 884.939 109.183 885.355 109.59 885.893C109.998 886.415 110.316 887.084 110.545 887.899ZM107.56 892.523C107.69 892.05 107.756 891.422 107.756 890.639C107.756 889.856 107.699 889.229 107.584 888.756C107.47 888.266 107.299 887.859 107.071 887.532C106.842 887.206 106.573 886.97 106.263 886.823C105.953 886.676 105.603 886.603 105.211 886.603C104.559 886.603 104.021 886.733 103.597 886.994C103.14 887.271 102.724 887.647 102.349 888.12V893.746C102.675 894.154 103.05 894.448 103.474 894.627C103.85 894.79 104.282 894.872 104.771 894.872C105.26 894.872 105.676 894.79 106.019 894.627C106.345 894.48 106.655 894.219 106.948 893.844C107.226 893.469 107.429 893.029 107.56 892.523ZM122.976 894.774C123.384 894.872 123.587 895.124 123.587 895.532V896.976H120.701C120.391 896.976 120.163 896.935 120.016 896.853C119.853 896.788 119.73 896.609 119.649 896.315L119.38 895.434C119.053 895.744 118.744 895.997 118.45 896.193C118.222 896.356 117.904 896.535 117.496 896.731C117.202 896.861 116.86 896.967 116.468 897.049C116.061 897.13 115.653 897.171 115.245 897.171C114.707 897.171 114.218 897.098 113.777 896.951C113.304 896.788 112.921 896.576 112.628 896.315C112.285 896.005 112.032 895.646 111.869 895.239C111.69 894.798 111.6 894.309 111.6 893.771C111.6 893.281 111.722 892.808 111.967 892.352C112.212 891.879 112.628 891.463 113.215 891.104C113.834 890.713 114.601 890.403 115.514 890.175C116.477 889.93 117.675 889.808 119.111 889.808V889.074C119.111 888.258 118.931 887.63 118.572 887.19C118.23 886.782 117.716 886.578 117.031 886.578C116.509 886.578 116.101 886.635 115.808 886.75C115.433 886.896 115.147 887.027 114.952 887.141L114.291 887.508C114.112 887.622 113.892 887.679 113.631 887.679C113.419 887.679 113.239 887.63 113.092 887.532C112.995 887.467 112.88 887.337 112.75 887.141L112.187 886.187C113.655 884.85 115.392 884.181 117.398 884.181C118.132 884.181 118.793 884.303 119.38 884.548C119.951 884.792 120.432 885.127 120.823 885.551C121.263 886.056 121.573 886.57 121.753 887.092C121.948 887.679 122.046 888.332 122.046 889.049V894.603L122.707 894.725L122.976 894.774ZM119.111 891.642C118.197 891.642 117.463 891.699 116.909 891.814C116.305 891.944 115.824 892.091 115.465 892.254C115.107 892.417 114.854 892.613 114.707 892.841C114.56 893.053 114.487 893.306 114.487 893.599C114.487 894.154 114.642 894.537 114.952 894.749C115.278 894.978 115.686 895.092 116.175 895.092C116.485 895.092 116.77 895.067 117.031 895.018C117.308 894.969 117.561 894.88 117.79 894.749C118.083 894.586 118.303 894.448 118.45 894.333C118.678 894.154 118.899 893.958 119.111 893.746V891.642ZM145.226 894.798C145.633 894.896 145.837 895.149 145.837 895.557V897H140.969V889.025C140.969 888.209 140.798 887.606 140.455 887.214C140.113 886.807 139.599 886.603 138.914 886.603C138.637 886.603 138.343 886.66 138.033 886.774C137.772 886.872 137.544 887.019 137.348 887.214C137.185 887.377 137.03 887.63 136.883 887.973C136.769 888.25 136.712 888.601 136.712 889.025V894.578L137.422 894.7L137.788 894.774L137.935 894.798C138.343 894.896 138.547 895.149 138.547 895.557V897H133.679V889.025C133.679 888.193 133.507 887.581 133.165 887.19C132.822 886.798 132.325 886.603 131.672 886.603C131.232 886.603 130.824 886.709 130.449 886.921C130.107 887.117 129.756 887.418 129.397 887.826V894.578L130.107 894.7L130.474 894.774L130.621 894.798C131.028 894.896 131.232 895.149 131.232 895.557V897H124.529V895.557C124.529 895.149 124.733 894.896 125.141 894.798L125.287 894.774C125.336 894.774 125.385 894.766 125.434 894.749C125.499 894.733 125.573 894.717 125.654 894.7L126.364 894.578V886.872L125.654 886.75C125.573 886.733 125.499 886.717 125.434 886.701C125.385 886.684 125.336 886.676 125.287 886.676L125.141 886.652C124.717 886.554 124.505 886.301 124.505 885.893V884.45H128.223C128.598 884.45 128.851 884.638 128.981 885.013L129.177 885.942C129.471 885.616 129.699 885.388 129.862 885.257C130.09 885.078 130.351 884.907 130.645 884.744C130.906 884.597 131.2 884.474 131.526 884.377C131.787 884.295 132.129 884.254 132.553 884.254C133.369 884.254 134.021 884.466 134.51 884.89C135.032 885.347 135.415 885.918 135.66 886.603C135.856 886.179 136.1 885.82 136.394 885.526C136.655 885.265 136.973 885.029 137.348 884.817C137.625 884.654 138.001 884.515 138.473 884.401C138.865 884.303 139.264 884.254 139.672 884.254C140.374 884.254 140.985 884.36 141.507 884.572C142.078 884.801 142.535 885.11 142.877 885.502C143.236 885.91 143.513 886.407 143.709 886.994C143.904 887.581 144.002 888.258 144.002 889.025V894.578L144.712 894.7C144.793 894.717 144.859 894.733 144.908 894.749C144.973 894.766 145.03 894.774 145.079 894.774L145.226 894.798ZM152.079 880.78C152.079 881.009 152.022 881.253 151.908 881.514C151.81 881.743 151.672 881.946 151.492 882.126C151.296 882.322 151.093 882.46 150.881 882.542C150.636 882.64 150.383 882.689 150.122 882.689C149.861 882.689 149.608 882.64 149.364 882.542C149.168 882.46 148.972 882.322 148.777 882.126C148.597 881.946 148.459 881.743 148.361 881.514C148.263 881.286 148.214 881.041 148.214 880.78C148.214 880.519 148.263 880.267 148.361 880.022C148.442 879.81 148.581 879.606 148.777 879.41C148.956 879.231 149.152 879.1 149.364 879.019C149.657 878.905 149.91 878.848 150.122 878.848C150.334 878.848 150.587 878.905 150.881 879.019C151.125 879.117 151.329 879.247 151.492 879.41C151.688 879.606 151.827 879.81 151.908 880.022C152.022 880.299 152.079 880.552 152.079 880.78ZM152.862 894.798C153.27 894.896 153.474 895.149 153.474 895.557V897H146.746V895.557C146.746 895.149 146.95 894.896 147.358 894.798L147.505 894.774L147.872 894.7L148.605 894.578V886.872L147.872 886.75C147.79 886.733 147.717 886.717 147.651 886.701C147.602 886.684 147.553 886.676 147.505 886.676L147.358 886.652C146.95 886.554 146.746 886.301 146.746 885.893V884.45H151.614V894.578L152.348 894.7C152.43 894.717 152.495 894.733 152.544 894.749C152.609 894.766 152.666 894.774 152.715 894.774L152.862 894.798ZM162.515 899.3C162.613 899.3 162.686 899.308 162.735 899.324C162.8 899.357 162.841 899.406 162.857 899.471L163.322 900.596C163.061 900.759 162.727 900.906 162.319 901.037C161.96 901.151 161.536 901.208 161.047 901.208C160.248 901.208 159.636 901.045 159.212 900.719C158.772 900.376 158.552 899.944 158.552 899.422C158.552 899.014 158.674 898.615 158.919 898.223C159.147 897.848 159.506 897.497 159.995 897.171C159.163 897.122 158.405 896.943 157.72 896.633C156.986 896.307 156.374 895.875 155.885 895.336C155.396 894.798 154.996 894.105 154.686 893.257C154.393 892.442 154.246 891.504 154.246 890.444C154.246 889.628 154.385 888.829 154.662 888.046C154.923 887.312 155.323 886.652 155.861 886.065C156.366 885.51 156.994 885.07 157.744 884.744C158.495 884.417 159.343 884.254 160.289 884.254C161.088 884.254 161.814 884.377 162.466 884.621C163.086 884.85 163.657 885.225 164.179 885.747C164.651 886.22 165.027 886.815 165.304 887.532C165.581 888.266 165.72 889.074 165.72 889.954C165.72 890.134 165.703 890.321 165.671 890.517C165.638 890.696 165.606 890.811 165.573 890.86C165.54 890.941 165.467 891.006 165.353 891.055C165.288 891.088 165.173 891.104 165.01 891.104H157.255C157.353 892.409 157.696 893.355 158.283 893.942C158.886 894.545 159.685 894.847 160.68 894.847C161.202 894.847 161.626 894.79 161.952 894.676C162.393 894.529 162.703 894.407 162.882 894.309C163.322 894.064 163.559 893.934 163.591 893.918C163.771 893.803 163.958 893.746 164.154 893.746C164.415 893.746 164.603 893.844 164.717 894.04L165.597 895.141C165.108 895.695 164.554 896.119 163.934 896.413C163.265 896.723 162.621 896.935 162.001 897.049C161.708 897.245 161.561 897.342 161.561 897.342C161.365 897.506 161.235 897.636 161.169 897.734C161.039 897.93 160.949 898.076 160.9 898.174C160.835 898.305 160.802 898.468 160.802 898.664C160.802 898.908 160.876 899.104 161.023 899.251C161.153 899.381 161.373 899.446 161.683 899.446C161.732 899.446 161.789 899.446 161.854 899.446C161.92 899.463 161.985 899.463 162.05 899.446L162.295 899.373L162.466 899.3H162.515ZM160.338 886.407C159.473 886.407 158.788 886.66 158.283 887.165C157.777 887.671 157.451 888.372 157.304 889.269H162.98C162.98 888.878 162.931 888.511 162.833 888.168C162.735 887.859 162.572 887.557 162.344 887.263C162.132 887.002 161.854 886.798 161.512 886.652C161.137 886.489 160.745 886.407 160.338 886.407ZM171.665 897.196C170.572 897.196 169.732 896.886 169.145 896.266C168.558 895.646 168.265 894.798 168.265 893.722V886.725H166.992C166.862 886.725 166.723 886.668 166.577 886.554C166.446 886.456 166.381 886.301 166.381 886.089V884.866L168.411 884.548L169.047 881.123C169.064 880.976 169.137 880.854 169.268 880.756C169.398 880.658 169.553 880.609 169.732 880.609H171.298V884.572H174.601V886.725H171.298V893.526C171.298 893.901 171.396 894.203 171.592 894.431C171.787 894.643 172.048 894.749 172.375 894.749C172.603 894.749 172.758 894.733 172.839 894.7L173.157 894.554L173.426 894.407C173.475 894.374 173.541 894.358 173.622 894.358C173.753 894.358 173.834 894.374 173.867 894.407L174.038 894.603L174.943 896.07C174.519 896.413 174.014 896.69 173.426 896.902C172.872 897.098 172.285 897.196 171.665 897.196ZM186.931 894.774C187.339 894.872 187.543 895.124 187.543 895.532V896.976H184.656C184.346 896.976 184.118 896.935 183.971 896.853C183.808 896.788 183.686 896.609 183.604 896.315L183.335 895.434C183.009 895.744 182.699 895.997 182.405 896.193C182.177 896.356 181.859 896.535 181.451 896.731C181.158 896.861 180.815 896.967 180.424 897.049C180.016 897.13 179.608 897.171 179.201 897.171C178.662 897.171 178.173 897.098 177.733 896.951C177.26 896.788 176.876 896.576 176.583 896.315C176.24 896.005 175.988 895.646 175.825 895.239C175.645 894.798 175.555 894.309 175.555 893.771C175.555 893.281 175.678 892.808 175.922 892.352C176.167 891.879 176.583 891.463 177.17 891.104C177.79 890.713 178.556 890.403 179.47 890.175C180.432 889.93 181.631 889.808 183.066 889.808V889.074C183.066 888.258 182.886 887.63 182.528 887.19C182.185 886.782 181.671 886.578 180.986 886.578C180.465 886.578 180.057 886.635 179.763 886.75C179.388 886.896 179.103 887.027 178.907 887.141L178.246 887.508C178.067 887.622 177.847 887.679 177.586 887.679C177.374 887.679 177.195 887.63 177.048 887.532C176.95 887.467 176.836 887.337 176.705 887.141L176.143 886.187C177.61 884.85 179.347 884.181 181.353 884.181C182.087 884.181 182.748 884.303 183.335 884.548C183.906 884.792 184.387 885.127 184.778 885.551C185.219 886.056 185.529 886.57 185.708 887.092C185.904 887.679 186.002 888.332 186.002 889.049V894.603L186.662 894.725L186.931 894.774ZM183.066 891.642C182.153 891.642 181.419 891.699 180.864 891.814C180.261 891.944 179.78 892.091 179.421 892.254C179.062 892.417 178.809 892.613 178.662 892.841C178.516 893.053 178.442 893.306 178.442 893.599C178.442 894.154 178.597 894.537 178.907 894.749C179.233 894.978 179.641 895.092 180.13 895.092C180.44 895.092 180.725 895.067 180.986 895.018C181.264 894.969 181.517 894.88 181.745 894.749C182.038 894.586 182.259 894.448 182.405 894.333C182.634 894.154 182.854 893.958 183.066 893.746V891.642ZM197.242 891.716C197.422 892.107 197.512 892.539 197.512 893.012C197.512 893.599 197.397 894.162 197.169 894.7C196.941 895.206 196.623 895.646 196.215 896.021C195.775 896.413 195.253 896.698 194.649 896.878C194.062 897.09 193.344 897.196 192.496 897.196C191.762 897.196 191.037 897.13 190.319 897C189.618 896.87 189.014 896.706 188.509 896.511V892.963H189.928C190.221 892.963 190.409 893.118 190.49 893.428C190.523 893.608 190.58 894.089 190.662 894.872C191.102 895.002 191.762 895.067 192.643 895.067C192.986 895.067 193.296 895.027 193.573 894.945C193.85 894.847 194.062 894.733 194.209 894.603C194.405 894.439 194.527 894.284 194.576 894.138C194.641 893.958 194.674 893.763 194.674 893.551C194.674 893.257 194.592 893.021 194.429 892.841C194.282 892.678 194.046 892.515 193.72 892.352C193.41 892.205 193.084 892.083 192.741 891.985L191.591 891.618C191.33 891.536 190.955 891.381 190.466 891.153C190.074 890.974 189.74 890.754 189.463 890.493C189.169 890.232 188.941 889.905 188.778 889.514C188.598 889.106 188.509 888.633 188.509 888.095C188.509 887.573 188.607 887.084 188.802 886.627C188.998 886.171 189.3 885.763 189.707 885.404C190.115 885.045 190.613 884.768 191.2 884.572C191.836 884.36 192.513 884.254 193.23 884.254C193.85 884.254 194.396 884.303 194.869 884.401C195.342 884.483 196.019 884.654 196.9 884.915H196.875V888.462H195.481C195.187 888.462 195 888.307 194.918 887.997C194.869 887.785 194.812 887.329 194.747 886.627C194.372 886.513 193.883 886.456 193.279 886.456C192.692 886.456 192.227 886.578 191.885 886.823C191.542 887.068 191.371 887.402 191.371 887.826C191.371 888.071 191.461 888.299 191.64 888.511C191.771 888.658 191.999 888.813 192.325 888.976C192.7 889.155 193.026 889.286 193.304 889.367C193.434 889.4 193.809 889.514 194.429 889.71C194.739 889.808 195.122 889.963 195.579 890.175C195.97 890.354 196.296 890.566 196.557 890.811C196.851 891.055 197.079 891.357 197.242 891.716ZM208.309 897H198.278V895.728C198.278 895.581 198.311 895.418 198.376 895.239C198.458 895.01 198.556 894.831 198.67 894.7L204.688 886.774H200.749C200.684 887.426 200.635 887.834 200.602 887.997C200.521 888.307 200.333 888.462 200.04 888.462H198.621V884.45H208.137V885.698C208.137 885.926 208.105 886.13 208.039 886.309C207.991 886.423 207.893 886.595 207.746 886.823L201.801 894.676H206.18L206.327 893.355C206.409 893.045 206.596 892.89 206.89 892.89H208.309V897ZM228.263 894.798C228.671 894.896 228.875 895.149 228.875 895.557V897H225.67C225.458 897 225.254 896.959 225.058 896.878C224.895 896.812 224.748 896.674 224.618 896.462L221.438 891.691C221.323 891.496 221.201 891.373 221.071 891.324C220.956 891.275 220.769 891.251 220.508 891.251H219.823V894.578L220.557 894.7L220.924 894.774L221.071 894.798C221.478 894.896 221.682 895.149 221.682 895.557V897H214.955V895.557C214.955 895.149 215.158 894.896 215.566 894.798L215.713 894.774C215.762 894.774 215.811 894.766 215.86 894.749C215.925 894.733 215.998 894.717 216.08 894.7L216.814 894.578V881.245L216.08 881.123C215.998 881.107 215.925 881.09 215.86 881.074C215.811 881.058 215.762 881.049 215.713 881.049L215.566 881.025C215.158 880.927 214.955 880.674 214.955 880.267V878.823H219.823V889.22H220.386C220.598 889.22 220.761 889.196 220.875 889.147C220.973 889.114 221.095 889.008 221.242 888.829L222.979 886.701L222.759 886.652C222.351 886.554 222.147 886.301 222.147 885.893V884.45H225.156V884.474C225.221 884.458 225.303 884.45 225.401 884.45H228.092V885.893C228.092 886.301 227.888 886.554 227.48 886.652L227.284 886.676L226.795 886.75L226.135 886.847L224.275 889.098L223.835 889.587C223.672 889.75 223.517 889.873 223.37 889.954C223.566 890.101 223.713 890.24 223.811 890.37C223.859 890.435 223.917 890.509 223.982 890.59C224.047 890.672 224.12 890.778 224.202 890.908L226.722 894.578C227.081 894.643 227.342 894.684 227.505 894.7C227.863 894.733 228.035 894.749 228.018 894.749L228.263 894.798ZM235.931 884.254C236.828 884.254 237.676 884.409 238.475 884.719C239.258 885.029 239.911 885.453 240.433 885.991C240.954 886.529 241.362 887.206 241.656 888.022C241.949 888.821 242.096 889.71 242.096 890.688C242.096 891.667 241.949 892.564 241.656 893.379C241.346 894.211 240.938 894.896 240.433 895.434C239.894 896.005 239.242 896.437 238.475 896.731C237.725 897.024 236.877 897.171 235.931 897.171C234.985 897.171 234.129 897.024 233.362 896.731C232.596 896.437 231.944 896.005 231.405 895.434C230.834 894.847 230.41 894.162 230.133 893.379C229.84 892.564 229.693 891.667 229.693 890.688C229.693 889.71 229.84 888.821 230.133 888.022C230.41 887.271 230.834 886.595 231.405 885.991C231.927 885.453 232.58 885.029 233.362 884.719C234.162 884.409 235.018 884.254 235.931 884.254ZM235.931 894.847C236.975 894.847 237.741 894.497 238.231 893.795C238.736 893.061 238.989 892.034 238.989 890.713C238.989 889.392 238.736 888.364 238.231 887.63C237.741 886.913 236.975 886.554 235.931 886.554C234.887 886.554 234.105 886.913 233.583 887.63C233.061 888.348 232.8 889.384 232.8 890.737C232.8 892.058 233.061 893.078 233.583 893.795C234.088 894.497 234.871 894.847 235.931 894.847ZM252.544 896.951C252.365 896.951 252.202 896.902 252.055 896.804C251.925 896.723 251.835 896.584 251.786 896.388L251.541 895.239C251.052 895.793 250.473 896.258 249.804 896.633C249.152 896.992 248.377 897.171 247.48 897.171C246.779 897.171 246.159 897.033 245.621 896.755C245.05 896.462 244.561 896.046 244.153 895.508C243.745 894.986 243.427 894.317 243.199 893.502C242.971 892.67 242.857 891.757 242.857 890.762C242.857 889.832 242.979 888.968 243.224 888.168C243.452 887.418 243.819 886.725 244.324 886.089C244.765 885.535 245.327 885.078 246.012 884.719C246.665 884.377 247.407 884.205 248.239 884.205C248.94 884.205 249.543 884.319 250.049 884.548C250.587 884.792 251.028 885.086 251.37 885.429V881.245L250.661 881.123C250.579 881.107 250.506 881.09 250.44 881.074C250.392 881.058 250.343 881.049 250.294 881.049L250.147 881.025C249.739 880.927 249.535 880.674 249.535 880.267V878.823H254.404V894.554L255.04 894.651L255.358 894.725L255.504 894.749C255.912 894.847 256.116 895.1 256.116 895.508V896.951H252.544ZM251.395 887.655C251.068 887.247 250.693 886.953 250.269 886.774C249.829 886.595 249.388 886.505 248.948 886.505C248.524 886.505 248.116 886.595 247.725 886.774C247.366 886.937 247.048 887.198 246.771 887.557C246.526 887.899 246.33 888.34 246.184 888.878C246.053 889.351 245.988 889.979 245.988 890.762C245.988 891.545 246.045 892.172 246.159 892.645C246.273 893.135 246.445 893.542 246.673 893.869C246.901 894.211 247.162 894.448 247.456 894.578C247.766 894.725 248.125 894.798 248.532 894.798C249.185 894.798 249.723 894.668 250.147 894.407C250.604 894.13 251.019 893.754 251.395 893.281V887.655ZM270.849 894.798C271.257 894.896 271.461 895.149 271.461 895.557V897H267.767C267.392 897 267.139 896.812 267.009 896.437L266.788 895.434C266.511 895.712 266.242 895.956 265.981 896.168C265.736 896.364 265.443 896.543 265.1 896.706C264.774 896.853 264.432 896.976 264.073 897.073C263.665 897.155 263.282 897.196 262.923 897.196C262.254 897.196 261.643 897.082 261.088 896.853C260.615 896.658 260.175 896.323 259.767 895.85C259.441 895.475 259.172 894.978 258.96 894.358C258.78 893.738 258.691 893.094 258.691 892.425V886.872L257.443 886.652C257.035 886.554 256.831 886.301 256.831 885.893V884.45H261.7V892.425C261.7 893.175 261.879 893.771 262.238 894.211C262.581 894.619 263.111 894.823 263.828 894.823C264.317 894.823 264.807 894.709 265.296 894.48C265.736 894.268 266.169 893.95 266.593 893.526V886.872C266.136 886.79 265.834 886.741 265.687 886.725C265.541 886.692 265.435 886.668 265.369 886.652C264.962 886.554 264.758 886.301 264.758 885.893V884.45H269.626V894.578L270.849 894.798ZM287.64 896.951C287.46 896.951 287.297 896.902 287.15 896.804C287.02 896.723 286.93 896.584 286.881 896.388L286.637 895.239C286.147 895.793 285.568 896.258 284.9 896.633C284.247 896.992 283.473 897.171 282.576 897.171C281.874 897.171 281.255 897.033 280.716 896.755C280.146 896.462 279.656 896.046 279.249 895.508C278.841 894.986 278.523 894.317 278.294 893.502C278.066 892.67 277.952 891.757 277.952 890.762C277.952 889.832 278.074 888.968 278.319 888.168C278.547 887.418 278.914 886.725 279.42 886.089C279.86 885.535 280.423 885.078 281.108 884.719C281.76 884.377 282.502 884.205 283.334 884.205C284.035 884.205 284.639 884.319 285.144 884.548C285.683 884.792 286.123 885.086 286.465 885.429V881.245L285.756 881.123C285.674 881.107 285.601 881.09 285.536 881.074C285.487 881.058 285.438 881.049 285.389 881.049L285.242 881.025C284.835 880.927 284.631 880.674 284.631 880.267V878.823H289.499V894.554L290.135 894.651L290.453 894.725L290.6 894.749C291.008 894.847 291.211 895.1 291.211 895.508V896.951H287.64ZM286.49 887.655C286.164 887.247 285.789 886.953 285.365 886.774C284.924 886.595 284.484 886.505 284.044 886.505C283.619 886.505 283.212 886.595 282.82 886.774C282.462 886.937 282.143 887.198 281.866 887.557C281.622 887.899 281.426 888.34 281.279 888.878C281.149 889.351 281.083 889.979 281.083 890.762C281.083 891.545 281.14 892.172 281.255 892.645C281.369 893.135 281.54 893.542 281.768 893.869C281.997 894.211 282.258 894.448 282.551 894.578C282.861 894.725 283.22 894.798 283.628 894.798C284.28 894.798 284.818 894.668 285.242 894.407C285.699 894.13 286.115 893.754 286.49 893.281V887.655ZM298.214 884.254C299.111 884.254 299.959 884.409 300.758 884.719C301.541 885.029 302.194 885.453 302.716 885.991C303.237 886.529 303.645 887.206 303.939 888.022C304.232 888.821 304.379 889.71 304.379 890.688C304.379 891.667 304.232 892.564 303.939 893.379C303.629 894.211 303.221 894.896 302.716 895.434C302.177 896.005 301.525 896.437 300.758 896.731C300.008 897.024 299.16 897.171 298.214 897.171C297.268 897.171 296.412 897.024 295.645 896.731C294.879 896.437 294.226 896.005 293.688 895.434C293.117 894.847 292.693 894.162 292.416 893.379C292.123 892.564 291.976 891.667 291.976 890.688C291.976 889.71 292.123 888.821 292.416 888.022C292.693 887.271 293.117 886.595 293.688 885.991C294.21 885.453 294.863 885.029 295.645 884.719C296.445 884.409 297.301 884.254 298.214 884.254ZM298.214 894.847C299.258 894.847 300.024 894.497 300.514 893.795C301.019 893.061 301.272 892.034 301.272 890.713C301.272 889.392 301.019 888.364 300.514 887.63C300.024 886.913 299.258 886.554 298.214 886.554C297.17 886.554 296.387 886.913 295.866 887.63C295.344 888.348 295.083 889.384 295.083 890.737C295.083 892.058 295.344 893.078 295.866 893.795C296.371 894.497 297.154 894.847 298.214 894.847ZM314.02 891.716C314.199 892.107 314.289 892.539 314.289 893.012C314.289 893.599 314.175 894.162 313.947 894.7C313.718 895.206 313.4 895.646 312.993 896.021C312.552 896.413 312.03 896.698 311.427 896.878C310.84 897.09 310.122 897.196 309.274 897.196C308.54 897.196 307.814 897.13 307.097 897C306.395 896.87 305.792 896.706 305.286 896.511V892.963H306.705C306.999 892.963 307.186 893.118 307.268 893.428C307.301 893.608 307.358 894.089 307.439 894.872C307.88 895.002 308.54 895.067 309.421 895.067C309.763 895.067 310.073 895.027 310.35 894.945C310.628 894.847 310.84 894.733 310.986 894.603C311.182 894.439 311.304 894.284 311.353 894.138C311.419 893.958 311.451 893.763 311.451 893.551C311.451 893.257 311.37 893.021 311.207 892.841C311.06 892.678 310.823 892.515 310.497 892.352C310.187 892.205 309.861 892.083 309.519 891.985L308.369 891.618C308.108 891.536 307.733 891.381 307.243 891.153C306.852 890.974 306.518 890.754 306.24 890.493C305.947 890.232 305.719 889.905 305.555 889.514C305.376 889.106 305.286 888.633 305.286 888.095C305.286 887.573 305.384 887.084 305.58 886.627C305.776 886.171 306.077 885.763 306.485 885.404C306.893 885.045 307.39 884.768 307.977 884.572C308.613 884.36 309.29 884.254 310.008 884.254C310.628 884.254 311.174 884.303 311.647 884.401C312.12 884.483 312.797 884.654 313.678 884.915H313.653V888.462H312.259C311.965 888.462 311.777 888.307 311.696 887.997C311.647 887.785 311.59 887.329 311.525 886.627C311.15 886.513 310.66 886.456 310.057 886.456C309.47 886.456 309.005 886.578 308.662 886.823C308.32 887.068 308.149 887.402 308.149 887.826C308.149 888.071 308.238 888.299 308.418 888.511C308.548 888.658 308.777 888.813 309.103 888.976C309.478 889.155 309.804 889.286 310.081 889.367C310.212 889.4 310.587 889.514 311.207 889.71C311.517 889.808 311.9 889.963 312.356 890.175C312.748 890.354 313.074 890.566 313.335 890.811C313.629 891.055 313.857 891.357 314.02 891.716ZM320.193 897.196C319.101 897.196 318.261 896.886 317.674 896.266C317.086 895.646 316.793 894.798 316.793 893.722V886.725H315.521C315.39 886.725 315.252 886.668 315.105 886.554C314.974 886.456 314.909 886.301 314.909 886.089V884.866L316.94 884.548L317.576 881.123C317.592 880.976 317.665 880.854 317.796 880.756C317.926 880.658 318.081 880.609 318.261 880.609H319.826V884.572H323.129V886.725H319.826V893.526C319.826 893.901 319.924 894.203 320.12 894.431C320.316 894.643 320.577 894.749 320.903 894.749C321.131 894.749 321.286 894.733 321.368 894.7L321.686 894.554L321.955 894.407C322.004 894.374 322.069 894.358 322.15 894.358C322.281 894.358 322.362 894.374 322.395 894.407L322.566 894.603L323.472 896.07C323.047 896.413 322.542 896.69 321.955 896.902C321.4 897.098 320.813 897.196 320.193 897.196ZM332.401 899.3C332.499 899.3 332.573 899.308 332.622 899.324C332.687 899.357 332.728 899.406 332.744 899.471L333.209 900.596C332.948 900.759 332.614 900.906 332.206 901.037C331.847 901.151 331.423 901.208 330.934 901.208C330.134 901.208 329.523 901.045 329.099 900.719C328.658 900.376 328.438 899.944 328.438 899.422C328.438 899.014 328.561 898.615 328.805 898.223C329.034 897.848 329.392 897.497 329.882 897.171C329.05 897.122 328.292 896.943 327.607 896.633C326.873 896.307 326.261 895.875 325.772 895.336C325.282 894.798 324.883 894.105 324.573 893.257C324.279 892.442 324.133 891.504 324.133 890.444C324.133 889.628 324.271 888.829 324.549 888.046C324.809 887.312 325.209 886.652 325.747 886.065C326.253 885.51 326.881 885.07 327.631 884.744C328.381 884.417 329.229 884.254 330.175 884.254C330.974 884.254 331.7 884.377 332.353 884.621C332.972 884.85 333.543 885.225 334.065 885.747C334.538 886.22 334.913 886.815 335.19 887.532C335.468 888.266 335.606 889.074 335.606 889.954C335.606 890.134 335.59 890.321 335.557 890.517C335.525 890.696 335.492 890.811 335.459 890.86C335.427 890.941 335.353 891.006 335.239 891.055C335.174 891.088 335.06 891.104 334.897 891.104H327.142C327.24 892.409 327.582 893.355 328.169 893.942C328.773 894.545 329.572 894.847 330.567 894.847C331.089 894.847 331.513 894.79 331.839 894.676C332.279 894.529 332.589 894.407 332.768 894.309C333.209 894.064 333.445 893.934 333.478 893.918C333.657 893.803 333.845 893.746 334.041 893.746C334.302 893.746 334.489 893.844 334.603 894.04L335.484 895.141C334.995 895.695 334.44 896.119 333.82 896.413C333.152 896.723 332.508 896.935 331.888 897.049C331.594 897.245 331.447 897.342 331.447 897.342C331.252 897.506 331.121 897.636 331.056 897.734C330.925 897.93 330.836 898.076 330.787 898.174C330.722 898.305 330.689 898.468 330.689 898.664C330.689 898.908 330.762 899.104 330.909 899.251C331.04 899.381 331.26 899.446 331.57 899.446C331.619 899.446 331.676 899.446 331.741 899.446C331.806 899.463 331.871 899.463 331.937 899.446L332.181 899.373L332.353 899.3H332.401ZM330.224 886.407C329.36 886.407 328.675 886.66 328.169 887.165C327.664 887.671 327.337 888.372 327.191 889.269H332.866C332.866 888.878 332.817 888.511 332.72 888.168C332.622 887.859 332.459 887.557 332.23 887.263C332.018 887.002 331.741 886.798 331.398 886.652C331.023 886.489 330.632 886.407 330.224 886.407ZM349.356 887.899C349.584 888.731 349.698 889.636 349.698 890.615C349.698 891.496 349.568 892.368 349.307 893.233C349.078 894.015 348.72 894.709 348.23 895.312C347.79 895.866 347.227 896.323 346.542 896.682C345.906 897.008 345.156 897.171 344.292 897.171C343.574 897.171 342.979 897.065 342.506 896.853C341.968 896.609 341.519 896.307 341.16 895.948V898.664C341.323 898.696 341.462 898.721 341.576 898.737C341.707 898.77 341.813 898.794 341.894 898.81C342.155 898.843 342.277 898.859 342.261 898.859L342.408 898.884C342.816 898.982 343.019 899.243 343.019 899.667V901.085H336.292V899.667C336.292 899.243 336.496 898.982 336.903 898.884L337.05 898.859L337.417 898.81L338.151 898.664V886.872L337.417 886.75C337.336 886.733 337.262 886.717 337.197 886.701C337.148 886.684 337.099 886.676 337.05 886.676L336.903 886.652C336.496 886.554 336.292 886.301 336.292 885.893V884.45H339.986C340.182 884.45 340.353 884.499 340.5 884.597C340.63 884.678 340.72 884.817 340.769 885.013L341.013 886.162C341.503 885.608 342.082 885.143 342.75 884.768C343.403 884.409 344.169 884.23 345.05 884.23C345.768 884.23 346.395 884.368 346.934 884.646C347.505 884.939 347.994 885.355 348.402 885.893C348.809 886.415 349.127 887.084 349.356 887.899ZM346.371 892.523C346.502 892.05 346.567 891.422 346.567 890.639C346.567 889.856 346.51 889.229 346.395 888.756C346.281 888.266 346.11 887.859 345.882 887.532C345.653 887.206 345.384 886.97 345.074 886.823C344.765 886.676 344.414 886.603 344.022 886.603C343.37 886.603 342.832 886.733 342.408 886.994C341.951 887.271 341.535 887.647 341.16 888.12V893.746C341.486 894.154 341.861 894.448 342.286 894.627C342.661 894.79 343.093 894.872 343.582 894.872C344.071 894.872 344.487 894.79 344.83 894.627C345.156 894.48 345.466 894.219 345.759 893.844C346.037 893.469 346.241 893.029 346.371 892.523ZM364.429 894.798C364.837 894.896 365.041 895.149 365.041 895.557V897H361.347C360.972 897 360.719 896.812 360.588 896.437L360.368 895.434C360.091 895.712 359.822 895.956 359.561 896.168C359.316 896.364 359.023 896.543 358.68 896.706C358.354 896.853 358.011 896.976 357.653 897.073C357.245 897.155 356.862 897.196 356.503 897.196C355.834 897.196 355.222 897.082 354.668 896.853C354.195 896.658 353.755 896.323 353.347 895.85C353.021 895.475 352.752 894.978 352.54 894.358C352.36 893.738 352.271 893.094 352.271 892.425V886.872L351.023 886.652C350.615 886.554 350.411 886.301 350.411 885.893V884.45H355.28V892.425C355.28 893.175 355.459 893.771 355.818 894.211C356.16 894.619 356.69 894.823 357.408 894.823C357.897 894.823 358.387 894.709 358.876 894.48C359.316 894.268 359.748 893.95 360.172 893.526V886.872C359.716 886.79 359.414 886.741 359.267 886.725C359.12 886.692 359.014 886.668 358.949 886.652C358.541 886.554 358.338 886.301 358.338 885.893V884.45H363.206V894.578L364.429 894.798ZM365.894 880.903C366.155 880.674 366.457 880.446 366.799 880.218C367.174 879.973 367.533 879.777 367.876 879.631C368.153 879.516 368.569 879.394 369.123 879.264C369.564 879.166 370.053 879.117 370.591 879.117C371.293 879.117 371.937 879.215 372.524 879.41C373.111 879.606 373.608 879.883 374.016 880.242C374.457 880.634 374.783 881.074 374.995 881.563C375.223 882.101 375.337 882.68 375.337 883.3C375.337 883.855 375.239 884.385 375.044 884.89C374.881 885.347 374.66 885.747 374.383 886.089C374.171 886.366 373.869 886.652 373.478 886.945L372.573 887.63C372.312 887.826 372.067 888.038 371.839 888.266C371.643 888.495 371.521 888.731 371.472 888.976L371.178 890.762H369.123L368.903 888.78V888.56C368.903 888.217 368.993 887.908 369.172 887.63C369.368 887.32 369.588 887.068 369.833 886.872C369.996 886.725 370.289 886.505 370.714 886.211C370.844 886.114 371.129 885.869 371.57 885.477C371.896 885.151 372.124 884.866 372.255 884.621C372.434 884.295 372.524 883.904 372.524 883.447C372.524 883.202 372.467 882.941 372.353 882.664C372.271 882.452 372.124 882.256 371.912 882.077C371.733 881.93 371.496 881.8 371.203 881.686C370.942 881.588 370.64 881.539 370.298 881.539C369.89 881.539 369.498 881.596 369.123 881.71C368.846 881.792 368.577 881.906 368.316 882.052L367.753 882.395C367.607 882.493 367.46 882.542 367.313 882.542C367.019 882.542 366.807 882.419 366.677 882.175L365.894 880.903ZM368.194 895.336C368.194 895.075 368.243 894.839 368.341 894.627C368.438 894.399 368.569 894.203 368.732 894.04C368.911 893.86 369.107 893.722 369.319 893.624C369.547 893.526 369.792 893.477 370.053 893.477C370.33 893.477 370.575 893.526 370.787 893.624C371.015 893.722 371.211 893.852 371.374 894.015C371.537 894.178 371.668 894.374 371.765 894.603C371.863 894.815 371.912 895.059 371.912 895.336C371.912 895.597 371.863 895.842 371.765 896.07C371.668 896.299 371.537 896.494 371.374 896.658C371.244 896.788 371.048 896.91 370.787 897.024C370.575 897.122 370.33 897.171 370.053 897.171C369.792 897.171 369.547 897.122 369.319 897.024C369.058 896.91 368.862 896.788 368.732 896.658C368.569 896.494 368.438 896.299 368.341 896.07C368.243 895.842 368.194 895.597 368.194 895.336Z" fill="#3FBDF1"/>
<rect x="118" y="324" width="23" height="23" rx="11.5" fill="#3FBDF1"/>
<rect x="179" y="329" width="13" height="13" rx="6.5" fill="#3FBDF1"/>
<rect x="235" y="329" width="13" height="13" rx="6.5" fill="#3FBDF1"/>
<rect x="291" y="329" width="13" height="13" rx="6.5" fill="#3FBDF1"/>
</g>
<defs>
<clipPath id="clip0_12_290">
<rect width="428" height="926" fill="white"/>
</clipPath>
</defs>
</svg>
