<svg width="428" height="926" viewBox="0 0 428 926" fill="none" xmlns="http://www.w3.org/2000/svg">
<g clip-path="url(#clip0_12_111)">
<rect width="428" height="926" fill="white"/>
<path d="M334.921 -188.468C389.396 -234.522 526.815 -136.552 588.715 -81.8106C505.439 -10.9766 337.297 131.106 330.934 132.764C322.981 134.837 -75.3371 261.483 -111.989 243.65C-148.64 225.818 -70.7738 91.567 -26.7715 71.129C17.2308 50.6909 -60.7152 -40.4522 83.7267 -139.96C228.654 -239.802 266.827 -130.9 334.921 -188.468Z" fill="black"/>
<path d="M167.385 63.4798H174.796C178.016 63.4798 180.889 64.1043 183.415 65.3534C186.218 66.7967 188.161 68.9062 189.244 71.6819C189.854 73.2086 190.16 74.9156 190.16 76.8031C190.16 81.272 188.786 84.922 186.038 87.7532C183.29 90.5844 179.307 92 174.088 92H167.385C165.22 92 163.263 92.0416 161.514 92.1249L161.39 90.9175C162.805 90.6399 163.763 90.3901 164.262 90.168C164.762 89.946 165.04 89.599 165.095 89.1272C165.317 87.4895 165.428 84.5195 165.428 80.2172C165.428 73.2502 165.345 68.9062 165.178 67.1853L165.095 66.3526C165.04 65.853 164.79 65.506 164.346 65.3117C163.902 65.0897 163.013 64.8399 161.681 64.5623L161.806 63.3549C163.555 63.4381 165.414 63.4798 167.385 63.4798ZM169.633 89.5019C171.132 89.835 172.728 90.0015 174.421 90.0015C176.115 90.0015 177.725 89.6684 179.251 89.0023C180.778 88.3083 181.944 87.5034 182.749 86.5874C183.553 85.6437 184.192 84.5334 184.664 83.2566C185.413 81.3691 185.788 79.4261 185.788 77.4276C185.788 69.2948 181.264 65.2285 172.215 65.2285C171.216 65.2285 170.549 65.284 170.216 65.395C169.911 65.506 169.717 65.742 169.633 66.1028C169.328 67.907 169.175 70.9603 169.175 75.2626C169.175 81.952 169.286 86.3792 169.508 88.5443L169.633 89.5019ZM203.298 89.7933C208.405 89.7933 211.611 89.5574 212.916 89.0855C214.276 88.5581 215.233 87.8087 215.788 86.8372C216.094 86.3098 216.371 85.6575 216.621 84.8803L217.745 85.38C217.246 86.9066 216.913 89.1133 216.746 92H194.43L193.43 90.5428L212.083 65.7281C204.755 65.7281 200.356 65.9363 198.884 66.3526C197.441 66.769 196.359 68.1429 195.637 70.4745L194.513 69.9749C194.846 68.0874 195.012 66.0473 195.012 63.8545V63.23C197.288 63.3965 202.562 63.4798 210.834 63.4798H216.33L217.079 64.8537L198.468 89.7933H203.298ZM228.14 66.3526C227.917 67.9903 227.806 70.9603 227.806 75.2626C227.806 82.2296 227.89 86.5596 228.056 88.2528L228.14 89.1272C228.195 89.6268 228.459 89.9876 228.931 90.2097C229.402 90.404 230.318 90.6399 231.679 90.9175L231.554 92.1249C229.805 92.0416 227.904 92 225.85 92C223.796 92 221.894 92.0416 220.146 92.1249L220.021 90.9175C221.436 90.6399 222.394 90.3901 222.893 90.168C223.393 89.946 223.671 89.599 223.726 89.1272C223.948 87.4895 224.059 84.5195 224.059 80.2172C224.059 73.2502 223.976 68.9062 223.809 67.1853L223.726 66.3526C223.671 65.853 223.421 65.506 222.977 65.3117C222.533 65.0897 221.644 64.8399 220.312 64.5623L220.437 63.3549C222.186 63.4381 224.018 63.4798 225.933 63.4798C227.848 63.4798 229.68 63.4381 231.429 63.3549L231.554 64.5623C230.221 64.8399 229.333 65.0897 228.889 65.3117C228.445 65.506 228.195 65.853 228.14 66.3526ZM249.615 64.937C248.005 64.937 246.576 65.2562 245.326 65.8946C244.077 66.533 243.092 67.3241 242.37 68.2678C241.649 69.2116 241.066 70.2802 240.622 71.4738C239.844 73.4723 239.456 75.4152 239.456 77.3027C239.456 79.1902 239.622 80.8972 239.956 82.4239C240.289 83.9227 240.816 85.3106 241.538 86.5874C242.259 87.8642 243.272 88.8635 244.577 89.5851C245.882 90.3068 247.339 90.6677 248.949 90.6677C250.586 90.6677 252.002 90.3901 253.196 89.835C254.389 89.2798 255.347 88.5859 256.068 87.7532C256.818 86.8927 257.442 85.9212 257.942 84.8387C258.83 82.9235 259.302 80.9805 259.358 79.0098C259.358 69.6279 256.11 64.937 249.615 64.937ZM260.232 87.6699C259.066 89.1966 257.484 90.4179 255.486 91.3338C253.487 92.2221 251.169 92.6662 248.532 92.6662C243.98 92.6662 240.594 91.4449 238.373 89.0023C236.181 86.5319 235.084 83.1733 235.084 78.9265C235.084 74.6519 236.25 70.988 238.582 67.9348C239.747 66.4081 241.329 65.2007 243.328 64.3125C245.326 63.3965 247.644 62.9385 250.281 62.9385C254.833 62.9385 258.206 64.1598 260.398 66.6024C262.619 69.045 263.729 72.3897 263.729 76.6365C263.729 80.8834 262.564 84.5611 260.232 87.6699Z" fill="white"/>
<path d="M190.707 98.7936H194.742C196.247 98.7936 197.392 99.1619 198.177 99.8985C198.962 100.635 199.354 101.548 199.354 102.637C199.354 103.373 199.13 104.078 198.681 104.751C198.233 105.407 197.617 105.928 196.832 106.312C198.097 106.6 199.01 107.097 199.57 107.801C200.131 108.506 200.411 109.459 200.411 110.66C200.411 111.861 199.906 112.926 198.898 113.854C197.889 114.783 196.632 115.248 195.126 115.248H190.707C189.458 115.248 188.329 115.272 187.32 115.32L187.248 114.623C188.064 114.463 188.617 114.319 188.905 114.191C189.193 114.063 189.354 113.862 189.386 113.59C189.514 112.645 189.578 110.932 189.578 108.45C189.578 104.43 189.53 101.924 189.434 100.931L189.386 100.451C189.354 100.163 189.209 99.9626 188.953 99.8505C188.697 99.7224 188.185 99.5782 187.416 99.4181L187.488 98.7215C188.497 98.7696 189.57 98.7936 190.707 98.7936ZM197.096 102.637C197.096 100.747 195.879 99.8024 193.445 99.8024C192.869 99.8024 192.492 99.8345 192.316 99.8985C192.156 99.9626 192.044 100.107 191.98 100.331C191.804 101.148 191.716 103.173 191.716 106.408C192.836 106.216 194.03 106.12 195.295 106.12C196.496 105.335 197.096 104.174 197.096 102.637ZM194.406 114.383C195.415 114.383 196.287 114.047 197.024 113.374C197.761 112.701 198.129 111.781 198.129 110.612C198.129 108.29 196.496 107.129 193.229 107.129C192.748 107.129 192.244 107.153 191.716 107.201C191.716 110.355 191.78 112.341 191.908 113.158L191.98 113.614C192.124 114.127 192.933 114.383 194.406 114.383ZM208.577 110.203C207.264 110.235 206.263 110.484 205.575 110.948C204.886 111.412 204.542 111.917 204.542 112.461C204.542 113.006 204.678 113.406 204.95 113.662C205.238 113.902 205.695 114.023 206.319 114.023C206.944 114.023 207.697 113.758 208.577 113.23V110.203ZM210.331 115.464C209.37 115.464 208.809 114.943 208.649 113.902C207.24 114.943 206.023 115.464 204.998 115.464C204.31 115.464 203.725 115.256 203.245 114.839C202.764 114.407 202.524 113.742 202.524 112.846C202.524 111.949 202.997 111.14 203.941 110.419C204.902 109.699 206.447 109.266 208.577 109.122V106.888C208.577 106.44 208.409 106.096 208.073 105.856C207.753 105.615 207.296 105.495 206.704 105.495C206.111 105.495 205.639 105.663 205.287 106C204.934 106.32 204.758 106.736 204.758 107.249C204.758 107.441 204.782 107.657 204.83 107.897L204.302 108.138C203.981 107.961 203.677 107.721 203.389 107.417C203.117 107.113 202.981 106.896 202.981 106.768C202.981 106.624 203.085 106.424 203.293 106.168C203.517 105.896 203.813 105.607 204.182 105.303C204.55 104.999 205.038 104.743 205.647 104.534C206.271 104.31 206.968 104.198 207.737 104.198C208.505 104.198 209.13 104.39 209.61 104.775C210.091 105.143 210.331 105.824 210.331 106.816C210.331 107.793 210.379 109.867 210.475 113.038C210.491 113.806 210.779 114.191 211.34 114.191C211.58 114.191 211.828 114.127 212.084 113.998L212.324 114.623C211.716 115.184 211.051 115.464 210.331 115.464ZM216.721 106.432L216.697 109.747C216.697 111.813 216.761 113.158 216.889 113.782L216.937 114.095C216.953 114.207 217.129 114.319 217.466 114.431C217.818 114.527 218.154 114.591 218.474 114.623L218.402 115.32C217.634 115.272 216.753 115.248 215.76 115.248C214.767 115.248 213.887 115.272 213.118 115.32L213.19 114.623C213.494 114.591 213.814 114.527 214.151 114.431C214.503 114.319 214.687 114.207 214.703 114.095C214.831 113.534 214.895 112.413 214.895 110.732C214.895 108.009 214.831 106.344 214.703 105.735L213.166 105.279L213.118 104.655C214.143 104.655 215.2 104.51 216.289 104.222L216.745 104.438V105.591C218.522 104.663 220.068 104.198 221.381 104.198C222.182 104.198 222.79 104.358 223.206 104.679C223.623 104.999 223.831 105.599 223.831 106.48V109.747C223.831 111.813 223.887 113.158 223.999 113.782L224.071 114.095C224.087 114.207 224.263 114.319 224.6 114.431C224.952 114.527 225.288 114.591 225.609 114.623L225.536 115.32C224.768 115.272 223.887 115.248 222.894 115.248C221.901 115.248 221.021 115.272 220.252 115.32L220.324 114.623C220.628 114.591 220.949 114.527 221.285 114.431C221.637 114.319 221.821 114.207 221.837 114.095C221.965 113.534 222.029 112.085 222.029 109.747V107.417C222.029 106.792 221.845 106.36 221.477 106.12C221.109 105.88 220.484 105.759 219.603 105.759C218.723 105.759 217.762 105.984 216.721 106.432ZM231.723 115.32C230.955 115.272 230.074 115.248 229.081 115.248C228.088 115.248 227.208 115.272 226.439 115.32L226.511 114.623C226.815 114.591 227.136 114.527 227.472 114.431C227.824 114.319 228.008 114.207 228.024 114.095C228.168 113.054 228.24 111.052 228.24 108.089C228.24 103.269 228.192 100.451 228.096 99.6343L228.048 99.2259L226.511 98.7696L226.463 98.145C227.488 98.145 228.545 98.0009 229.634 97.7127L230.09 97.9288C230.058 99.9305 230.042 102.885 230.042 106.792V108.714L233.885 105.832C233.997 105.735 234.053 105.639 234.053 105.543C234.053 105.191 233.573 105.007 232.612 104.991L232.684 104.294C233.677 104.342 234.526 104.366 235.23 104.366C235.935 104.366 236.776 104.342 237.753 104.294L237.825 104.991C236.848 105.135 235.999 105.463 235.278 105.976L232.204 108.258L236.816 114.215C236.976 114.407 237.28 114.527 237.729 114.575C237.825 114.575 237.953 114.583 238.113 114.599C238.273 114.615 238.377 114.623 238.425 114.623L238.353 115.32C237.44 115.32 236.407 115.368 235.254 115.464L230.811 109.266L230.066 109.819C230.114 111.644 230.178 113.07 230.258 114.095C230.274 114.207 230.45 114.319 230.787 114.431C231.139 114.527 231.475 114.591 231.795 114.623L231.723 115.32Z" fill="#3FBDF1"/>
<rect x="71" y="670" width="286" height="75.0396" rx="16.9901" fill="#3FBDF1"/>
<rect x="90.1321" y="769.02" width="247.736" height="65" rx="14.717" fill="#9BDCF8"/>
<path d="M175.987 714.853L176.084 713.851C176.149 712.882 176.192 712.365 176.214 712.3C176.278 711.956 176.505 711.783 176.892 711.783H178.476V717.406H161.156V716.178C161.156 715.855 161.253 715.553 161.446 715.273L174.566 696.79H164.193L164.064 698.632L163.999 699.343C163.935 699.709 163.698 699.892 163.288 699.892H161.737V694.269H178.67V695.433C178.67 695.82 178.562 696.165 178.346 696.467L165.227 714.853H175.987ZM195.001 715.338C195.152 715.359 195.271 715.435 195.357 715.564C195.443 715.672 195.486 715.801 195.486 715.952V717.341H192.126C191.932 717.341 191.705 717.298 191.447 717.212C191.296 717.169 191.188 716.997 191.124 716.695L190.801 715.144L189.508 716.21C189.142 716.512 188.711 716.77 188.216 716.986C187.742 717.201 187.268 717.363 186.794 717.471C186.363 717.578 185.781 717.632 185.049 717.632C184.446 717.632 183.864 717.535 183.304 717.341C182.636 717.104 182.151 716.846 181.85 716.566C181.462 716.221 181.139 715.769 180.88 715.209C180.643 714.713 180.525 714.067 180.525 713.27C180.525 712.58 180.697 711.956 181.042 711.396C181.43 710.771 182.011 710.232 182.787 709.78C183.649 709.284 184.683 708.897 185.889 708.617C187.139 708.337 188.711 708.197 190.607 708.197V706.936C190.607 705.665 190.327 704.696 189.767 704.028C189.207 703.36 188.399 703.026 187.343 703.026C186.654 703.026 186.061 703.123 185.566 703.317C185.006 703.533 184.597 703.727 184.338 703.899C184.209 703.985 184.058 704.082 183.886 704.19C183.735 704.276 183.573 704.373 183.401 704.48C183.164 704.653 182.916 704.739 182.658 704.739C182.421 704.739 182.248 704.696 182.141 704.61C182.011 704.502 181.904 704.373 181.818 704.222L181.301 703.317C182.141 702.499 183.11 701.852 184.209 701.378C185.2 700.948 186.363 700.732 187.699 700.732C188.668 700.732 189.487 700.883 190.154 701.185C190.887 701.508 191.479 701.917 191.932 702.412C192.406 702.908 192.772 703.554 193.03 704.351C193.267 705.062 193.386 705.902 193.386 706.872V715.047C194.42 715.262 194.958 715.381 195.001 715.402V715.338ZM190.542 710.038C189.142 710.038 188.022 710.114 187.182 710.265C186.363 710.415 185.609 710.642 184.92 710.943C184.316 711.223 183.886 711.546 183.627 711.913C183.369 712.3 183.239 712.71 183.239 713.141C183.239 713.485 183.315 713.851 183.466 714.239C183.595 714.562 183.789 714.821 184.047 715.015C184.306 715.209 184.586 715.349 184.887 715.435C185.254 715.542 185.609 715.596 185.954 715.596C186.385 715.596 186.837 715.542 187.311 715.435C187.742 715.327 188.14 715.187 188.506 715.015C188.83 714.864 189.185 714.627 189.573 714.304C189.788 714.131 190.111 713.83 190.542 713.399V710.038ZM204.395 715.402C204.739 715.467 204.912 715.672 204.912 716.016V717.406H197.35V716.016C197.35 715.672 197.523 715.467 197.867 715.402L199.677 715.047V695.95C198.686 695.756 198.083 695.627 197.867 695.562C197.523 695.497 197.35 695.303 197.35 694.98V693.591H202.585V715.015C203.576 715.209 204.179 715.338 204.395 715.402ZM214.219 700.797C215.404 700.797 216.481 700.991 217.451 701.378C218.399 701.766 219.228 702.326 219.939 703.059C220.607 703.748 221.124 704.631 221.49 705.708C221.856 706.764 222.039 707.927 222.039 709.198C222.039 710.469 221.856 711.633 221.49 712.688C221.124 713.765 220.607 714.648 219.939 715.338C219.228 716.07 218.399 716.63 217.451 717.018C216.481 717.406 215.404 717.6 214.219 717.6C213.035 717.6 211.957 717.406 210.988 717.018C210.04 716.63 209.211 716.07 208.5 715.338C207.854 714.67 207.326 713.787 206.917 712.688C206.572 711.762 206.4 710.599 206.4 709.198C206.4 707.798 206.572 706.635 206.917 705.708C207.326 704.61 207.854 703.727 208.5 703.059C209.211 702.326 210.04 701.766 210.988 701.378C211.957 700.991 213.035 700.797 214.219 700.797ZM214.219 715.402C215.878 715.402 217.085 714.864 217.838 713.787C218.636 712.667 219.034 711.148 219.034 709.231C219.034 707.313 218.636 705.795 217.838 704.674C217.085 703.597 215.878 703.059 214.219 703.059C213.379 703.059 212.668 703.188 212.087 703.446C211.527 703.705 211.031 704.114 210.6 704.674C210.191 705.234 209.889 705.881 209.695 706.613C209.48 707.475 209.372 708.358 209.372 709.263C209.372 710.125 209.48 710.986 209.695 711.848C209.889 712.58 210.191 713.227 210.6 713.787C210.966 714.282 211.462 714.67 212.087 714.95C212.776 715.252 213.487 715.402 214.219 715.402ZM230.981 700.829C231.713 700.829 232.37 700.904 232.952 701.055C233.577 701.228 234.137 701.465 234.632 701.766H239.091V702.833C239.091 703.177 238.865 703.403 238.413 703.511L236.571 703.77C236.916 704.394 237.088 705.17 237.088 706.096C237.088 706.936 236.937 707.658 236.636 708.261C236.291 708.951 235.871 709.5 235.375 709.909C234.772 710.405 234.126 710.771 233.437 711.008C232.747 711.245 231.929 711.363 230.981 711.363C230.205 711.363 229.484 711.266 228.816 711.072C228.514 711.245 228.256 711.482 228.04 711.783C227.868 712.02 227.782 712.257 227.782 712.494C227.782 712.904 227.932 713.194 228.234 713.367C228.6 713.582 229.02 713.722 229.494 713.787C230.184 713.873 230.776 713.916 231.272 713.916C231.702 713.916 232.37 713.959 233.275 714.045C233.447 714.067 233.738 714.099 234.147 714.142C234.578 714.164 234.955 714.207 235.278 714.271C235.968 714.401 236.56 714.595 237.056 714.853C237.53 715.09 237.95 715.467 238.316 715.984C238.617 716.415 238.768 717.018 238.768 717.794C238.768 718.548 238.596 719.237 238.251 719.862C237.928 720.465 237.411 721.047 236.7 721.607C236.075 722.102 235.278 722.511 234.309 722.835C233.404 723.136 232.327 723.287 231.078 723.287C229.785 723.287 228.73 723.168 227.911 722.931C227.006 722.673 226.263 722.35 225.681 721.962C225.1 721.574 224.658 721.111 224.356 720.573C224.055 720.034 223.904 719.495 223.904 718.957C223.904 718.16 224.163 717.471 224.68 716.889C225.197 716.307 225.908 715.855 226.812 715.532C226.36 715.338 225.994 715.047 225.714 714.659C225.434 714.271 225.294 713.787 225.294 713.205C225.294 713.076 225.337 712.839 225.423 712.494C225.487 712.236 225.617 711.977 225.811 711.719C225.983 711.482 226.209 711.245 226.489 711.008C226.575 710.922 226.877 710.728 227.394 710.426C226.575 709.974 225.94 709.371 225.487 708.617C225.035 707.863 224.809 706.99 224.809 705.999C224.809 705.159 224.96 704.437 225.261 703.834C225.584 703.166 226.015 702.617 226.554 702.186C227.092 701.734 227.76 701.378 228.557 701.12C229.268 700.883 230.097 700.764 231.045 700.764L230.981 700.829ZM231.013 709.521C231.573 709.521 232.09 709.435 232.564 709.263C232.973 709.112 233.35 708.886 233.695 708.584C233.997 708.304 234.223 707.949 234.374 707.518C234.524 707.066 234.6 706.624 234.6 706.193C234.6 705.181 234.287 704.384 233.663 703.802C233.06 703.22 232.176 702.929 231.013 702.929C229.871 702.929 228.988 703.22 228.363 703.802C227.76 704.384 227.459 705.181 227.459 706.193C227.459 706.667 227.545 707.109 227.717 707.518C227.911 707.97 228.137 708.315 228.396 708.552C228.74 708.854 229.117 709.08 229.527 709.231C229.957 709.381 230.453 709.457 231.013 709.457V709.521ZM236.119 718.375C236.119 717.966 236.011 717.643 235.795 717.406C235.58 717.147 235.268 716.953 234.858 716.824C234.449 716.695 234.007 716.598 233.533 716.533C232.844 716.447 232.306 716.393 231.918 716.372L230.205 716.307C230.097 716.307 229.548 716.243 228.557 716.113C227.932 716.415 227.426 716.77 227.038 717.18C226.651 717.611 226.457 718.117 226.457 718.698C226.457 719.065 226.554 719.409 226.748 719.732C226.942 720.034 227.232 720.303 227.62 720.54C228.029 720.777 228.514 720.96 229.074 721.09C229.656 721.219 230.345 721.284 231.142 721.284C231.81 721.284 232.499 721.208 233.21 721.057C233.77 720.95 234.287 720.745 234.761 720.443C235.192 720.185 235.515 719.883 235.731 719.539C235.968 719.172 236.086 718.785 236.086 718.375H236.119ZM249.071 715.402C250.687 715.402 252.162 714.648 253.498 713.141V703.446C253.304 703.382 252.69 703.253 251.656 703.059C251.333 702.994 251.171 702.789 251.171 702.445V701.055H256.374V715.079C257.408 715.273 258.022 715.402 258.216 715.467C258.539 715.532 258.7 715.726 258.7 716.049V717.438H254.661C254.273 717.438 254.015 717.234 253.886 716.824L253.659 715.079C252.108 716.824 250.299 717.697 248.231 717.697C246.486 717.697 245.129 717.126 244.159 715.984C243.211 714.842 242.738 713.345 242.738 711.493V703.414C241.747 703.22 241.143 703.091 240.928 703.026C240.583 702.962 240.411 702.757 240.411 702.412V701.055H245.646V711.46C245.646 712.753 245.926 713.722 246.486 714.368C247.068 715.036 247.929 715.37 249.071 715.37V715.402ZM266.033 695.11C266.14 695.325 266.194 695.594 266.194 695.917C266.194 696.219 266.14 696.478 266.033 696.693C265.904 696.951 265.753 697.167 265.58 697.339C265.408 697.512 265.193 697.662 264.934 697.792C264.719 697.899 264.46 697.953 264.159 697.953C263.857 697.953 263.598 697.899 263.383 697.792C263.125 697.662 262.909 697.512 262.737 697.339C262.564 697.167 262.414 696.951 262.284 696.693C262.177 696.478 262.123 696.219 262.123 695.917C262.123 695.594 262.177 695.325 262.284 695.11C262.435 694.808 262.586 694.582 262.737 694.431C262.909 694.259 263.125 694.108 263.383 693.979C263.598 693.871 263.857 693.817 264.159 693.817C264.46 693.817 264.719 693.871 264.934 693.979C265.193 694.108 265.408 694.259 265.58 694.431C265.731 694.582 265.882 694.808 266.033 695.11ZM263.028 722.931C262.489 723.168 261.832 723.287 261.056 723.287C260.367 723.287 259.699 723.179 259.053 722.964L259.182 721.413C259.225 721.197 259.398 721.09 259.699 721.09H260.346C261.186 721.09 261.778 720.896 262.123 720.508C262.489 720.099 262.672 719.474 262.672 718.634V703.414C262.543 703.393 262.338 703.36 262.058 703.317C261.778 703.253 261.358 703.166 260.798 703.059C260.496 702.994 260.346 702.789 260.346 702.445V701.055H265.516V718.634C265.516 720.81 264.686 722.253 263.028 722.964V722.931Z" fill="white"/>
<path d="M186.055 809.284C186.335 809.34 186.475 809.508 186.475 809.788V810.907H179.898V809.788C179.898 809.526 180.028 809.368 180.289 809.312C180.401 809.312 180.831 809.228 181.577 809.06L175.783 802.398C175.428 802.044 175.139 801.838 174.915 801.782C174.747 801.745 174.514 801.726 174.216 801.726H172.984V808.892L174.551 809.228C174.85 809.284 174.999 809.452 174.999 809.732V810.935H168.254V809.732C168.254 809.452 168.394 809.284 168.673 809.228L170.269 808.892V792.937C169.373 792.769 168.841 792.658 168.673 792.602C168.394 792.546 168.254 792.368 168.254 792.07V790.866H174.999V792.07C174.999 792.368 174.85 792.546 174.551 792.602L172.984 792.937V799.655H173.992C174.645 799.655 175.13 799.468 175.447 799.095L181.045 792.714L179.814 792.49C179.552 792.434 179.422 792.266 179.422 791.986V790.866H185.748L185.804 791.93C185.804 792.228 185.654 792.406 185.356 792.462C185.094 792.555 184.665 792.667 184.068 792.797L178.106 799.543C177.752 799.954 177.388 800.252 177.015 800.439C177.425 800.551 177.854 800.887 178.302 801.446L184.656 809.004L185.412 809.172L186.083 809.312L186.055 809.284ZM194.099 796.576C195.126 796.576 196.059 796.744 196.898 797.08C197.719 797.416 198.438 797.901 199.054 798.535C199.632 799.133 200.08 799.898 200.397 800.831C200.714 801.745 200.873 802.753 200.873 803.854C200.873 804.955 200.714 805.962 200.397 806.877C200.08 807.81 199.632 808.575 199.054 809.172C198.438 809.806 197.719 810.291 196.898 810.627C196.059 810.963 195.126 811.131 194.099 811.131C193.073 811.131 192.14 810.963 191.3 810.627C190.479 810.291 189.761 809.806 189.145 809.172C188.585 808.593 188.128 807.828 187.774 806.877C187.475 806.074 187.326 805.067 187.326 803.854C187.326 802.641 187.475 801.633 187.774 800.831C188.128 799.879 188.585 799.114 189.145 798.535C189.761 797.901 190.479 797.416 191.3 797.08C192.14 796.744 193.073 796.576 194.099 796.576ZM194.099 809.228C195.536 809.228 196.581 808.761 197.234 807.828C197.925 806.858 198.27 805.542 198.27 803.882C198.27 802.221 197.925 800.905 197.234 799.935C196.581 799.002 195.536 798.535 194.099 798.535C193.372 798.535 192.756 798.647 192.252 798.871C191.767 799.095 191.338 799.45 190.964 799.935C190.61 800.42 190.349 800.98 190.181 801.614C189.994 802.361 189.901 803.126 189.901 803.91C189.901 804.656 189.994 805.402 190.181 806.149C190.349 806.783 190.61 807.343 190.964 807.828C191.282 808.257 191.711 808.593 192.252 808.836C192.849 809.097 193.465 809.228 194.099 809.228ZM209.119 796.52C210.686 796.52 211.974 797.08 212.981 798.2V792.378L211.106 792.042C210.826 791.986 210.686 791.818 210.686 791.538V790.306H215.444V808.892C216.378 809.06 216.919 809.172 217.068 809.228C217.329 809.284 217.46 809.452 217.46 809.732V810.963H213.989C213.653 810.963 213.429 810.786 213.317 810.431L213.093 808.724C211.768 810.329 210.182 811.131 208.335 811.131C206.674 811.131 205.368 810.515 204.416 809.284C203.446 807.996 202.961 806.205 202.961 803.91C202.961 801.764 203.511 800.01 204.612 798.647C205.751 797.229 207.253 796.52 209.119 796.52ZM209.175 809.144C210.649 809.144 211.918 808.425 212.981 806.989V800.159C212.142 799.039 211.05 798.479 209.706 798.479C208.344 798.479 207.309 798.946 206.6 799.879C205.89 800.812 205.536 802.156 205.536 803.91C205.536 806.578 206.226 808.22 207.607 808.836C208.036 809.022 208.55 809.116 209.147 809.116L209.175 809.144ZM239.384 803.882C239.384 805.057 239.217 806.093 238.881 806.989C238.526 807.922 238.078 808.687 237.537 809.284C236.996 809.881 236.343 810.347 235.578 810.683C234.831 811.019 234.01 811.187 233.115 811.187C231.529 811.187 229.439 810.926 226.845 810.403V792.378L226.229 792.294L225.053 792.098C224.923 792.079 224.82 792.023 224.746 791.93C224.671 791.818 224.634 791.697 224.634 791.566V790.362H229.364V798.843C229.961 798.153 230.633 797.602 231.379 797.192C232.126 796.781 232.984 796.576 233.954 796.576C234.794 796.576 235.54 796.725 236.194 797.024C236.847 797.323 237.406 797.789 237.873 798.424C238.339 799.077 238.694 799.823 238.937 800.663C239.198 801.596 239.328 802.641 239.328 803.798H239.384V803.882ZM235.718 807.772C236.072 807.306 236.343 806.746 236.529 806.093C236.716 805.402 236.809 804.693 236.809 803.966V803.742C236.809 802.771 236.735 801.988 236.585 801.39C236.417 800.756 236.175 800.215 235.858 799.767C235.522 799.319 235.149 799.002 234.738 798.815C234.309 798.629 233.796 798.535 233.199 798.535C232.34 798.535 231.622 798.722 231.043 799.095C230.428 799.487 229.868 800.019 229.364 800.691V808.78C229.625 808.855 230.017 808.948 230.54 809.06C231.081 809.153 231.622 809.209 232.163 809.228H232.891C233.507 809.19 234.01 809.078 234.402 808.892C234.887 808.668 235.317 808.313 235.69 807.828L235.718 807.772ZM246.982 809.228C247.28 809.284 247.43 809.461 247.43 809.76V810.963H240.88V809.76C240.88 809.461 241.029 809.284 241.328 809.228L242.895 808.92V792.378C242.037 792.21 241.514 792.098 241.328 792.042C241.029 791.986 240.88 791.818 240.88 791.538V790.334H245.414V808.892C246.273 809.06 246.795 809.172 246.982 809.228ZM251.014 793.581C250.864 793.432 250.734 793.245 250.622 793.021C250.528 792.835 250.482 792.611 250.482 792.35C250.482 792.07 250.528 791.836 250.622 791.65C250.752 791.389 250.883 791.193 251.014 791.062C251.163 790.913 251.349 790.782 251.573 790.67C251.76 790.577 251.984 790.53 252.245 790.53C252.506 790.53 252.73 790.577 252.917 790.67C253.141 790.782 253.327 790.913 253.477 791.062C253.607 791.193 253.738 791.389 253.869 791.65C253.98 791.874 254.036 792.107 254.036 792.35C254.036 792.574 253.98 792.797 253.869 793.021C253.757 793.245 253.626 793.432 253.477 793.581C253.327 793.73 253.141 793.861 252.917 793.973C252.73 794.066 252.506 794.113 252.245 794.113C251.984 794.113 251.76 794.066 251.573 793.973C251.349 793.861 251.163 793.73 251.014 793.581ZM255.072 809.228C255.203 809.246 255.305 809.312 255.38 809.424C255.455 809.517 255.492 809.629 255.492 809.76V810.963H248.97V809.76C248.97 809.629 249.008 809.517 249.082 809.424C249.157 809.312 249.259 809.246 249.39 809.228L251.014 808.92V798.815L249.39 798.507C249.259 798.489 249.157 798.433 249.082 798.34C249.008 798.228 248.97 798.106 248.97 797.976V796.8H253.477V808.92L255.072 809.228ZM271.168 809.228C271.448 809.284 271.588 809.452 271.588 809.732V810.963H268.957C268.602 810.963 268.285 810.795 268.005 810.459L263.359 804.637C263.228 804.451 263.088 804.329 262.939 804.273C262.79 804.217 262.575 804.189 262.295 804.189H261.624V808.92C261.736 808.92 262.062 808.985 262.603 809.116L263.191 809.228C263.49 809.284 263.639 809.461 263.639 809.76V810.963H257.089V809.76C257.089 809.461 257.229 809.284 257.509 809.228L259.104 808.92V792.378C258.209 792.21 257.677 792.098 257.509 792.042C257.229 791.986 257.089 791.818 257.089 791.538V790.334H261.624V802.454H262.239C262.631 802.454 262.93 802.323 263.135 802.062L266.326 798.647C266.27 798.647 266.214 798.638 266.158 798.619C266.102 798.601 266.046 798.591 265.99 798.591L265.542 798.507C265.244 798.452 265.094 798.274 265.094 797.976V796.8H271.028V797.976C271.028 798.256 270.907 798.424 270.664 798.479L268.929 798.815L265.626 802.342C265.328 802.697 265.057 802.949 264.814 803.098C265.188 803.34 265.468 803.63 265.654 803.966L269.573 808.948L270.301 809.06C270.786 809.172 271.084 809.228 271.196 809.228H271.168Z" fill="white"/>
<path d="M108.973 335.646C107.959 337.34 105.838 338.057 104.013 338.422C101.682 338.9 99.271 339.027 96.9108 339.237L95.5388 339.574C95.2789 339.654 95.0378 339.784 94.8285 339.958C94.6197 340.131 94.447 340.345 94.3203 340.585C94.194 340.825 94.1161 341.089 94.0915 341.359C94.0673 341.63 94.0962 341.903 94.1777 342.162C95.0265 345.083 96.1944 347.902 97.6601 350.568L95.4881 352.74C94.8727 351.907 94.8437 350.448 94.0184 350.589C93.2256 349.797 92.2844 349.409 91.3106 350.47C89.4065 352.551 89.7142 356.877 92.5125 358.072L91.8862 361.189C91.6701 362.278 91.0829 363.26 90.225 363.965C89.367 364.671 88.2908 365.057 87.1802 365.058L87.6617 361.37C84.4037 363.017 80.7076 359.455 80.9647 356.519C81.1312 354.506 80.6751 353.116 79.1872 351.657C79.0895 351.559 79.6868 351.197 79.5963 351.1C79.1764 349.829 79.1185 348.345 79.5348 347.505C80.2588 346.006 82.3909 345.13 81.4099 343.494C80.9791 342.781 80.6649 342.004 80.4796 341.192C80.2823 340.115 80.3185 339.009 80.5853 337.947C80.8517 336.886 81.343 335.894 82.0253 335.038C83.4733 333.3 85.8263 333.767 87.7485 333.152C90.0907 332.428 91.1731 329.919 93.6238 329.144C94.8437 328.757 95.9732 328.934 97.1931 329.213C98.2248 329.452 99.2457 329.72 100.259 330.039C101.273 330.357 102.163 330.621 103.155 330.325C104.466 329.963 105.476 328.739 106.906 328.728C107.619 328.712 108.317 328.935 108.889 329.362C109.946 331.262 109.954 334.021 108.973 335.646Z" fill="#3FBDF1"/>
<path d="M64.1722 384.661C64.1722 384.661 24.7613 341.192 82.8007 319.501C86.1662 318.267 89.674 317.462 93.2408 317.104C102.504 316.12 122.983 312.619 125.343 300.796" stroke="#CCDDE2" stroke-width="4.11" stroke-miterlimit="10"/>
<path d="M229.613 323.809V323.798" stroke="#CCDDE2" stroke-width="4.11" stroke-miterlimit="10"/>
<path d="M126.204 402.077V402.066" stroke="black" stroke-width="4.11" stroke-miterlimit="10"/>
<path d="M95.3907 352.45C95.0048 351.783 94.5458 351.161 94.0223 350.597C93.2295 349.804 92.2883 349.416 91.3146 350.477C89.4104 352.559 89.7181 356.884 92.5164 358.079L91.8901 361.196C91.674 362.286 91.0872 363.267 90.2289 363.972C89.371 364.678 88.2948 365.064 87.1841 365.066" stroke="black" stroke-width="4.11" stroke-linecap="round" stroke-linejoin="round"/>
<path d="M85.4321 378.858C85.5913 377.649 85.9859 374.474 86.366 371.448C86.728 368.642 87.0502 365.942 87.1769 365.051L87.662 361.37" stroke="black" stroke-width="4.11" stroke-linecap="round" stroke-linejoin="round"/>
<path d="M107.782 342.582C107.782 342.582 103.159 342.81 102.265 346.636" stroke="black" stroke-width="4.11" stroke-miterlimit="10"/>
<path d="M109.462 352.693C110.722 352.66 112.358 352.475 112.952 351.197L109.766 347.682C108.989 346.821 108.529 345.72 108.463 344.562C108.337 342.618 108.565 339.534 106.704 337.481" stroke="black" stroke-width="4.11" stroke-miterlimit="10"/>
<path d="M106.738 347.826C107.26 347.249 107.286 346.423 106.796 345.981C106.306 345.538 105.487 345.647 104.966 346.224C104.444 346.801 104.418 347.627 104.908 348.07C105.397 348.512 106.217 348.403 106.738 347.826Z" fill="black"/>
<path d="M106.424 375.781L104.024 364.146" stroke="black" stroke-width="4.11" stroke-miterlimit="10"/>
<path d="M167.266 428.144L151.798 440.793C170.408 469.173 156.323 474.383 156.323 474.383C153.591 474.906 150.832 475.276 148.058 475.494C134.607 476.464 120.807 472.992 109.719 465.217C87.275 449.47 67.7272 417.954 78.1526 390.514C79.0301 388.194 80.1016 385.951 81.3563 383.81C82.4376 381.949 83.8143 380.277 85.4325 378.858C88.2647 376.379 91.7526 374.77 95.4772 374.224C99.2018 373.679 103.005 374.221 106.428 375.785C107.739 376.383 108.979 377.126 110.124 378C115.985 382.485 121.314 388.86 125.908 395.55C129.987 401.6 133.657 407.915 136.894 414.453C137.789 416.238 138.599 417.925 139.316 419.471C145.814 416.843 151.262 412.379 156.33 407.557C150.201 418.997 167.266 428.144 167.266 428.144Z" fill="#353642"/>
<path d="M156.442 437.397C156.145 437.625 155.837 437.864 155.53 438.092" stroke="black" stroke-width="4.11" stroke-miterlimit="10"/>
<path d="M110.711 389.312C114.814 397.168 118.917 405.038 123.019 412.922C126.114 418.873 131.345 422.548 138.712 419.728C146.727 416.658 153.192 410.79 159.172 404.81C165.152 398.829 171.212 393.11 179.846 391.568C191.006 389.573 201.566 395.655 209.168 403.34C209.753 403.926 210.123 404.692 210.218 405.515C210.313 406.337 210.128 407.168 209.693 407.872C209.413 408.323 209.04 408.708 208.599 409.001C208.157 409.294 207.658 409.489 207.134 409.571C206.61 409.654 206.075 409.623 205.565 409.481C205.055 409.338 204.581 409.087 204.176 408.745C200.574 405.671 194.713 401.226 190.637 401.168" stroke="black" stroke-width="4.11" stroke-miterlimit="10"/>
<path d="M179.515 411.713C180.768 412.549 182.505 413.476 183.953 413.476" stroke="black" stroke-width="4.11" stroke-miterlimit="10"/>
<path d="M195.567 402.692C198.239 404.013 199.212 407.879 197.326 410.189C194.935 413.156 191.939 415.58 188.537 417.299C184.816 419.156 182.426 418.023 178.763 415.757" stroke="black" stroke-width="4.11" stroke-miterlimit="10"/>
<path d="M189.384 406.156C189.384 406.156 194.676 407.467 194.535 412.604C194.526 412.823 194.487 413.039 194.419 413.248" stroke="black" stroke-width="4.11" stroke-miterlimit="10"/>
<path d="M185.645 409.393C185.645 409.393 192.744 413.979 189.367 416.864" stroke="black" stroke-width="4.11" stroke-miterlimit="10"/>
<path d="M322.773 427.37C314.411 450.353 291 451.001 288.321 451.001C289.444 448.637 289.748 444.485 287.29 437.209C288.937 434.804 289.804 431.951 289.773 429.037C289.742 426.123 288.816 423.289 287.12 420.919C287.152 420.89 287.17 420.85 287.199 420.821C288.37 420.75 289.532 420.574 290.671 420.296C294.711 419.333 302.675 417.219 308.995 414.243C313.281 412.22 318.281 415.463 317.915 420.195C317.915 420.256 317.915 420.314 317.893 420.383C318.73 420.383 319.555 420.584 320.297 420.971C321.039 421.357 321.677 421.917 322.156 422.603C322.635 423.289 322.941 424.081 323.049 424.911C323.156 425.741 323.062 426.584 322.773 427.37Z" fill="#3FBDF1"/>
<path d="M215.466 481.275C212.65 486.108 208.266 490.224 204.031 493.815C189.12 506.434 169.64 512.841 150.092 513.091C130.479 512.841 110.928 506.412 95.9482 493.905C48.6166 454.382 57.1707 407.717 64.827 386.109C65.0966 385.362 65.4617 384.653 65.913 383.998C66.5116 383.123 67.2888 382.383 68.1935 381.83C69.0982 381.275 70.1097 380.919 71.162 380.784C75.1802 381.338 78.8292 384.672 78.1848 389.834C78.1848 390.033 78.1052 390.308 78.0871 390.507C67.6687 417.947 87.224 449.462 109.653 465.209C119.829 472.352 132.289 475.863 144.67 475.635H144.811C145.873 475.613 146.933 475.564 147.993 475.487C154.947 474.98 161.705 473.315 168.399 471.298C176.254 468.949 184.023 466.1 191.871 464.105C194.629 463.403 197.395 462.726 200.175 462.093C201.78 461.764 203.421 461.65 205.055 461.756C214.695 462.408 221.468 470.98 215.466 481.275Z" fill="#D7E8F0"/>
<path d="M217.849 481.275C215.032 486.108 210.645 490.224 206.41 493.815C190.905 506.948 170.448 513.363 150.082 513.091C130.469 512.841 110.918 506.412 95.938 493.905C48.6172 454.382 57.1713 407.717 64.8276 386.109C65.0972 385.362 65.4623 384.653 65.9136 383.998C66.5122 383.123 67.2894 382.383 68.1941 381.83C69.0987 381.275 70.1104 380.919 71.1627 380.784C75.1809 381.338 78.8299 384.672 78.1855 389.834C78.1855 390.033 78.1059 390.308 78.0878 390.507C67.6693 417.947 87.2247 449.462 109.654 465.209C119.83 472.352 132.29 475.863 144.67 475.635H144.812C146.677 475.664 148.532 475.615 150.376 475.487C157.33 474.98 164.085 473.315 170.782 471.298C178.637 468.949 186.405 466.1 194.254 464.105C197.008 463.403 199.778 462.726 202.554 462.093C203.379 461.924 204.215 461.811 205.056 461.756C215.894 461.028 224.336 470.147 217.849 481.275Z" fill="#D7E8F0"/>
<path d="M153.35 513.026L158.114 519.766C158.114 519.766 186.94 520.889 202.716 534.131C205.634 536.581 203.889 541.342 200.081 541.342C199.126 541.345 198.201 541.009 197.471 540.393C193.746 537.265 179.516 527.434 147.326 527.137C115.963 526.844 103.934 536.549 100.607 540.085C100.227 540.485 99.7698 540.803 99.2634 541.018C98.7566 541.234 98.2107 541.345 97.6601 541.342H97.0411C93.1315 541.342 91.4771 536.404 94.565 534.008C107.735 523.767 137.256 520.501 137.256 520.501L142.295 512.899" fill="#353642"/>
<path d="M280.923 475.65C280.923 475.65 289.752 484.037 286.997 510.04C286.797 511.896 286.151 513.677 285.115 515.231L284.156 516.679C282.583 519.035 280.21 520.742 277.477 521.486C271.71 523.061 261.248 526.71 254.787 533.624C252.057 536.552 254.088 541.324 258.092 541.324C258.838 541.326 259.574 541.143 260.232 540.792C260.891 540.441 261.453 539.932 261.867 539.311C264.499 535.351 272.467 526.941 291.685 527.119C313.362 527.318 322.093 535.937 324.891 539.651C325.278 540.169 325.78 540.59 326.358 540.88C326.935 541.17 327.572 541.322 328.218 541.324C329.028 541.322 329.82 541.084 330.497 540.639C331.174 540.194 331.706 539.561 332.029 538.817C332.352 538.074 332.45 537.253 332.312 536.455C332.175 535.656 331.808 534.915 331.255 534.323C322.803 525.139 312.464 521.714 306.759 520.443C303.893 519.825 301.361 518.159 299.66 515.77C298.358 513.927 297.618 511.747 297.528 509.493C297.209 501.431 297.043 481.861 302.505 475.657" fill="#353642"/>
<path d="M168.471 471.309C183.997 463.772 200.849 458.827 217.417 454.172C234.091 449.488 250.928 445.401 267.815 441.56C274.563 440.029 281.372 438.664 288.087 436.937" stroke="black" stroke-width="4.11" stroke-miterlimit="10"/>
<path d="M183.038 413.371H183.049H183.057" stroke="black" stroke-width="4.11" stroke-miterlimit="10"/>
<path d="M181.297 412.39C180.324 413.353 176.848 418.497 175.976 419.42C171.183 424.556 166.092 429.406 160.728 433.944C159.378 435.066 157.948 436.224 156.442 437.397C156.146 437.625 155.838 437.864 155.53 438.092C145.322 445.839 132 453.296 119.692 448.518C119.366 448.398 119.048 448.261 118.733 448.119C99.8545 439.667 86.6596 418.497 85.5085 398.062C85.4686 397.396 85.4469 396.734 85.4397 396.078C85.3383 390.493 86.1637 384.907 91.5213 381.96" stroke="black" stroke-width="4.11" stroke-miterlimit="10"/>
<path d="M78.1812 390.435L78.2572 389.841C79.4591 380.205 65.7755 376.954 62.5283 386.109C54.8757 407.713 46.318 454.367 93.6603 493.898C124.217 519.422 173.688 519.6 204.128 493.815C208.364 490.227 212.747 486.104 215.567 481.271C222.702 469.05 211.806 459.251 199.516 462.259" stroke="black" stroke-width="4.11" stroke-miterlimit="10"/>
<path d="M153.35 513.026L158.114 519.766C158.114 519.766 186.94 520.889 202.716 534.131C205.634 536.581 203.889 541.342 200.081 541.342C199.126 541.345 198.201 541.009 197.471 540.393C193.746 537.265 179.516 527.434 147.326 527.137C115.963 526.844 103.934 536.549 100.607 540.085C100.227 540.485 99.7698 540.803 99.2634 541.018C98.7566 541.234 98.2107 541.345 97.6601 541.342H97.0411C93.1315 541.342 91.4771 536.404 94.565 534.008C107.735 523.767 137.256 520.501 137.256 520.501L142.295 512.899" stroke="black" stroke-width="4.11" stroke-miterlimit="10"/>
<path d="M137.256 413.874C149.34 410.616 154.317 393.57 156.323 382.109" stroke="black" stroke-width="4.11" stroke-miterlimit="10"/>
<path d="M125.897 395.561C129.254 395.121 132.442 393.828 135.156 391.805C137.871 389.782 140.021 387.097 141.401 384.006C141.69 383.391 141.831 382.717 141.812 382.038C141.793 381.359 141.615 380.694 141.293 380.096C139.975 377.656 138.009 374.829 138.476 371.904C138.813 369.841 140.511 368.389 142.458 367.922C143.445 367.663 144.485 367.681 145.463 367.973C146.049 368.139 146.591 368.433 147.049 368.834C147.507 369.236 147.871 369.734 148.113 370.293C148.587 371.404 148.022 372.505 147.15 373.229C146.277 373.953 145.257 374.21 144.192 374.499C144.055 374.539 143.678 374.619 143.262 374.699" stroke="black" stroke-width="4.11" stroke-miterlimit="10"/>
<path d="M288.073 436.93C288.073 436.93 311.892 431.942 316.367 424.756C317.206 423.446 317.728 421.959 317.894 420.412" stroke="black" stroke-width="4.11" stroke-miterlimit="10"/>
<path d="M170.864 424.658C212.41 420.245 259.304 420.897 259.304 420.897H285.621C287.322 420.9 289.017 420.7 290.671 420.303C294.711 419.34 302.675 417.23 308.996 414.251C313.282 412.227 318.281 415.471 317.915 420.206C317.915 420.264 317.915 420.325 317.894 420.394C318.729 420.394 319.552 420.596 320.292 420.981C321.032 421.367 321.669 421.926 322.148 422.61C322.627 423.294 322.934 424.084 323.043 424.912C323.152 425.739 323.059 426.581 322.773 427.366C313.897 451.761 288.072 450.997 288.072 450.997C284.771 451.095 281.476 451.225 278.171 451.396C249.056 452.811 220.197 456.898 191.947 464.113C184.098 466.107 176.33 468.953 168.474 471.306C161.777 473.329 155.012 474.983 148.058 475.49C134.606 476.464 120.806 472.989 109.718 465.213C85.4317 448.17 64.5299 412.636 81.3556 383.792C87.296 373.613 100.748 370.825 110.124 378C123.348 388.118 133.911 407.829 139.33 419.456" stroke="black" stroke-width="4.11" stroke-miterlimit="10"/>
<path d="M322.223 475.65H264.404" stroke="black" stroke-width="4.11" stroke-miterlimit="10"/>
<path d="M252.734 463.971C252.743 460.876 253.976 457.911 256.164 455.722C258.352 453.533 261.317 452.299 264.412 452.29H322.238C325.333 452.298 328.3 453.532 330.489 455.721C332.678 457.909 333.911 460.876 333.92 463.971" stroke="black" stroke-width="4.11" stroke-miterlimit="10"/>
<path d="M335.056 468.113C335.059 469.103 334.866 470.085 334.488 471.001C334.11 471.917 333.555 472.749 332.854 473.45C332.153 474.15 331.321 474.705 330.404 475.083C329.489 475.46 328.507 475.653 327.516 475.649H259.098C257.385 475.487 255.805 474.66 254.696 473.345C253.587 472.029 253.038 470.331 253.168 468.616C253.298 466.901 254.096 465.305 255.391 464.172C256.685 463.038 258.372 462.458 260.09 462.556H328.508C329.722 462.554 330.919 462.846 331.996 463.408C333.073 463.97 333.998 464.784 334.691 465.781C334.933 466.535 335.056 467.321 335.056 468.113Z" fill="#D7E8F0"/>
<path d="M335.056 468.113C335.059 469.103 334.866 470.085 334.488 471.001C334.11 471.917 333.555 472.749 332.854 473.45C332.153 474.15 331.321 474.705 330.404 475.083C329.488 475.46 328.507 475.653 327.516 475.649H259.098C258.094 475.672 257.096 475.493 256.162 475.124C255.228 474.755 254.377 474.203 253.659 473.501C252.941 472.798 252.371 471.96 251.982 471.034C251.593 470.109 251.392 469.115 251.392 468.111C251.392 467.107 251.593 466.113 251.982 465.187C252.371 464.261 252.941 463.423 253.659 462.721C254.377 462.018 255.228 461.467 256.162 461.098C257.096 460.729 258.094 460.55 259.098 460.572H327.516C329.108 460.571 330.661 461.075 331.95 462.011C333.238 462.946 334.198 464.266 334.69 465.781C334.933 466.535 335.056 467.321 335.056 468.113Z" stroke="black" stroke-width="4.11" stroke-miterlimit="10"/>
<path d="M156.193 381.841L156.055 383.003C155.992 383.53 155.739 384.016 155.342 384.369C154.945 384.722 154.433 384.917 153.901 384.918H146.383C145.852 384.917 145.339 384.722 144.942 384.369C144.546 384.016 144.291 383.53 144.229 383.003L143.259 374.677C143.675 374.597 144.051 374.518 144.189 374.478C145.253 374.188 146.285 373.942 147.147 373.207C148.008 372.472 148.595 371.397 148.109 370.271C147.867 369.712 147.504 369.214 147.046 368.813C146.587 368.411 146.046 368.117 145.46 367.951C144.482 367.659 143.442 367.642 142.455 367.9L142.227 365.916C142.193 365.613 142.224 365.306 142.317 365.016C142.41 364.725 142.563 364.458 142.766 364.231C142.969 364.003 143.218 363.821 143.496 363.696C143.775 363.571 144.076 363.506 144.381 363.505H155.918C156.222 363.507 156.523 363.572 156.801 363.697C157.079 363.822 157.327 364.004 157.53 364.232C157.733 364.459 157.886 364.727 157.978 365.017C158.071 365.307 158.101 365.613 158.068 365.916L157.8 368.179" stroke="black" stroke-width="4.11" stroke-miterlimit="10"/>
<path d="M157.195 373.352L157.184 373.432" stroke="black" stroke-width="4.11" stroke-miterlimit="10"/>
<path d="M156.63 378.134V378.101" stroke="black" stroke-width="4.11" stroke-miterlimit="10"/>
<path d="M156.739 378.134C156.707 378.128 156.673 378.128 156.641 378.134C156.595 378.129 156.549 378.129 156.504 378.134C156.034 378.136 155.583 378.313 155.239 378.632C154.894 378.951 154.682 379.387 154.644 379.855C154.607 380.322 154.746 380.787 155.035 381.157C155.323 381.527 155.74 381.775 156.203 381.852C156.403 381.891 156.608 381.891 156.808 381.852C157.711 381.707 158.536 381.251 159.139 380.563C159.942 379.242 160.5 377.786 160.786 376.266C160.791 376.251 160.791 376.234 160.786 376.219C161.007 375.099 161.091 373.956 161.036 372.816C161.036 372.327 160.974 371.842 160.916 371.368C160.806 370.575 160.443 369.838 159.882 369.266C159.321 368.695 158.591 368.319 157.8 368.193C157.76 368.193 157.713 368.193 157.673 368.172C156.152 367.983 154.02 368.559 153.626 370.275C153.264 371.824 154.943 373.153 156.323 373.272C156.323 373.272 156.685 373.319 157.195 373.352C158.216 373.421 159.914 373.41 161.036 372.816C161.201 372.731 161.356 372.628 161.499 372.508" stroke="black" stroke-width="4.11" stroke-miterlimit="10"/>
<path d="M158.325 373.435H158.075H156.146H155.295C154.72 373.437 154.167 373.659 153.75 374.056C153.333 374.452 153.084 374.993 153.054 375.567C153.026 376.126 153.206 376.674 153.559 377.107C153.912 377.541 154.413 377.828 154.965 377.913C157.463 378.315 160.316 378.398 160.804 376.161" stroke="black" stroke-width="4.11" stroke-miterlimit="10"/>
<path d="M280.923 475.65C280.923 475.65 289.752 484.037 286.997 510.04C286.797 511.896 286.151 513.677 285.115 515.231L284.156 516.679C282.583 519.035 280.21 520.742 277.477 521.486C271.71 523.061 261.248 526.71 254.787 533.624C252.057 536.552 254.088 541.324 258.092 541.324C258.838 541.326 259.574 541.143 260.232 540.792C260.891 540.441 261.453 539.932 261.867 539.311C264.499 535.351 272.467 526.941 291.685 527.119C313.362 527.318 322.093 535.937 324.891 539.651C325.278 540.169 325.78 540.59 326.358 540.88C326.935 541.17 327.572 541.322 328.218 541.324C329.028 541.322 329.82 541.084 330.497 540.639C331.174 540.194 331.706 539.561 332.029 538.817C332.352 538.074 332.45 537.253 332.312 536.455C332.175 535.656 331.808 534.915 331.255 534.323C322.803 525.139 312.464 521.714 306.759 520.443C303.893 519.825 301.361 518.159 299.66 515.77C298.358 513.927 297.618 511.747 297.528 509.493C297.209 501.431 297.043 481.861 302.505 475.657" stroke="black" stroke-width="4.11" stroke-miterlimit="10"/>
<path d="M262.569 414.873V415.46C262.569 419.474 259.333 420.166 256.538 420.235L202.451 421.494C200.08 421.552 198.086 419.482 198.035 416.89V416.781C198.035 414.247 199.903 412.129 202.242 412.075C202.242 412.075 232.501 411.221 255.93 410.576C256.379 411.995 257.465 413.089 258.826 413.947C259.954 414.621 261.257 414.944 262.569 414.873Z" stroke="black" stroke-width="4.11" stroke-miterlimit="10"/>
<path d="M291.32 357.641C291.322 358.301 291.171 358.953 290.878 359.545L266.689 409.132C266.405 409.708 265.999 410.214 265.499 410.617C264.999 411.018 264.416 411.306 263.793 411.46C262.794 411.716 261.737 411.608 260.81 411.156C260.067 410.79 259.442 410.222 259.006 409.518C258.571 408.814 258.341 408.002 258.345 407.174C258.347 406.97 258.361 406.767 258.388 406.565C258.453 406.117 258.587 405.68 258.787 405.273L282.972 355.679C283.409 354.789 284.134 354.073 285.03 353.648C285.925 353.223 286.939 353.114 287.904 353.339C288.87 353.564 289.731 354.109 290.348 354.885C290.964 355.662 291.299 356.624 291.298 357.616L291.32 357.641Z" stroke="black" stroke-width="4.11" stroke-miterlimit="10"/>
<path d="M95.4924 352.747C95.4635 352.646 95.4237 352.548 95.3911 352.45C95.3585 352.352 95.3114 352.24 95.2825 352.131" stroke="black" stroke-width="4.11" stroke-linecap="round" stroke-linejoin="round"/>
<path d="M95.4917 352.75L96.2338 352.005L97.6528 350.568" stroke="black" stroke-width="4.11" stroke-linecap="round" stroke-linejoin="round"/>
<path d="M103.843 354.713C103.843 354.713 104.795 357.554 108.433 357.746" stroke="black" stroke-width="4.11" stroke-miterlimit="10"/>
<path d="M87.6624 361.37C84.4044 363.017 80.7084 359.455 80.9654 356.519C81.1319 354.506 80.6758 353.116 79.188 351.657C79.0902 351.559 78.9997 351.458 78.9128 351.36C78.3463 350.744 77.9782 349.972 77.8554 349.144C77.7327 348.316 77.8616 347.47 78.225 346.716C78.902 345.141 80.3608 344.218 79.3472 342.52C78.9024 341.786 78.5773 340.986 78.3843 340.149C78.182 339.04 78.22 337.9 78.4955 336.807C78.7706 335.714 79.277 334.692 79.9807 333.811C81.4722 332.001 83.9012 332.5 85.8958 331.867C88.2959 331.103 89.4181 328.522 91.9376 327.729C93.1974 327.334 94.3666 327.512 95.6264 327.798C96.6871 328.048 97.7513 328.326 98.783 328.652C99.8147 328.978 100.756 329.257 101.788 328.949C103.138 328.554 104.177 327.313 105.647 327.302C107.116 327.291 108.246 328.156 108.905 329.365C109.947 331.262 109.954 334.021 108.973 335.657C107.96 337.351 105.838 338.068 104.014 338.433C101.683 338.911 99.2717 339.038 96.9115 339.248L95.5395 339.585C95.0175 339.747 94.5809 340.109 94.3257 340.592C94.0709 341.075 94.0177 341.64 94.1784 342.162C95.0273 345.083 96.1951 347.902 97.6608 350.568" stroke="black" stroke-width="4.11" stroke-miterlimit="10"/>
<path d="M97.6539 361.786C97.6539 361.786 104.836 367.046 108.93 364.146C113.024 361.247 110.711 352.747 110.711 352.747" stroke="black" stroke-width="4.11" stroke-linecap="round" stroke-linejoin="round"/>
<path d="M148.402 359.875C148.402 359.875 145.351 357.811 147.291 355.704C149.231 353.598 146.647 350.817 146.647 350.817" stroke="black" stroke-width="4.11" stroke-miterlimit="10"/>
<path d="M151.218 360.233C151.218 360.233 153.238 358.868 151.942 357.471C150.646 356.074 152.373 354.213 152.373 354.213" stroke="black" stroke-width="4.11" stroke-miterlimit="10"/>
<path d="M165.138 340.569C187.114 340.569 204.929 322.754 204.929 300.778C204.929 278.802 187.114 260.987 165.138 260.987C143.162 260.987 125.347 278.802 125.347 300.778C125.347 322.754 143.162 340.569 165.138 340.569Z" stroke="#CCDDE2" stroke-width="4.11" stroke-miterlimit="10"/>
<path d="M165.137 322.632C177.206 322.632 186.99 312.848 186.99 300.778C186.99 288.708 177.206 278.924 165.137 278.924C153.067 278.924 143.283 288.708 143.283 300.778C143.283 312.848 153.067 322.632 165.137 322.632Z" stroke="#CCDDE2" stroke-width="4.11" stroke-miterlimit="10"/>
<path d="M165.138 304.525C167.207 304.525 168.885 302.847 168.885 300.778C168.885 298.709 167.207 297.031 165.138 297.031C163.069 297.031 161.391 298.709 161.391 300.778C161.391 302.847 163.069 304.525 165.138 304.525Z" stroke="#CCDDE2" stroke-width="4.11" stroke-miterlimit="10"/>
<path d="M172.895 288.267L167.11 297.593" stroke="#CCDDE2" stroke-width="4.11" stroke-miterlimit="10"/>
<path d="M165.137 278.924V282.812" stroke="#CCDDE2" stroke-width="4.11" stroke-miterlimit="10"/>
<path d="M186.992 300.778H183.306" stroke="#CCDDE2" stroke-width="4.11" stroke-miterlimit="10"/>
<path d="M165.137 322.636V318.856" stroke="#CCDDE2" stroke-width="4.11" stroke-miterlimit="10"/>
<path d="M143.28 300.778H146.603" stroke="#CCDDE2" stroke-width="4.11" stroke-miterlimit="10"/>
<path d="M203.274 366.937C211.45 366.937 218.079 360.308 218.079 352.131C218.079 343.954 211.45 337.326 203.274 337.326C195.096 337.326 188.468 343.954 188.468 352.131C188.468 360.308 195.096 366.937 203.274 366.937Z" fill="#3FBDF1"/>
<path d="M208.144 347.187C207.935 346.705 207.654 346.258 207.311 345.862C206.724 345.168 205.905 344.711 205.006 344.578C204.107 344.445 203.19 344.644 202.428 345.138C201.93 345.462 201.514 345.897 201.213 346.409C200.912 346.921 200.732 347.495 200.69 348.088C199.911 347.802 199.06 347.778 198.265 348.018C197.471 348.258 196.776 348.75 196.286 349.42C195.795 350.09 195.536 350.901 195.547 351.731C195.558 352.56 195.838 353.364 196.346 354.021C197.407 355.404 199.209 356.313 200.842 356.841C201.698 357.115 202.58 357.302 203.474 357.399C203.926 357.449 206.507 357.797 206.732 357.399C208.343 354.879 209.487 350.264 208.144 347.187Z" fill="white"/>
<g opacity="0.72">
<path opacity="0.72" d="M240.176 346.003C244.678 346.003 248.328 342.353 248.328 337.851C248.328 333.348 244.678 329.698 240.176 329.698C235.674 329.698 232.024 333.348 232.024 337.851C232.024 342.353 235.674 346.003 240.176 346.003Z" fill="#3FBDF1"/>
<path opacity="0.72" d="M243.713 339.295C243.915 339.09 244.083 338.854 244.213 338.597C244.445 338.153 244.507 337.639 244.388 337.153C244.269 336.666 243.976 336.24 243.565 335.954C243.296 335.768 242.987 335.647 242.664 335.601C242.34 335.554 242.011 335.584 241.7 335.686C241.683 335.229 241.517 334.791 241.228 334.436C240.94 334.082 240.543 333.831 240.1 333.721C239.656 333.612 239.188 333.65 238.768 333.829C238.347 334.008 237.997 334.32 237.769 334.716C237.325 335.612 237.153 336.619 237.273 337.612C237.314 338.102 237.403 338.587 237.541 339.06C237.61 339.303 237.972 340.689 238.218 340.732C239.836 341.004 242.428 340.624 243.713 339.295Z" fill="white"/>
</g>
<path d="M228.494 376.348L224.619 384.542C223.213 387.514 224.483 391.061 227.454 392.467L235.649 396.342C238.62 397.747 242.168 396.477 243.573 393.506L247.448 385.312C248.853 382.34 247.584 378.792 244.613 377.387L236.418 373.512C233.447 372.107 229.899 373.376 228.494 376.348Z" fill="#3FBDF1"/>
<path d="M245.237 386.746L242.431 392.679C241.843 393.915 240.789 394.868 239.5 395.33C238.212 395.791 236.793 395.725 235.553 395.144L228.437 391.778C227.201 391.188 226.249 390.135 225.788 388.846C225.327 387.558 225.394 386.139 225.975 384.9L226.163 384.502C228.096 382.959 231.437 380.882 232.657 383.709C234.413 387.792 236.697 386.474 239.615 384.766C242.051 383.325 244.976 382.844 245.237 386.746Z" fill="white"/>
<path d="M234.214 380.44C235.423 380.44 236.404 379.459 236.404 378.25C236.404 377.04 235.423 376.06 234.214 376.06C233.004 376.06 232.024 377.04 232.024 378.25C232.024 379.459 233.004 380.44 234.214 380.44Z" fill="white"/>
<path d="M271.58 349.471C272.016 350.265 272.332 351.119 272.518 352.005C272.85 353.626 272.754 355.305 272.241 356.878C271.729 358.452 270.816 359.865 269.593 360.979C268.623 361.837 267.388 362.506 266.407 363.404C265.692 364.022 265.165 364.829 264.887 365.732C264.836 366.041 264.712 366.332 264.525 366.583C263.953 367.198 263.392 366.221 262.896 366.054C262.097 365.794 261.229 365.836 260.459 366.173C258.435 367.02 256.18 367.14 254.077 366.514C251.974 365.888 250.152 364.553 248.92 362.737C247.689 360.921 247.123 358.734 247.32 356.549C247.516 354.363 248.462 352.313 249.998 350.745C251.514 349.199 253.498 348.211 255.428 347.205C257.115 346.311 258.794 345.358 260.626 344.823C264.919 343.538 269.502 345.677 271.58 349.471Z" fill="#3FBDF1"/>
<path d="M254.291 360.653C255.431 360.653 256.355 359.729 256.355 358.59C256.355 357.45 255.431 356.526 254.291 356.526C253.152 356.526 252.228 357.45 252.228 358.59C252.228 359.729 253.152 360.653 254.291 360.653Z" fill="white"/>
<path d="M259.847 357.681C260.986 357.681 261.91 356.757 261.91 355.618C261.91 354.478 260.986 353.554 259.847 353.554C258.707 353.554 257.784 354.478 257.784 355.618C257.784 356.757 258.707 357.681 259.847 357.681Z" fill="white"/>
<path d="M265.061 354.894C266.2 354.894 267.124 353.97 267.124 352.83C267.124 351.691 266.2 350.767 265.061 350.767C263.921 350.767 262.997 351.691 262.997 352.83C262.997 353.97 263.921 354.894 265.061 354.894Z" fill="white"/>
<path d="M202.149 286.15C202.149 286.15 215.735 328.171 268.033 325.901C285.409 323.729 306.09 325.901 324.505 350.155C352.498 387.05 341.258 428.151 328.538 454.241" stroke="#CCDDE2" stroke-width="4.11" stroke-miterlimit="10"/>
<g opacity="0.54">
<path opacity="0.54" d="M277.745 302.653C277.694 303.287 277.595 303.916 277.451 304.536L275.822 311.602C275.323 313.774 274.762 316.047 273.212 317.633C270.316 320.587 265.502 319.91 261.476 319.016L251.594 316.822C249.324 316.319 247.018 315.801 244.984 314.675C242.949 313.55 241.183 311.707 240.712 309.43C240.35 307.75 240.737 306.013 241.107 304.34L242.598 297.556C243.094 295.334 243.651 292.988 245.255 291.37C248.111 288.492 252.857 289.147 256.803 290.005L266.924 292.206C273.028 293.524 278.23 296.354 277.745 302.653Z" fill="#3FBDF1"/>
<path opacity="0.54" d="M264.115 302.842C264.538 303.235 264.851 303.733 265.02 304.286C265.19 304.838 265.211 305.426 265.081 305.989C264.952 306.552 264.676 307.072 264.282 307.495C263.888 307.918 263.39 308.229 262.837 308.398L259.825 309.321L256.813 310.244C256.261 310.414 255.673 310.434 255.11 310.304C254.547 310.174 254.028 309.899 253.605 309.505C253.182 309.111 252.87 308.613 252.701 308.06C252.531 307.507 252.51 306.92 252.64 306.357L253.364 303.287L254.069 300.221C254.198 299.657 254.473 299.138 254.867 298.714C255.261 298.291 255.759 297.978 256.312 297.809C256.865 297.639 257.452 297.619 258.016 297.748C258.579 297.878 259.098 298.154 259.521 298.548L261.827 300.695L264.115 302.842Z" fill="white"/>
</g>
<path d="M64.306 541.323H376.9" stroke="black" stroke-width="4.11" stroke-miterlimit="10"/>
<path d="M130.061 580.134C132.313 580.576 133.439 581.744 133.439 583.64C133.439 585.022 132.94 586.098 131.942 586.867C130.945 587.622 129.648 588 128.052 588H121.105V587.06C121.105 586.846 121.212 586.718 121.426 586.675L122.644 586.418V574.277L121.426 574.021C121.212 573.978 121.105 573.85 121.105 573.636V572.696H127.539C129.206 572.696 130.517 573.009 131.472 573.636C132.441 574.263 132.926 575.232 132.926 576.543C132.926 577.469 132.691 578.225 132.22 578.809C131.75 579.393 131.03 579.835 130.061 580.134ZM127.454 579.536C128.537 579.536 129.377 579.329 129.976 578.916C130.574 578.488 130.874 577.84 130.874 576.971C130.874 576.044 130.589 575.382 130.019 574.983C129.463 574.569 128.636 574.363 127.539 574.363H124.718V579.536H127.454ZM131.387 583.597C131.387 582.713 131.087 582.065 130.489 581.652C129.905 581.238 129.085 581.032 128.031 581.032H124.718V586.354H128.052C129.178 586.368 130.012 586.14 130.553 585.67C131.109 585.186 131.387 584.495 131.387 583.597ZM143.953 586.632C144.052 586.646 144.131 586.696 144.188 586.782C144.245 586.853 144.273 586.938 144.273 587.038V587.957H142.05C141.922 587.957 141.772 587.929 141.601 587.872C141.502 587.843 141.43 587.729 141.388 587.53L141.174 586.504L140.319 587.209C140.077 587.409 139.792 587.58 139.464 587.722C139.15 587.865 138.837 587.972 138.523 588.043C138.238 588.114 137.854 588.15 137.369 588.15C136.97 588.15 136.585 588.085 136.215 587.957C135.773 587.801 135.453 587.63 135.253 587.444C134.997 587.216 134.783 586.917 134.612 586.547C134.455 586.219 134.377 585.791 134.377 585.264C134.377 584.808 134.491 584.395 134.719 584.024C134.975 583.611 135.36 583.255 135.873 582.956C136.443 582.628 137.127 582.371 137.925 582.186C138.751 582.001 139.792 581.908 141.046 581.908V581.075C141.046 580.234 140.86 579.593 140.49 579.151C140.119 578.709 139.585 578.488 138.887 578.488C138.431 578.488 138.039 578.552 137.711 578.681C137.341 578.823 137.07 578.951 136.899 579.065C136.813 579.122 136.714 579.186 136.6 579.258C136.5 579.315 136.393 579.379 136.279 579.45C136.122 579.564 135.958 579.621 135.787 579.621C135.631 579.621 135.517 579.593 135.445 579.536C135.36 579.464 135.289 579.379 135.232 579.279L134.89 578.681C135.445 578.139 136.087 577.712 136.813 577.398C137.469 577.113 138.238 576.971 139.122 576.971C139.763 576.971 140.305 577.07 140.746 577.27C141.231 577.484 141.623 577.754 141.922 578.082C142.235 578.41 142.478 578.837 142.649 579.365C142.805 579.835 142.884 580.391 142.884 581.032V586.44C143.568 586.582 143.924 586.661 143.953 586.675V586.632ZM141.003 583.127C140.077 583.127 139.336 583.176 138.78 583.276C138.238 583.376 137.74 583.526 137.284 583.725C136.885 583.91 136.6 584.124 136.429 584.366C136.258 584.623 136.172 584.894 136.172 585.179C136.172 585.407 136.222 585.649 136.322 585.905C136.407 586.119 136.536 586.29 136.707 586.418C136.878 586.547 137.063 586.639 137.262 586.696C137.505 586.767 137.74 586.803 137.968 586.803C138.253 586.803 138.552 586.767 138.865 586.696C139.15 586.625 139.414 586.532 139.656 586.418C139.87 586.319 140.105 586.162 140.362 585.948C140.504 585.834 140.718 585.635 141.003 585.35V583.127ZM148.884 578.723C149.952 577.569 151.149 576.992 152.475 576.992C153.643 576.992 154.541 577.37 155.168 578.125C155.781 578.866 156.087 579.856 156.087 581.096V586.418C156.771 586.547 157.177 586.632 157.305 586.675C157.533 586.718 157.647 586.853 157.647 587.081V588H154.185V581.117C154.185 579.379 153.429 578.51 151.919 578.51C150.85 578.51 149.867 579.015 148.969 580.027V586.44C149.026 586.44 149.439 586.525 150.209 586.696C150.423 586.739 150.53 586.874 150.53 587.102V588H145.549V587.102C145.549 586.874 145.649 586.739 145.848 586.696L147.088 586.461V578.745C146.376 578.616 145.962 578.531 145.848 578.488C145.649 578.445 145.549 578.31 145.549 578.082V577.184H148.2C148.456 577.184 148.627 577.313 148.713 577.569L148.884 578.745V578.723ZM169.617 586.675C169.831 586.718 169.938 586.846 169.938 587.06V588H167.929C167.658 588 167.416 587.872 167.202 587.615L163.654 583.169C163.554 583.027 163.447 582.934 163.333 582.891C163.219 582.849 163.055 582.827 162.841 582.827H162.328V586.44C162.414 586.44 162.663 586.49 163.077 586.589L163.525 586.675C163.753 586.718 163.867 586.853 163.867 587.081V588H158.866V587.081C158.866 586.853 158.973 586.718 159.186 586.675L160.405 586.44V573.807C159.721 573.679 159.315 573.593 159.186 573.551C158.973 573.508 158.866 573.38 158.866 573.166V572.247H162.328V581.502H162.799C163.098 581.502 163.326 581.402 163.483 581.203L165.919 578.595C165.877 578.595 165.834 578.588 165.791 578.574C165.748 578.559 165.706 578.552 165.663 578.552L165.321 578.488C165.093 578.445 164.979 578.31 164.979 578.082V577.184H169.51V578.082C169.51 578.296 169.418 578.424 169.233 578.467L167.907 578.723L165.385 581.417C165.157 581.687 164.95 581.88 164.765 581.994C165.05 582.179 165.264 582.4 165.406 582.656L168.399 586.461L168.955 586.547C169.325 586.632 169.553 586.675 169.639 586.675H169.617ZM176.567 586.675C177.636 586.675 178.612 586.176 179.495 585.179V578.766C179.367 578.723 178.961 578.638 178.277 578.51C178.063 578.467 177.956 578.331 177.956 578.103V577.184H181.397V586.461C182.081 586.589 182.488 586.675 182.616 586.718C182.83 586.76 182.936 586.889 182.936 587.102V588.021H180.265C180.008 588.021 179.837 587.886 179.752 587.615L179.602 586.461C178.576 587.615 177.379 588.192 176.011 588.192C174.857 588.192 173.959 587.815 173.318 587.06C172.691 586.304 172.377 585.314 172.377 584.088V578.745C171.722 578.616 171.323 578.531 171.18 578.488C170.952 578.445 170.838 578.31 170.838 578.082V577.184H174.301V584.067C174.301 584.922 174.486 585.563 174.857 585.991C175.242 586.433 175.812 586.653 176.567 586.653V586.675ZM187.787 573.251C187.858 573.394 187.894 573.572 187.894 573.786C187.894 573.985 187.858 574.156 187.787 574.299C187.701 574.47 187.601 574.612 187.487 574.726C187.373 574.84 187.231 574.94 187.06 575.025C186.917 575.097 186.746 575.132 186.547 575.132C186.348 575.132 186.177 575.097 186.034 575.025C185.863 574.94 185.721 574.84 185.607 574.726C185.493 574.612 185.393 574.47 185.307 574.299C185.236 574.156 185.2 573.985 185.2 573.786C185.2 573.572 185.236 573.394 185.307 573.251C185.407 573.052 185.507 572.902 185.607 572.802C185.721 572.688 185.863 572.589 186.034 572.503C186.177 572.432 186.348 572.396 186.547 572.396C186.746 572.396 186.917 572.432 187.06 572.503C187.231 572.589 187.373 572.688 187.487 572.802C187.587 572.902 187.687 573.052 187.787 573.251ZM185.799 591.655C185.443 591.812 185.008 591.89 184.495 591.89C184.039 591.89 183.597 591.819 183.17 591.676L183.255 590.65C183.284 590.508 183.398 590.437 183.597 590.437H184.025C184.581 590.437 184.972 590.308 185.2 590.052C185.443 589.781 185.564 589.368 185.564 588.812V578.745C185.478 578.73 185.343 578.709 185.158 578.681C184.972 578.638 184.695 578.581 184.324 578.51C184.125 578.467 184.025 578.331 184.025 578.103V577.184H187.445V588.812C187.445 590.251 186.896 591.206 185.799 591.676V591.655ZM196.864 578.852C197.904 577.598 199.115 576.971 200.497 576.971C201.766 576.971 202.763 577.441 203.49 578.381C204.231 579.379 204.601 580.761 204.601 582.528C204.601 584.153 204.188 585.485 203.362 586.525C202.492 587.608 201.395 588.15 200.07 588.15C198.745 588.15 197.704 587.729 196.949 586.889V590.095L197.526 590.223L198.146 590.351C198.374 590.394 198.488 590.529 198.488 590.757V591.676H193.486V590.757C193.486 590.529 193.6 590.394 193.828 590.351L195.025 590.116V578.745C194.37 578.616 193.971 578.531 193.828 578.488C193.6 578.445 193.486 578.31 193.486 578.082V577.184H196.18C196.436 577.184 196.607 577.313 196.693 577.569L196.842 578.852H196.864ZM196.949 585.392C197.59 586.247 198.417 586.675 199.429 586.675C200.483 586.675 201.281 586.319 201.823 585.606C202.364 584.894 202.635 583.868 202.635 582.528C202.635 581.203 202.4 580.205 201.93 579.536C201.459 578.852 200.768 578.51 199.856 578.51C198.73 578.51 197.761 579.058 196.949 580.155V585.392ZM211.25 577.013C212.034 577.013 212.746 577.142 213.388 577.398C214.015 577.655 214.563 578.025 215.033 578.51C215.475 578.966 215.817 579.55 216.059 580.262C216.302 580.961 216.423 581.73 216.423 582.571C216.423 583.412 216.302 584.181 216.059 584.879C215.817 585.592 215.475 586.176 215.033 586.632C214.563 587.117 214.015 587.487 213.388 587.744C212.746 588 212.034 588.128 211.25 588.128C210.466 588.128 209.754 588 209.113 587.744C208.486 587.487 207.937 587.117 207.467 586.632C207.039 586.19 206.69 585.606 206.419 584.879C206.191 584.267 206.077 583.497 206.077 582.571C206.077 581.645 206.191 580.875 206.419 580.262C206.69 579.536 207.039 578.951 207.467 578.51C207.937 578.025 208.486 577.655 209.113 577.398C209.754 577.142 210.466 577.013 211.25 577.013ZM211.25 586.675C212.347 586.675 213.145 586.319 213.644 585.606C214.171 584.865 214.435 583.86 214.435 582.592C214.435 581.324 214.171 580.319 213.644 579.578C213.145 578.866 212.347 578.51 211.25 578.51C210.694 578.51 210.224 578.595 209.839 578.766C209.469 578.937 209.141 579.208 208.856 579.578C208.585 579.949 208.386 580.376 208.258 580.861C208.115 581.431 208.044 582.015 208.044 582.614C208.044 583.184 208.115 583.754 208.258 584.324C208.386 584.808 208.585 585.236 208.856 585.606C209.098 585.934 209.426 586.19 209.839 586.376C210.295 586.575 210.766 586.675 211.25 586.675ZM226.43 577.013C227.171 577.013 228.111 577.206 229.251 577.59V580.369H228.418C228.218 580.369 228.097 580.269 228.054 580.07L227.926 578.659C227.256 578.502 226.701 578.424 226.259 578.424H226.237C225.653 578.424 225.162 578.581 224.763 578.894C224.378 579.194 224.185 579.521 224.185 579.878C224.185 580.248 224.271 580.519 224.442 580.69C224.727 581.018 225.14 581.267 225.682 581.438L226.323 581.63C226.437 581.659 226.665 581.73 227.007 581.844L228.033 582.229C228.318 582.329 228.617 582.514 228.931 582.785C229.515 583.241 229.807 583.868 229.807 584.666C229.807 585.706 229.458 586.532 228.76 587.145C228.004 587.815 227.05 588.15 225.895 588.15C224.713 588.15 223.544 587.957 222.39 587.573V584.751H223.159C223.33 584.751 223.437 584.837 223.48 585.008L223.608 586.376C224.178 586.661 224.912 586.803 225.81 586.803C226.494 586.803 227.05 586.625 227.477 586.269C227.848 585.941 228.033 585.578 228.033 585.179C228.033 584.765 227.947 584.466 227.776 584.281C227.577 584.053 227.363 583.882 227.135 583.768C226.822 583.611 226.522 583.497 226.237 583.426C225.183 583.084 224.52 582.856 224.25 582.742C223.908 582.585 223.587 582.386 223.288 582.143C222.689 581.645 222.39 580.975 222.39 580.134C222.39 579.279 222.732 578.552 223.416 577.954C224.128 577.327 225.133 577.013 226.43 577.013ZM248.428 578.125C248.428 578.339 248.321 578.467 248.107 578.51C248.064 578.51 248 578.524 247.915 578.552C247.829 578.567 247.715 578.588 247.573 578.616C247.416 578.645 247.295 578.673 247.209 578.702C247.138 578.716 247.081 578.723 247.038 578.723L244.025 588H242.528C242.329 588 242.201 587.886 242.144 587.658L239.75 580.305C239.707 580.191 239.657 580.02 239.6 579.792C239.586 579.721 239.572 579.65 239.557 579.578C239.543 579.493 239.522 579.407 239.493 579.322C239.479 579.407 239.465 579.493 239.45 579.578C239.436 579.664 239.422 579.749 239.408 579.835L239.279 580.305L236.843 587.637C236.757 587.879 236.615 588 236.415 588H234.962L231.969 578.702C231.898 578.702 231.777 578.681 231.606 578.638C231.421 578.595 231.271 578.559 231.157 578.531C231.043 578.502 230.957 578.488 230.9 578.488C230.672 578.445 230.558 578.31 230.558 578.082V577.184H235.389V578.082C235.389 578.31 235.282 578.445 235.069 578.488C234.898 578.531 234.719 578.567 234.534 578.595L233.893 578.723L235.603 584.537C235.631 584.68 235.66 584.808 235.688 584.922C235.717 585.036 235.738 585.136 235.753 585.221C235.852 585.692 235.902 585.955 235.902 586.012C235.945 585.784 236.087 585.293 236.33 584.537L238.595 577.526C238.681 577.27 238.852 577.142 239.108 577.142H239.942C240.213 577.142 240.391 577.27 240.476 577.526L242.721 584.537L243.106 585.991C243.191 585.478 243.298 584.993 243.426 584.537L245.179 578.723C245.108 578.723 244.694 578.645 243.939 578.488C243.711 578.445 243.597 578.31 243.597 578.082V577.184L248.428 577.206V578.125ZM254.48 577.013C255.264 577.013 255.976 577.142 256.617 577.398C257.244 577.655 257.793 578.025 258.263 578.51C258.705 578.966 259.047 579.55 259.289 580.262C259.532 580.961 259.653 581.73 259.653 582.571C259.653 583.412 259.532 584.181 259.289 584.879C259.047 585.592 258.705 586.176 258.263 586.632C257.793 587.117 257.244 587.487 256.617 587.744C255.976 588 255.264 588.128 254.48 588.128C253.696 588.128 252.984 588 252.342 587.744C251.715 587.487 251.167 587.117 250.697 586.632C250.269 586.19 249.92 585.606 249.649 584.879C249.421 584.267 249.307 583.497 249.307 582.571C249.307 581.645 249.421 580.875 249.649 580.262C249.92 579.536 250.269 578.951 250.697 578.51C251.167 578.025 251.715 577.655 252.342 577.398C252.984 577.142 253.696 577.013 254.48 577.013ZM254.48 586.675C255.577 586.675 256.375 586.319 256.874 585.606C257.401 584.865 257.665 583.86 257.665 582.592C257.665 581.324 257.401 580.319 256.874 579.578C256.375 578.866 255.577 578.51 254.48 578.51C253.924 578.51 253.454 578.595 253.069 578.766C252.699 578.937 252.371 579.208 252.086 579.578C251.815 579.949 251.616 580.376 251.487 580.861C251.345 581.431 251.274 582.015 251.274 582.614C251.274 583.184 251.345 583.754 251.487 584.324C251.616 584.808 251.815 585.236 252.086 585.606C252.328 585.934 252.656 586.19 253.069 586.376C253.525 586.575 253.995 586.675 254.48 586.675ZM264.832 573.251C264.903 573.394 264.939 573.572 264.939 573.786C264.939 573.985 264.903 574.156 264.832 574.299C264.747 574.47 264.647 574.612 264.533 574.726C264.419 574.84 264.276 574.94 264.105 575.025C263.963 575.097 263.792 575.132 263.592 575.132C263.393 575.132 263.222 575.097 263.079 575.025C262.908 574.94 262.766 574.84 262.652 574.726C262.538 574.612 262.438 574.47 262.353 574.299C262.281 574.156 262.246 573.985 262.246 573.786C262.246 573.572 262.281 573.394 262.353 573.251C262.452 573.052 262.552 572.902 262.652 572.802C262.766 572.688 262.908 572.589 263.079 572.503C263.222 572.432 263.393 572.396 263.592 572.396C263.792 572.396 263.963 572.432 264.105 572.503C264.276 572.589 264.419 572.688 264.533 572.802C264.633 572.902 264.732 573.052 264.832 573.251ZM262.844 591.655C262.488 591.812 262.053 591.89 261.54 591.89C261.084 591.89 260.643 591.819 260.215 591.676L260.301 590.65C260.329 590.508 260.443 590.437 260.643 590.437H261.07C261.626 590.437 262.018 590.308 262.246 590.052C262.488 589.781 262.609 589.368 262.609 588.812V578.745C262.524 578.73 262.388 578.709 262.203 578.681C262.018 578.638 261.74 578.581 261.369 578.51C261.17 578.467 261.07 578.331 261.07 578.103V577.184H264.49V588.812C264.49 590.251 263.942 591.206 262.844 591.676V591.655ZM271.134 577.013C271.761 577.013 272.352 577.12 272.908 577.334C273.478 577.548 273.948 577.854 274.319 578.253C274.746 578.709 275.06 579.215 275.259 579.771C275.487 580.412 275.601 581.096 275.601 581.823C275.601 582.15 275.573 582.35 275.516 582.421C275.444 582.521 275.316 582.571 275.131 582.571H267.949C267.949 583.255 268.034 583.853 268.205 584.366C268.348 584.808 268.59 585.221 268.932 585.606C269.246 585.962 269.602 586.219 270.001 586.376C270.428 586.547 270.884 586.632 271.369 586.632C271.882 586.632 272.295 586.582 272.609 586.482C272.908 586.383 273.207 586.262 273.506 586.119C273.82 585.962 274.034 585.848 274.148 585.777C274.333 585.663 274.475 585.606 274.575 585.606C274.732 585.606 274.853 585.67 274.939 585.798L275.473 586.504C275.273 586.76 274.988 587.003 274.618 587.231C274.19 587.501 273.841 587.679 273.571 587.765C273.143 587.907 272.758 588.007 272.416 588.064C271.989 588.135 271.597 588.171 271.241 588.171C270.5 588.171 269.809 588.043 269.167 587.786C268.555 587.544 268.006 587.166 267.521 586.653C267.065 586.183 266.709 585.578 266.453 584.837C266.196 584.11 266.068 583.283 266.068 582.357C266.068 581.616 266.189 580.918 266.431 580.262C266.674 579.593 267.008 579.023 267.436 578.552C267.878 578.068 268.412 577.69 269.039 577.419C269.666 577.149 270.364 577.013 271.134 577.013ZM271.177 578.403C270.25 578.403 269.531 578.666 269.018 579.194C268.49 579.749 268.163 580.49 268.034 581.417H273.913C273.913 580.975 273.848 580.576 273.72 580.22C273.563 579.778 273.392 579.457 273.207 579.258C272.965 579.001 272.673 578.795 272.331 578.638C272.003 578.495 271.611 578.424 271.155 578.424L271.177 578.403ZM280.201 578.702C281.113 577.576 282.132 577.013 283.257 577.013C283.998 577.013 284.597 577.22 285.053 577.633C285.495 578.032 285.822 578.581 286.036 579.279C286.35 578.51 286.82 577.94 287.447 577.569C288.102 577.199 288.729 577.013 289.328 577.013C289.955 577.013 290.511 577.106 290.995 577.291C291.451 577.462 291.836 577.726 292.149 578.082C292.776 578.795 293.09 579.806 293.09 581.117V586.461C293.802 586.589 294.216 586.675 294.33 586.718C294.543 586.76 294.65 586.889 294.65 587.102V588.043H291.209V581.139C291.209 580.269 291.024 579.628 290.653 579.215C290.254 578.773 289.713 578.552 289.029 578.552C288.373 578.552 287.832 578.766 287.404 579.194C286.934 579.664 286.699 580.305 286.699 581.117V586.461C286.756 586.475 286.877 586.504 287.062 586.547C287.247 586.589 287.532 586.646 287.917 586.718C288.131 586.76 288.238 586.889 288.238 587.102V588.021H284.796V581.117C284.796 579.407 284.112 578.552 282.744 578.552C281.861 578.552 281.056 579.023 280.329 579.963V586.461L280.906 586.568L281.547 586.696C281.761 586.739 281.868 586.874 281.868 587.102V588H276.888V587.102C276.888 586.874 276.987 586.739 277.187 586.696L278.427 586.461V578.745C277.714 578.616 277.301 578.531 277.187 578.488C276.987 578.445 276.888 578.31 276.888 578.082V577.184H279.538C279.795 577.184 279.966 577.313 280.051 577.569L280.201 578.681V578.702ZM300.349 586.675C301.418 586.675 302.394 586.176 303.277 585.179V578.766C303.149 578.723 302.743 578.638 302.059 578.51C301.845 578.467 301.738 578.331 301.738 578.103V577.184H305.18V586.461C305.864 586.589 306.27 586.675 306.398 586.718C306.612 586.76 306.719 586.889 306.719 587.102V588.021H304.047C303.79 588.021 303.619 587.886 303.534 587.615L303.384 586.461C302.358 587.615 301.161 588.192 299.793 588.192C298.639 588.192 297.741 587.815 297.1 587.06C296.473 586.304 296.159 585.314 296.159 584.088V578.745C295.504 578.616 295.105 578.531 294.962 578.488C294.734 578.445 294.62 578.31 294.62 578.082V577.184H298.083V584.067C298.083 584.922 298.268 585.563 298.639 585.991C299.024 586.433 299.594 586.653 300.349 586.653V586.675Z" fill="#160C28"/>
</g>
<defs>
<clipPath id="clip0_12_111">
<rect width="428" height="926" fill="white"/>
</clipPath>
</defs>
</svg>
